<svg width="667" height="169" viewBox="0 0 667 169" fill="none" xmlns="http://www.w3.org/2000/svg">
<path d="M0 161.066L62.826 5H87.468L150.072 161.066H117.882L69.486 32.972H80.586L31.524 161.066H0ZM33.3 131.984V106.676H117.216V131.984H33.3Z" fill="white"/>
<path d="M203.983 163.508C197.915 163.508 191.921 162.694 186.001 161.066C180.229 159.438 174.901 157.218 170.017 154.406C165.133 151.446 160.915 147.894 157.363 143.75L174.679 126.212C178.379 130.356 182.671 133.464 187.555 135.536C192.439 137.608 197.841 138.644 203.761 138.644C208.497 138.644 212.049 137.978 214.417 136.646C216.933 135.314 218.191 133.316 218.191 130.652C218.191 127.692 216.859 125.398 214.195 123.77C211.679 122.142 208.349 120.81 204.205 119.774C200.061 118.59 195.695 117.332 191.107 116C186.667 114.52 182.375 112.67 178.231 110.45C174.087 108.082 170.683 104.9 168.019 100.904C165.503 96.76 164.245 91.432 164.245 84.92C164.245 78.112 165.873 72.192 169.129 67.16C172.533 62.128 177.343 58.206 183.559 55.394C189.775 52.582 197.101 51.176 205.537 51.176C214.417 51.176 222.409 52.73 229.513 55.838C236.765 58.946 242.759 63.608 247.495 69.824L229.957 87.362C226.701 83.366 223.001 80.48 218.857 78.704C214.861 76.928 210.495 76.04 205.759 76.04C201.467 76.04 198.137 76.706 195.769 78.038C193.549 79.37 192.439 81.22 192.439 83.588C192.439 86.252 193.697 88.324 196.213 89.804C198.877 91.284 202.281 92.616 206.425 93.8C210.569 94.836 214.861 96.094 219.301 97.574C223.889 98.906 228.181 100.83 232.177 103.346C236.321 105.862 239.651 109.192 242.167 113.336C244.831 117.48 246.163 122.808 246.163 129.32C246.163 139.828 242.389 148.19 234.841 154.406C227.293 160.474 217.007 163.508 203.983 163.508Z" fill="white"/>
<path d="M302.626 163.508C296.558 163.508 290.564 162.694 284.644 161.066C278.872 159.438 273.544 157.218 268.66 154.406C263.776 151.446 259.558 147.894 256.006 143.75L273.322 126.212C277.022 130.356 281.314 133.464 286.198 135.536C291.082 137.608 296.484 138.644 302.404 138.644C307.14 138.644 310.692 137.978 313.06 136.646C315.576 135.314 316.834 133.316 316.834 130.652C316.834 127.692 315.502 125.398 312.838 123.77C310.322 122.142 306.992 120.81 302.848 119.774C298.704 118.59 294.338 117.332 289.75 116C285.31 114.52 281.018 112.67 276.874 110.45C272.73 108.082 269.326 104.9 266.662 100.904C264.146 96.76 262.888 91.432 262.888 84.92C262.888 78.112 264.516 72.192 267.772 67.16C271.176 62.128 275.986 58.206 282.202 55.394C288.418 52.582 295.744 51.176 304.18 51.176C313.06 51.176 321.052 52.73 328.156 55.838C335.408 58.946 341.402 63.608 346.138 69.824L328.6 87.362C325.344 83.366 321.644 80.48 317.5 78.704C313.504 76.928 309.138 76.04 304.402 76.04C300.11 76.04 296.78 76.706 294.412 78.038C292.192 79.37 291.082 81.22 291.082 83.588C291.082 86.252 292.34 88.324 294.856 89.804C297.52 91.284 300.924 92.616 305.068 93.8C309.212 94.836 313.504 96.094 317.944 97.574C322.532 98.906 326.824 100.83 330.82 103.346C334.964 105.862 338.294 109.192 340.81 113.336C343.474 117.48 344.806 122.808 344.806 129.32C344.806 139.828 341.032 148.19 333.484 154.406C325.936 160.474 315.65 163.508 302.626 163.508Z" fill="white"/>
<path d="M409.26 163.286C399.492 163.286 390.686 160.844 382.842 155.96C374.998 151.076 368.856 144.416 364.416 135.98C359.976 127.544 357.756 118.072 357.756 107.564C357.756 96.908 359.976 87.362 364.416 78.926C368.856 70.49 374.998 63.83 382.842 58.946C390.686 54.062 399.492 51.62 409.26 51.62C416.956 51.62 423.838 53.174 429.906 56.282C435.974 59.39 440.784 63.756 444.336 69.38C448.036 74.856 450.034 81.072 450.33 88.028V126.656C450.034 133.76 448.036 140.05 444.336 145.526C440.784 151.002 435.974 155.368 429.906 158.624C423.838 161.732 416.956 163.286 409.26 163.286ZM414.588 136.424C422.728 136.424 429.314 133.76 434.346 128.432C439.378 122.956 441.894 115.926 441.894 107.342C441.894 101.718 440.71 96.76 438.342 92.468C436.122 88.028 432.94 84.624 428.796 82.256C424.8 79.74 420.064 78.482 414.588 78.482C409.26 78.482 404.524 79.74 400.38 82.256C396.384 84.624 393.202 88.028 390.834 92.468C388.614 96.76 387.504 101.718 387.504 107.342C387.504 113.114 388.614 118.22 390.834 122.66C393.202 126.952 396.384 130.356 400.38 132.872C404.524 135.24 409.26 136.424 414.588 136.424ZM440.34 161.066V132.206L445.002 106.01L440.34 80.258V53.84H469.2V161.066H440.34Z" fill="white"/>
<path d="M567.078 161.066V99.572C567.078 93.208 565.08 88.028 561.084 84.032C557.088 80.036 551.908 78.038 545.544 78.038C541.4 78.038 537.7 78.926 534.444 80.702C531.188 82.478 528.598 84.994 526.674 88.25C524.898 91.506 524.01 95.28 524.01 99.572L512.688 93.8C512.688 85.364 514.464 78.038 518.016 71.822C521.716 65.458 526.748 60.5 533.112 56.948C539.624 53.396 546.95 51.62 555.09 51.62C562.934 51.62 569.964 53.618 576.18 57.614C582.396 61.462 587.28 66.568 590.832 72.932C594.384 79.148 596.16 85.882 596.16 93.134V161.066H567.078ZM494.928 161.066V53.84H524.01V161.066H494.928Z" fill="white"/>
<path d="M639.566 163.286C634.238 163.286 629.872 161.51 626.468 157.958C623.064 154.406 621.362 150.04 621.362 144.86C621.362 139.68 623.064 135.314 626.468 131.762C629.872 128.21 634.238 126.434 639.566 126.434C644.746 126.434 649.038 128.21 652.442 131.762C655.846 135.314 657.548 139.68 657.548 144.86C657.548 150.04 655.846 154.406 652.442 157.958C649.038 161.51 644.746 163.286 639.566 163.286Z" fill="white"/>
</svg>
