<svg width="148" height="67" viewBox="0 0 148 67" fill="none" xmlns="http://www.w3.org/2000/svg">
<g clip-path="url(#clip0)">
<path d="M13.9604 16.345C23.065 12.1372 36.1583 11.5686 46.3901 8.44116C56.7089 5.31373 63.9922 -0.429407 70.9291 0.025494C77.866 0.537257 84.3695 7.19021 96.8556 9.46467C109.342 11.7961 127.812 9.74903 138.043 13.4451C148.362 17.1411 150.53 26.5803 145.154 33.9725C139.777 41.4215 126.944 46.8235 116.452 50.2921C105.96 53.8174 97.8964 55.4095 90.7861 57.343C83.6757 59.2765 77.5191 61.4939 69.542 63.5978C61.5643 65.6452 51.6795 67.5782 41.4476 66.8391C31.2158 66.157 20.5504 62.7452 12.7465 57.1157C4.9425 51.543 0 43.8097 0 36.0196C0 28.2862 4.94251 20.496 13.9604 16.345Z" fill="black"/>
</g>
<defs>
<clipPath id="clip0">
<rect width="148" height="67" fill="white"/>
</clipPath>
</defs>
</svg>
