<svg xmlns="http://www.w3.org/2000/svg" viewBox="0 0 750 500"><g id="freepik--background-complete--inject-572"><path d="M613.85,65.45l.24-.21,0,.32a1.31,1.31,0,0,0,.3.69l.21.25-.32,0a1.3,1.3,0,0,0-.69.3l-.25.2,0-.31a1.3,1.3,0,0,0-.3-.7l-.2-.24.32,0A1.38,1.38,0,0,0,613.85,65.45Z" style="fill:#e0e0e0"></path><path d="M702.19,73.77l.43-.36.06.55a2.37,2.37,0,0,0,.52,1.19l.35.42-.54.07a2.37,2.37,0,0,0-1.19.52l-.43.35-.06-.55a2.41,2.41,0,0,0-.52-1.19l-.35-.42.54-.07A2.27,2.27,0,0,0,702.19,73.77Z" style="fill:#e0e0e0"></path><path d="M707.6,55.84l.71-.59.12.92a3.84,3.84,0,0,0,.87,2l.59.71L709,59a3.89,3.89,0,0,0-2,.87l-.71.59-.11-.92a4,4,0,0,0-.87-2l-.59-.71.91-.11A3.81,3.81,0,0,0,707.6,55.84Z" style="fill:#e0e0e0"></path><path d="M635.16,103.94l.14-.92.7.62a3.8,3.8,0,0,0,2,.93l.91.15-.62.69a3.88,3.88,0,0,0-.93,2l-.14.91-.69-.61a3.89,3.89,0,0,0-2-.94l-.92-.14.62-.69A4,4,0,0,0,635.16,103.94Z" style="fill:#e0e0e0"></path><path d="M636.72,69.09c-2.26.92-4.55,1.8-6.79,2.78a7.22,7.22,0,0,0-4.13,4.48,7.89,7.89,0,0,0,.93,6.24c3.23,6.16,7.89,12.39,14.61,15a19.23,19.23,0,0,0,14.15-.48,1.54,1.54,0,0,0-1.17-2.85,16.24,16.24,0,0,1-10.77.84,18.76,18.76,0,0,1-7.87-5,35.2,35.2,0,0,1-5.35-7.25c-.7-1.21-1.68-2.65-1.77-4.07a4.06,4.06,0,0,1,2.54-4c2.23-1,4.53-1.86,6.78-2.79a1.53,1.53,0,0,0-1.16-2.84Z" style="fill:#ebebeb"></path><path d="M680.9,54c2.13-.88,4.26-1.76,6.39-2.62a4.35,4.35,0,0,1,3.84,0c1.6.84,2,2.49,2.5,4.1,1.67,5.7,2.5,12.33,0,17.91a16,16,0,0,1-8.78,8.06A1.54,1.54,0,0,0,686,84.27,19.47,19.47,0,0,0,695.75,76a21.72,21.72,0,0,0,2.5-10.88,39,39,0,0,0-1.61-10.29c-.54-1.92-1.1-3.79-2.63-5.18A7.1,7.1,0,0,0,687.65,48c-2.71.65-5.34,2.08-7.92,3.14A1.54,1.54,0,0,0,680.9,54Z" style="fill:#ebebeb"></path><path d="M680.17,102.62l-4,.66,0,0-.08.06-.11,0,0,0-3.32,2.36s2.49,7.45,1.86,13.8l6.92-2.84.19-.08,6.93-2.84C683.63,109.67,680.17,102.62,680.17,102.62Z" style="fill:#ebebeb"></path><path d="M681.73,102.64l-10.18,4.18a2.57,2.57,0,0,1-3.36-1.41h0a2.58,2.58,0,0,1,1.4-3.36l10.18-4.17a2.57,2.57,0,0,1,3.36,1.4h0A2.58,2.58,0,0,1,681.73,102.64Z" style="fill:#ebebeb"></path><path d="M679.79,43.79l-24,9.86-1.27.52-22.7,9.31c0,.55,17.05,48.77,43.22,37.09l0,0C701.9,90.48,680.15,44.21,679.79,43.79Z" style="fill:#ebebeb"></path><path d="M699,115.7,669,128h0a8,8,0,0,1,4.37-10.45l15.16-6.21A8,8,0,0,1,699,115.7Z" style="fill:#ebebeb"></path><rect x="665.88" y="120.73" width="43.48" height="20.93" transform="translate(1.66 270.79) rotate(-22.3)" style="fill:#e0e0e0"></rect><rect x="672.17" y="126.2" width="30.76" height="10.26" transform="translate(1.6 270.77) rotate(-22.3)" style="fill:#ebebeb"></rect><polygon points="661.08 65.45 667.06 70.74 674.81 68.8 671.63 76.13 675.87 82.89 667.92 82.14 662.79 88.26 661.05 80.47 653.65 77.48 660.52 73.42 661.08 65.45" style="fill:#fff"></polygon><path d="M665.75,99.9l-.12,0-.35.06a7,7,0,0,1-1.38.09,9.3,9.3,0,0,1-2.16-.37,13.26,13.26,0,0,1-2.68-1.12,21.81,21.81,0,0,1-2.92-2l-1.53-1.23c-.51-.44-1-.91-1.55-1.38a53.15,53.15,0,0,1-6.14-6.89,79.38,79.38,0,0,1-5.07-7.72c-1.43-2.46-2.62-4.72-3.6-6.63s-1.74-3.48-2.26-4.56c-.26-.54-.46-1-.59-1.25l-.16-.32,0-.12.06.11c0,.08.09.18.16.32.14.29.35.7.62,1.24.53,1.07,1.31,2.62,2.29,4.53s2.19,4.16,3.62,6.61A81.38,81.38,0,0,0,647,87.06a53.61,53.61,0,0,0,6.12,6.88c.53.47,1,.94,1.54,1.38l1.51,1.23a21.86,21.86,0,0,0,2.91,2,13.74,13.74,0,0,0,2.65,1.13,8.37,8.37,0,0,0,3.51.33l.36-.06Z" style="fill:#fff"></path><path d="M669.87,103.08a1.81,1.81,0,0,0-.37.4,1.62,1.62,0,0,0-.11,1.27,3.25,3.25,0,0,0,.74,1.11,3.48,3.48,0,0,1,.38.42,2,2,0,0,1-.45-.35,2.92,2.92,0,0,1-.79-1.13,1.59,1.59,0,0,1,.15-1.37.81.81,0,0,1,.31-.29C669.81,103.09,669.87,103.07,669.87,103.08Z" style="fill:#fff"></path><path d="M674.54,118a3.15,3.15,0,0,1-.36.18,6.46,6.46,0,0,0-1,.52,8,8,0,0,0-2.52,2.49,8.31,8.31,0,0,0-1.27,4.42c0,.26,0,.4,0,.4s0,0,0-.1,0-.17,0-.3a6.06,6.06,0,0,1,0-1.09,7.74,7.74,0,0,1,3.76-5.91,6.56,6.56,0,0,1,1-.48l.28-.1Z" style="fill:#fff"></path><circle cx="77.95" cy="127.35" r="41.24" transform="translate(-71.01 137.49) rotate(-62.43)" style="fill:#ebebeb"></circle><circle cx="77.95" cy="127.35" r="32.99" transform="translate(-59.44 185.81) rotate(-81.58)" style="fill:#fafafa"></circle><circle cx="77.95" cy="127.35" r="24.74" transform="matrix(0.95, -0.32, 0.32, 0.95, -36.58, 31.56)" style="fill:#ebebeb"></circle><circle cx="77.95" cy="127.35" r="16.5" transform="translate(-50.86 51.84) rotate(-28.15)" style="fill:#fafafa"></circle><circle cx="77.95" cy="127.35" r="8.25" transform="translate(-70.8 114.4) rotate(-53.55)" style="fill:#ebebeb"></circle><polygon points="79.22 128.56 67.77 125.54 70.7 122.54 47.02 103.08 48.32 101.81 72.14 121.14 74.44 118 79.22 128.56" style="fill:#e0e0e0"></polygon><path d="M47,103.08l-.36.21a5.67,5.67,0,0,1-5.7-.08l-9.93-6,6.68-1-.72-7,9.14,6.25a5.66,5.66,0,0,1,2.19,6.39h0Z" style="fill:#e0e0e0"></path><polygon points="337.94 394.38 229.52 394.38 223.4 384.37 328.65 384.37 337.94 394.38" style="fill:#e0e0e0"></polygon><polygon points="325.11 380.23 336 401.13 342.25 388.62 325.11 380.23" style="fill:#e0e0e0"></polygon><polygon points="595.63 443.26 487.21 443.26 481.09 433.25 586.35 433.25 595.63 443.26" style="fill:#e0e0e0"></polygon><polygon points="582.8 429.11 593.7 450.01 599.95 437.49 582.8 429.11" style="fill:#e0e0e0"></polygon><polygon points="187.1 346.34 78.68 346.34 72.55 336.33 177.81 336.33 187.1 346.34" style="fill:#e0e0e0"></polygon><polygon points="174.26 332.19 185.16 353.09 191.41 340.57 174.26 332.19" style="fill:#e0e0e0"></polygon><polygon points="400.33 443.85 291.91 443.85 285.78 433.84 391.04 433.84 400.33 443.85" style="fill:#e0e0e0"></polygon><polygon points="387.49 429.7 398.39 450.6 404.64 438.08 387.49 429.7" style="fill:#e0e0e0"></polygon><polygon points="189.66 445.16 81.24 445.16 75.12 435.14 180.37 435.14 189.66 445.16" style="fill:#e0e0e0"></polygon><polygon points="176.82 431 187.72 451.9 193.97 439.39 176.82 431" style="fill:#e0e0e0"></polygon><polygon points="161.28 393.28 52.86 393.28 46.73 383.27 151.99 383.27 161.28 393.28" style="fill:#e0e0e0"></polygon><polygon points="148.44 379.13 159.34 400.03 165.59 387.51 148.44 379.13" style="fill:#e0e0e0"></polygon><rect x="277.3" y="52.81" width="20.23" height="63.17" style="fill:#ebebeb"></rect><rect x="307.5" y="67.24" width="20.23" height="48.74" style="fill:#ebebeb"></rect><rect x="335.46" y="87.04" width="20.23" height="28.94" style="fill:#ebebeb"></rect><path d="M475.09,220.27a28.07,28.07,0,0,1,6.81-3l1.4-6.74,11.39-.19,1.63,6.68a27.76,27.76,0,0,1,6.91,2.72L509,216l8.19,7.91-3.56,5.88a28,28,0,0,1,2.95,6.81l6.74,1.4.2,11.39L516.82,251a27.76,27.76,0,0,1-2.72,6.91l3.77,5.75L510,271.87l-5.88-3.56a27.81,27.81,0,0,1-6.8,2.95L495.87,278l-11.38.2-1.64-6.68a28.08,28.08,0,0,1-6.9-2.72l-5.76,3.77L462,264.66l3.57-5.88a27.84,27.84,0,0,1-3-6.8l-6.74-1.41-.19-11.38,6.68-1.64a27.69,27.69,0,0,1,2.72-6.9l-3.78-5.76,7.91-8.19,5.88,3.57Zm6.07,15.16a12.21,12.21,0,1,0,17.27-.3A12.21,12.21,0,0,0,481.16,235.43Z" style="fill:#e0e0e0"></path><path d="M481.16,235.43a9.17,9.17,0,0,1,2.28-2,12.16,12.16,0,0,1,8-1.89,12.35,12.35,0,0,1,5.42,1.93,12.48,12.48,0,0,1,4.38,4.93,12.56,12.56,0,0,1,1.18,7.19,12.47,12.47,0,0,1-10.31,10.68,11.59,11.59,0,0,1-3.76.06,11.86,11.86,0,0,1-3.47-1,12.46,12.46,0,0,1-5.08-4.2,12.32,12.32,0,0,1-2.12-5.35,12.14,12.14,0,0,1,1.61-8,9.07,9.07,0,0,1,1.91-2.35c.07.06-.74.8-1.68,2.48a12.21,12.21,0,0,0-1.35,7.82,11.94,11.94,0,0,0,7,9,11,11,0,0,0,3.28.92,11.22,11.22,0,0,0,3.56-.08,11.86,11.86,0,0,0,9.75-10.09,11.17,11.17,0,0,0-.05-3.56,11.33,11.33,0,0,0-1-3.25,12.06,12.06,0,0,0-17-5C481.94,234.67,481.22,235.5,481.16,235.43Z" style="fill:#e0e0e0"></path><path d="M475.09,220.27l-.38-.2-1.12-.65-4.44-2.62.14,0L461.43,225l0-.22,3.8,5.73.07.11-.06.11a27.86,27.86,0,0,0-2.68,6.86l0,.13-.14,0-6.68,1.65.19-.24c.08,3.58.15,7.38.23,11.38l-.22-.27,6.74,1.39.17,0,.05.17a27.9,27.9,0,0,0,2.94,6.73l.09.15-.09.16-3.56,5.89,0-.39,8.2,7.9-.4,0,5.74-3.78.17-.11.18.1a27.94,27.94,0,0,0,6.82,2.68l.2.05.05.2c.52,2.09,1.08,4.37,1.64,6.68l-.33-.26,11.38-.21-.34.28c.45-2.13.92-4.42,1.4-6.74l.05-.2.2-.06A28.19,28.19,0,0,0,503.9,268h0l.19-.11.17.11,5.89,3.56-.44.06,7.91-8.19,0,.43-3.77-5.75-.11-.18.1-.18a27.44,27.44,0,0,0,2.69-6.82l0-.2.2-.05,6.68-1.63-.25.33c-.07-3.88-.13-7.68-.19-11.38l.26.31-6.74-1.41-.19,0,0-.18a27.47,27.47,0,0,0-2.91-6.74l-.1-.16.1-.15c1.22-2,2.41-4,3.57-5.88l.05.36-8.17-7.92.33,0L503.37,220l-.13.09-.13-.08a27.66,27.66,0,0,0-6.84-2.71l-.14,0,0-.14-1.62-6.69.21.16-11.38.15.15-.12c-.58,2.68-1,4.89-1.45,6.72v.07l-.07,0a28.86,28.86,0,0,0-5.2,2l-1.23.64-.41.21a3.16,3.16,0,0,1,.38-.26c.26-.16.66-.4,1.2-.69a27.46,27.46,0,0,1,5.2-2.12l-.08.09c.37-1.84.82-4,1.36-6.75l0-.12h.13l11.38-.25h.17l0,.17c.51,2.06,1.05,4.25,1.66,6.67l-.17-.17a27.94,27.94,0,0,1,7,2.73h-.26l5.75-3.78.17-.12.16.15,8.2,7.89.17.16-.12.2L513.87,230v-.31a28.45,28.45,0,0,1,3,6.87l-.24-.22,6.74,1.4.25.05V238q.11,5.55.22,11.38v.27l-.26.06-6.68,1.64.25-.25a28.08,28.08,0,0,1-2.75,7v-.36l3.77,5.75.15.23-.19.2-7.9,8.2-.2.2-.24-.15-5.88-3.56h.36a28.23,28.23,0,0,1-6.89,3l.25-.26c-.48,2.31-1,4.6-1.41,6.73l0,.27h-.28l-11.38.19h-.28l-.06-.27c-.57-2.3-1.12-4.59-1.64-6.68l.25.25a28.56,28.56,0,0,1-7-2.76h.34l-5.76,3.76-.22.15-.18-.18-8.18-7.92-.18-.17.13-.22,3.57-5.87v.31a28.14,28.14,0,0,1-3-6.89l.22.21-6.73-1.42-.22,0v-.22c-.06-4-.12-7.8-.17-11.38V239l.2-.05,6.68-1.62-.16.17a27.94,27.94,0,0,1,2.76-6.95v.21L461.16,225l-.08-.12.1-.1,7.95-8.14.06-.07.08.05,4.33,2.69,1.12.71A2.5,2.5,0,0,1,475.09,220.27Z" style="fill:#e0e0e0"></path><path d="M281.77,263.87a19.75,19.75,0,0,1,4.89-2.12l1-4.84,8.17-.14,1.17,4.79a19.77,19.77,0,0,1,4.95,1.95l4.13-2.7,5.87,5.67-2.55,4.22a19.89,19.89,0,0,1,2.12,4.88l4.83,1,.14,8.16-4.79,1.17a20,20,0,0,1-1.95,5l2.71,4.12-5.67,5.88-4.22-2.56a20.13,20.13,0,0,1-4.89,2.12l-1,4.83-8.17.15-1.17-4.8a19.77,19.77,0,0,1-4.95-1.95l-4.13,2.71-5.87-5.67,2.55-4.22a20.06,20.06,0,0,1-2.12-4.88l-4.83-1-.14-8.16,4.79-1.18a19.77,19.77,0,0,1,1.95-4.95l-2.71-4.13,5.68-5.87,4.21,2.56Zm4.36,10.87a8.76,8.76,0,1,0,12.38-.22A8.76,8.76,0,0,0,286.13,274.74Z" style="fill:#f5f5f5"></path><path d="M286.13,274.74a6.54,6.54,0,0,1,1.63-1.43,8.68,8.68,0,0,1,5.71-1.35,8.84,8.84,0,0,1,3.89,1.38,9,9,0,0,1,3.14,3.54,8.44,8.44,0,0,1,.79,2.46,8.35,8.35,0,0,1,0,2.69,8.94,8.94,0,0,1-7.39,7.66,8.17,8.17,0,0,1-2.7.05,8.55,8.55,0,0,1-2.48-.71,8.92,8.92,0,0,1-5.17-6.85,8.82,8.82,0,0,1,1.15-5.76,6.68,6.68,0,0,1,1.38-1.68,21.1,21.1,0,0,0-1.21,1.78,8.79,8.79,0,0,0-1,5.61,8.51,8.51,0,0,0,1.51,3.64,8.62,8.62,0,0,0,3.5,2.84,8.67,8.67,0,0,0,4.91.6,8.52,8.52,0,0,0,7-7.24,8.64,8.64,0,0,0-.78-4.89,8.57,8.57,0,0,0-6.65-4.77,8.77,8.77,0,0,0-5.57,1.17A20.71,20.71,0,0,0,286.13,274.74Z" style="fill:#f5f5f5"></path><path d="M281.77,263.87l-.27-.15-.81-.46-3.18-1.88.1,0L272,267.27v-.16l2.72,4.12.05.07,0,.08a20,20,0,0,0-1.92,4.92l0,.1-.1,0-4.79,1.19.14-.18q.08,3.87.16,8.17l-.16-.19,4.83,1,.13,0,0,.12a19.89,19.89,0,0,0,2.11,4.83l.07.11-.07.11-2.55,4.22,0-.27,5.88,5.66-.29,0,4.13-2.7.12-.08.12.07a20.18,20.18,0,0,0,4.9,1.92l.14,0,0,.15c.36,1.5.77,3.13,1.17,4.79l-.24-.19,8.16-.15-.24.2c.32-1.52.66-3.17,1-4.83l0-.15.15,0a19.83,19.83,0,0,0,4.81-2.09h0l.13-.08.13.08,4.21,2.55-.31,0,5.68-5.87,0,.31-2.7-4.13-.09-.12.08-.13a20,20,0,0,0,1.92-4.89l0-.15.14,0,4.8-1.17-.18.23c-.05-2.78-.1-5.51-.14-8.16l.18.22-4.83-1-.13,0,0-.13a19.71,19.71,0,0,0-2.09-4.83l-.07-.11.07-.12,2.57-4.21,0,.26L306,261l.24,0-4.14,2.69-.09.06-.09-.05a20.32,20.32,0,0,0-4.91-1.95l-.1,0,0-.1-1.16-4.79.15.11-8.17.11.11-.09-1,4.82v.05h-.05a20.37,20.37,0,0,0-3.73,1.44l-.88.46-.3.15.28-.19c.18-.11.47-.29.86-.49a19,19,0,0,1,3.72-1.52l-.05.06c.26-1.32.58-2.91,1-4.84l0-.09h.09l8.16-.18h.12l0,.11,1.19,4.79-.12-.12a20.5,20.5,0,0,1,5,2h-.18l4.12-2.71.12-.09.11.11,5.89,5.66.12.11-.09.15c-.82,1.37-1.67,2.77-2.55,4.22v-.23a20.28,20.28,0,0,1,2.16,4.94l-.18-.16,4.84,1,.18,0v.18q.07,4,.15,8.16v.2l-.19,0-4.79,1.18.18-.18a20.87,20.87,0,0,1-2,5v-.26l2.7,4.13.11.16-.13.15L307,301.05l-.14.15-.17-.11-4.22-2.55h.25a19.94,19.94,0,0,1-4.94,2.14l.18-.19c-.35,1.66-.69,3.31-1,4.83l0,.2h-.2l-8.16.14h-.2l0-.19-1.18-4.8.18.18a20.3,20.3,0,0,1-5-2h.25l-4.13,2.7-.16.11-.13-.13-5.87-5.68-.13-.13.09-.15c.9-1.47,1.77-2.91,2.57-4.21v.22a19.94,19.94,0,0,1-2.14-4.94l.16.15-4.83-1-.16,0v-.16c0-2.86-.08-5.59-.12-8.16v-.14l.13,0,4.8-1.16-.12.12a20.39,20.39,0,0,1,2-5v.15c-1-1.49-1.88-2.88-2.69-4.14l-.06-.08.07-.08c2.33-2.37,4.25-4.34,5.71-5.84l0,0,.06,0,3.1,1.93.8.51Z" style="fill:#f5f5f5"></path></g><g id="freepik--Lines--inject-572"><path d="M311.47,225.82c0,.14-11.11.26-24.83.26s-24.83-.12-24.83-.26,11.12-.26,24.83-.26S311.47,225.67,311.47,225.82Z" style="fill:#263238"></path><path d="M327.23,219.92c0,.14-10.58.26-23.63.26s-23.64-.12-23.64-.26,10.58-.26,23.64-.26S327.23,219.78,327.23,219.92Z" style="fill:#263238"></path><path d="M532.49,299.59c0,.14-12.57.26-28.09.26s-28.09-.12-28.09-.26,12.57-.26,28.09-.26S532.49,299.45,532.49,299.59Z" style="fill:#263238"></path><path d="M550.32,292.92c0,.14-12,.26-26.74.26s-26.74-.12-26.74-.26,12-.26,26.74-.26S550.32,292.78,550.32,292.92Z" style="fill:#263238"></path></g><g id="freepik--Plants--inject-572"><path d="M172.57,346.25a47,47,0,0,1-4.19-5.38,44.78,44.78,0,0,1-3.77-5.68,43.51,43.51,0,0,1,4.19,5.38A43.5,43.5,0,0,1,172.57,346.25Z" style="fill:#263238"></path><path d="M176.17,346.67a61.6,61.6,0,0,1-2.24-7.67,61.54,61.54,0,0,1-1.74-7.8,63.71,63.71,0,0,1,2.24,7.67A61.54,61.54,0,0,1,176.17,346.67Z" style="fill:#263238"></path><path d="M182.32,332.11a63.44,63.44,0,0,0-1.74,6.52c-.63,3.68-.33,6.72-.5,6.73a6.17,6.17,0,0,1-.29-2,22.25,22.25,0,0,1,1.6-9.5A6.13,6.13,0,0,1,182.32,332.11Z" style="fill:#263238"></path><path d="M369.4,353.4a4.14,4.14,0,0,1,0,1.21l0,.41-.23-.36c-.77-1.17-2.1-3.39-3.58-6-1.12-1.95-2.11-3.73-2.81-5a11.93,11.93,0,0,1-1-2.16,11.09,11.09,0,0,1,1.35,2c.78,1.26,1.82,3,2.94,5,1.48,2.56,2.73,4.83,3.36,6.08l-.25.05A3.85,3.85,0,0,1,369.4,353.4Z" style="fill:#263238"></path><path d="M370.25,353.84a8.55,8.55,0,0,1-1-2.19,35.35,35.35,0,0,1-1.42-5.59,34.71,34.71,0,0,1-.47-5.75,9.65,9.65,0,0,1,.19-2.39c.17,0,.05,3.65.8,8.05S370.4,353.79,370.25,353.84Z" style="fill:#263238"></path><path d="M374.23,353.84a23.37,23.37,0,0,1,.62-4.91,22.89,22.89,0,0,1,1.15-4.82,47.34,47.34,0,0,1-1.77,9.73Z" style="fill:#263238"></path><path d="M149.65,397.13a80.4,80.4,0,0,1-6.16-6.91,82.15,82.15,0,0,1-5.76-7.26,83.53,83.53,0,0,1,6.16,6.92A83,83,0,0,1,149.65,397.13Z" style="fill:#263238"></path><path d="M145.62,379.49a65,65,0,0,1,2.46,7.89,65.29,65.29,0,0,1,2,8,65.75,65.75,0,0,1-2.46-7.89A65.77,65.77,0,0,1,145.62,379.49Z" style="fill:#263238"></path><path d="M154.84,381.24c.15.05-.74,2.82-1.07,6.37s0,6.45-.18,6.47a6.2,6.2,0,0,1-.35-1.89,24.55,24.55,0,0,1,0-4.63,24.85,24.85,0,0,1,.88-4.54A5.87,5.87,0,0,1,154.84,381.24Z" style="fill:#263238"></path><path d="M598.74,397.19a32.64,32.64,0,0,1-2.45-5.21,32.11,32.11,0,0,1-2-5.41,32.64,32.64,0,0,1,2.45,5.21A32.11,32.11,0,0,1,598.74,397.19Z" style="fill:#263238"></path><path d="M600.09,396.73a102.47,102.47,0,0,1,0-14.59,102.47,102.47,0,0,1,0,14.59Z" style="fill:#263238"></path><path d="M605.65,399.35a90.23,90.23,0,0,1,2.64-13.27,86.24,86.24,0,0,1-2.64,13.27Z" style="fill:#263238"></path><path d="M413.49,458.29a21.55,21.55,0,0,1-3.48-3.15,20.74,20.74,0,0,1-3.12-3.52,21.84,21.84,0,0,1,3.49,3.15A21.38,21.38,0,0,1,413.49,458.29Z" style="fill:#263238"></path><path d="M416.53,456.93a42.53,42.53,0,0,1-2.86-6.1,44.59,44.59,0,0,1-2.39-6.3,41.89,41.89,0,0,1,2.87,6.1A45.76,45.76,0,0,1,416.53,456.93Z" style="fill:#263238"></path><path d="M422.44,457.32a28.13,28.13,0,0,1,.63-5.35,26.79,26.79,0,0,1,1.15-5.26,28.14,28.14,0,0,1-.63,5.34A27.24,27.24,0,0,1,422.44,457.32Z" style="fill:#263238"></path><path d="M205.82,417.54a8.43,8.43,0,0,1,4.38,5,14.78,14.78,0,0,1,.58,6.71c-.49,4.36-3,8.76-5.64,12.24-3.67-3.2-4.51-8.79-4.76-11.65-.4-4.52,1.63-12.93,5.44-12.26" style="fill:#5E7EFF"></path><path d="M209.41,448.65a7.19,7.19,0,0,1,2.33-6.85,9.55,9.55,0,0,1,7-2.21,4,4,0,0,1,3.1,1.39,3.08,3.08,0,0,1,.05,3.13,6.21,6.21,0,0,1-2.31,2.27c-3.18,2-6.63,3.35-10.22,2.27" style="fill:#5E7EFF"></path><path d="M204.7,462a5.69,5.69,0,0,1,.13-.89c.12-.63.27-1.45.45-2.42a25.18,25.18,0,0,1,2.49-7.74,15.59,15.59,0,0,1,5.55-5.89,10.21,10.21,0,0,1,2.27-1,5.32,5.32,0,0,1,.65-.17.67.67,0,0,1,.23,0,14.37,14.37,0,0,0-8.42,7.25,27.16,27.16,0,0,0-2.55,7.62c-.22,1-.41,1.84-.55,2.4A5,5,0,0,1,204.7,462Z" style="fill:#263238"></path><path d="M204.84,424.08a1.83,1.83,0,0,1,0,.39c0,.29,0,.67.06,1.13.05,1,.11,2.39.17,4.13.11,3.49.2,8.32.18,13.65s-.16,10.16-.3,13.65c-.07,1.75-.14,3.16-.2,4.14,0,.46-.06.83-.08,1.12a1.69,1.69,0,0,1-.05.39,2.39,2.39,0,0,1,0-.39c0-.29,0-.67,0-1.13,0-1,.06-2.42.1-4.13.09-3.5.19-8.32.21-13.65s0-10.15-.09-13.64c0-1.72,0-3.12-.06-4.14,0-.46,0-.83,0-1.12A1.79,1.79,0,0,1,204.84,424.08Z" style="fill:#263238"></path><path d="M203.06,451.3a16.89,16.89,0,0,0-9.2-12.35c-1.23-.58-2.83-1-3.84-.06s-.78,2.56-.29,3.83A14.4,14.4,0,0,0,203,451.66" style="fill:#5E7EFF"></path><path d="M194.45,443.09a4,4,0,0,1,.78.34,6.53,6.53,0,0,1,.88.47,10.94,10.94,0,0,1,1.12.7,13.75,13.75,0,0,1,1.28,1,17,17,0,0,1,1.36,1.24,18.75,18.75,0,0,1,2.6,3.33,18.36,18.36,0,0,1,1.7,3.86,15.15,15.15,0,0,1,.44,1.8,14.37,14.37,0,0,1,.22,1.59c.06.48,0,.93.06,1.32a9.65,9.65,0,0,1,0,1,4.24,4.24,0,0,1-.1.85c-.07,0,.06-1.21-.16-3.14a14.33,14.33,0,0,0-.25-1.56,17,17,0,0,0-.46-1.76,18.1,18.1,0,0,0-1.7-3.78,19.1,19.1,0,0,0-2.52-3.29c-.46-.46-.89-.89-1.33-1.25s-.85-.69-1.24-1C195.52,443.65,194.42,443.15,194.45,443.09Z" style="fill:#263238"></path></g><g id="freepik--speech-bubble--inject-572"><circle cx="513.34" cy="90.19" r="30.01" transform="translate(139.91 453.79) rotate(-54.2)" style="fill:#fff"></circle><path d="M500.21,117.17a2.15,2.15,0,0,1,.47.16l1.32.52a14.76,14.76,0,0,0,2.19.76,21.7,21.7,0,0,0,3.05.78,28.81,28.81,0,0,0,8.59.46,29.91,29.91,0,0,0,10.89-3.14A29.68,29.68,0,0,0,542.8,93.29a31,31,0,0,0,.16-4.22,29.9,29.9,0,0,0-.52-4.29,31.52,31.52,0,0,0-1.1-4.27,32.55,32.55,0,0,0-1.82-4.11A28.54,28.54,0,0,0,534,69a29.37,29.37,0,0,0-16.81-8.18,28.56,28.56,0,0,0-9.19.24,33.51,33.51,0,0,0-4.36,1.1,34,34,0,0,0-4,1.77,31,31,0,0,0-3.69,2.25,30.44,30.44,0,0,0-3.23,2.73,29.84,29.84,0,0,0-8,13.44,29.4,29.4,0,0,0-.5,13.66,29.76,29.76,0,0,0,4.25,10.51,28.76,28.76,0,0,0,5.66,6.47,22.36,22.36,0,0,0,2.5,1.93,15.43,15.43,0,0,0,1.94,1.24l1.23.72a2.32,2.32,0,0,1,.41.27,1.65,1.65,0,0,1-.44-.2l-1.27-.65a14.6,14.6,0,0,1-2-1.19,21.86,21.86,0,0,1-2.56-1.89,28.32,28.32,0,0,1-5.83-6.46,30.22,30.22,0,0,1-4-24.58,30.45,30.45,0,0,1,8.12-13.78,31.83,31.83,0,0,1,3.29-2.81,31.26,31.26,0,0,1,3.78-2.31,33.47,33.47,0,0,1,4.14-1.82,34.71,34.71,0,0,1,4.46-1.15,29.47,29.47,0,0,1,9.43-.25,30.13,30.13,0,0,1,17.25,8.39,29.38,29.38,0,0,1,5.62,7.58,33.6,33.6,0,0,1,1.86,4.22,34.32,34.32,0,0,1,1.12,4.38,32.81,32.81,0,0,1,.51,4.39,31.11,31.11,0,0,1-.18,4.33A30.11,30.11,0,0,1,527,117.19a30,30,0,0,1-11.1,3.09,28.32,28.32,0,0,1-8.69-.6,21,21,0,0,1-3.06-.85A14,14,0,0,1,502,118l-1.31-.6A2,2,0,0,1,500.21,117.17Z" style="fill:#263238"></path><path d="M478.26,119.19a4.88,4.88,0,1,1,6.52-2.26A4.89,4.89,0,0,1,478.26,119.19Z" style="fill:#fff"></path><path d="M478.26,119.19a9.43,9.43,0,0,1,1.17.23,4.86,4.86,0,0,0,3-.51,4.64,4.64,0,0,0,2.42-3.64,4.54,4.54,0,0,0-7.64-3.72,4.64,4.64,0,0,0-1.36,4.15,4.73,4.73,0,0,0,1.47,2.71c.55.52.93.72.9.78a2.44,2.44,0,0,1-1.1-.55,4.86,4.86,0,0,1-1.81-2.83,5.13,5.13,0,0,1,1.41-4.77,5.21,5.21,0,0,1,8.84,4.31,5.12,5.12,0,0,1-2.88,4,4.9,4.9,0,0,1-3.35.33A2.34,2.34,0,0,1,478.26,119.19Z" style="fill:#263238"></path><path d="M514.6,80.38l2.58,5.24a1.33,1.33,0,0,0,1,.72l5.78.84a1.33,1.33,0,0,1,.74,2.26l-4.19,4.08a1.33,1.33,0,0,0-.38,1.17l1,5.76a1.32,1.32,0,0,1-1.92,1.39L514,99.12a1.34,1.34,0,0,0-1.23,0l-5.18,2.72a1.31,1.31,0,0,1-1.91-1.39l1-5.76a1.3,1.3,0,0,0-.38-1.17l-4.18-4.08a1.32,1.32,0,0,1,.73-2.26l5.78-.84a1.3,1.3,0,0,0,1-.72l2.59-5.24A1.32,1.32,0,0,1,514.6,80.38Z" style="fill:#5E7EFF"></path></g><g id="freepik--character-3--inject-572"><polygon points="490.03 426.03 499.7 406.81 517.17 415.75 503.85 434.94 490.03 426.03" style="fill:#a26760"></polygon><path d="M506.89,432.14l-.67.93s11,17.57,9,20.69l-30.82-22.41,8-10.12A21.48,21.48,0,0,0,506.89,432.14Z" style="fill:#263238"></path><path d="M484.41,431.35l1.92-2.44,28.84,22.37s.93,1.61.06,2.48Z" style="fill:#455a64"></path><polygon points="606.43 418.73 615.26 399.11 633.1 407.29 621.76 427.71 606.43 418.73" style="fill:#a26760"></polygon><path d="M624.57,424.4l-.53,1.08s14.43,16.32,12.89,19.9l-35.79-17.94,6.55-11.86A22.62,22.62,0,0,0,624.57,424.4Z" style="fill:#263238"></path><path d="M601.14,427.44l1.57-2.86,33.73,18.25s1.24,1.5.49,2.55Z" style="fill:#455a64"></path><path d="M659.74,326c-8.34-9.53-43-40.68-42.22-41.19l-5-10.94L580,253.18s-9.32,4-18,18.09c-7,11.34-4.85,27.52-4.85,27.52L534.7,351.72S518.26,371,509.1,386.18c-5.18,8.61-14.83,25.64-14.83,25.64l19.86,13,39.17-46.12s6-4.67,7.85-7.76l32.42-50.59,15.55,11.11,28,19.93.42,2.58a122.13,122.13,0,0,0-11.36,18.45c-5.14,10-14.39,31.76-14.39,31.76l21.59,12.05s28.25-44.46,31.38-48.83,6.85-12.49,7.47-17.84S667.44,334.75,659.74,326Z" style="fill:#263238"></path><path d="M600.53,175.6,620.2,229l3.49,2.92s10.1-13.2,8.77-23.32-11.54-27.13-11.54-27.13Z" style="fill:#fafafa"></path><path d="M679.38,209.84l0-6.86,4.41-4.21s4.41-1.82,5-2.44a1.75,1.75,0,0,1,.23,1.84s1.54-1.53,2.4-1.33,1.28,1.8,1.37,2.88a6.94,6.94,0,0,1,1.62,1.38,3.68,3.68,0,0,1,.86,2l-.42,1.33a1.64,1.64,0,0,1,1.54,1,4.84,4.84,0,0,1,0,2.55s1.12-.45,1.52.46a2.28,2.28,0,0,1,.16,2.13c-.31.69-4.4,6-5.68,6.7s-11.9,7.13-11.9,7.13l-7.3-9.85Z" style="fill:#a26760"></path><path d="M696.86,210.72a6.59,6.59,0,0,1-1.66,1.46,15.09,15.09,0,0,1-2.07,1.23,2.36,2.36,0,0,1-1.48.33,1.62,1.62,0,0,1-1.25-1.08,1.72,1.72,0,0,1,.31-1.63,4.18,4.18,0,0,1,1.17-.9A23,23,0,0,1,694,209a7.88,7.88,0,0,1,2.08-.72,20,20,0,0,1-2,1c-.6.31-1.31.69-2.07,1.15a4,4,0,0,0-1,.83,1.28,1.28,0,0,0-.24,1.22,1.21,1.21,0,0,0,.92.8,2,2,0,0,0,1.22-.27,19.27,19.27,0,0,0,2.08-1.12C696.17,211.21,696.81,210.67,696.86,210.72Z" style="fill:#7b4b45"></path><path d="M693.09,199.86c0,.06-.74.57-1.9,1.5-.57.47-1.24,1-1.94,1.73-.35.34-.7.71-1.07,1.11a2.44,2.44,0,0,1-1.53.91,1.31,1.31,0,0,1-.95-.3,1.64,1.64,0,0,1-.47-.81,2.17,2.17,0,0,1,.33-1.64,7.64,7.64,0,0,1,.88-1.13l.81-.92a13.52,13.52,0,0,1,1.67-1.75,12.33,12.33,0,0,1-1.44,1.95c-.44.59-1.08,1.26-1.58,2.05a1.79,1.79,0,0,0-.25,1.33.91.91,0,0,0,1,.78,2.08,2.08,0,0,0,1.26-.76c.37-.39.74-.77,1.1-1.11a21.8,21.8,0,0,1,2-1.69A9.08,9.08,0,0,1,693.09,199.86Z" style="fill:#7b4b45"></path><path d="M694.58,204a16.07,16.07,0,0,1-1.41,1.14,17.82,17.82,0,0,1-3.6,2.55,8.92,8.92,0,0,1-1.16.57,1.17,1.17,0,0,1-.72,0,2,2,0,0,1-.54-.36,1.58,1.58,0,0,1-.39-.48,2,2,0,0,1-.16-.53,2.54,2.54,0,0,1,.65-2.2c.24-.22.41-.29.42-.27a3.4,3.4,0,0,0-.76,1.55,2.48,2.48,0,0,0,0,.85,2,2,0,0,0,.16.44,1.31,1.31,0,0,0,.3.34,1.6,1.6,0,0,0,.42.26.7.7,0,0,0,.45,0,11.06,11.06,0,0,0,1.08-.55,23.52,23.52,0,0,0,3.62-2.42A5.22,5.22,0,0,1,694.58,204Z" style="fill:#7b4b45"></path><path d="M696.41,207.72a14.42,14.42,0,0,1-2.22,1.34l-2.48,1.34a6.3,6.3,0,0,1-1.57.69,1.7,1.7,0,0,1-1-.1,1.19,1.19,0,0,1-.69-.79,2,2,0,0,1,.56-1.84,15.83,15.83,0,0,1,1.23-1.14,19.49,19.49,0,0,1,2.26-1.71,10.77,10.77,0,0,1,1.69-.9,2.18,2.18,0,0,1,.67-.21c0,.07-.89.44-2.18,1.36a23.09,23.09,0,0,0-2.17,1.76,13.9,13.9,0,0,0-1.18,1.13,1.51,1.51,0,0,0-.46,1.43,1,1,0,0,0,1.18.59,6.09,6.09,0,0,0,1.47-.63l2.51-1.26A16.28,16.28,0,0,1,696.41,207.72Z" style="fill:#7b4b45"></path><path d="M689.18,198.07a9.09,9.09,0,0,1-2.7,3.31c-.23.2-.45.38-.68.55s-.26.16-.35.23l-.11.08a.19.19,0,0,0-.05.09,6.53,6.53,0,0,1-.26,1.33c-.24.75-.54,1.15-.59,1.12a10.3,10.3,0,0,1,.29-1.2,9.64,9.64,0,0,0,.17-1.35A.72.72,0,0,1,685,202l.2-.16.32-.24a7.57,7.57,0,0,0,.65-.53,28.86,28.86,0,0,0,2.13-2.08C688.84,198.42,689.12,198,689.18,198.07Z" style="fill:#7b4b45"></path><path d="M686.69,208.14c-.07,0-.15-.3-.41-.72a19.33,19.33,0,0,0-1.2-1.61,4.4,4.4,0,0,0-1.52-1.19c-.46-.2-.78-.22-.78-.29s.34-.14.88,0a3.61,3.61,0,0,1,1.75,1.2,8.37,8.37,0,0,1,1.14,1.74C686.77,207.78,686.74,208.14,686.69,208.14Z" style="fill:#7b4b45"></path><path d="M632.72,208.87c-.06.22,13.58,13.43,13.58,13.43l29.9-12.49,7.18,13.86s-34.76,24.89-44.87,21.83c-3.24-1-16.34-14.9-16.34-14.9Z" style="fill:#5E7EFF"></path><path d="M641.85,231s0,.1-.16.24l-.14.15v-.23a13.22,13.22,0,0,1,1.56-4.92,11.29,11.29,0,0,1,3.44-4.21,49.63,49.63,0,0,0-3,4.46,28.83,28.83,0,0,0-1.87,4.71l-.12-.08C641.75,231,641.84,230.93,641.85,231Z" style="fill:#263238"></path><path d="M557.16,275l17-27.57a10.5,10.5,0,0,0,1.51-6.47l-3.22-33.73.83-30.57L594,169.27l2.68-3.69,10.9,18.48S626.27,213.9,624,229l-6.27,20.09s5.66,42.69,4.48,43.4C611,299.29,554.32,283.25,557.16,275Z" style="fill:#5E7EFF"></path><path d="M619.56,176.36s7.78,7.65,9.61,11.34,6.47,19,6.54,23.69-13.89,37.52-13.89,37.52,1.93,22.62,3.16,33.87c.4,3.64,1.64,10.26,1.31,8.7l-4-.07-10.59-39.92,11.33-21.56s.55-2.28.57-2.35c2.75-7.86,7-11,6.34-17.42-.52-4.65-2.42-10-4-14-3.54-9.22-5.76-14.81-5.76-14.81Z" style="fill:#5E7EFF"></path><path d="M624.11,225.57a3.08,3.08,0,0,1-.38-.6c-.25-.44-.58-1-1-1.74-.87-1.52-2.14-3.71-3.76-6.38-3.2-5.37-8.22-12.41-13.71-20.23l-6.43-9.06-.12-.16.13-.14,3.11-3.7.11.37-5.27-1.7-.11,0,0-.11c-.83-3.87-1.52-7.06-2-9.34-.22-1.07-.39-1.92-.52-2.56a5.11,5.11,0,0,1-.15-.91,5,5,0,0,1,.26.88c.16.64.37,1.48.63,2.54.53,2.27,1.28,5.44,2.19,9.3l-.14-.15,5.29,1.65.33.1-.22.27-3.09,3.71v-.3c2,2.83,4.19,5.88,6.46,9,5.48,7.82,10.47,14.9,13.59,20.34,1.59,2.7,2.81,4.92,3.63,6.47.41.77.72,1.38.92,1.8A3.9,3.9,0,0,1,624.11,225.57Z" style="fill:#263238"></path><path d="M622.25,289.72a3.17,3.17,0,0,1-.13-.65c-.06-.49-.15-1.11-.26-1.89-.21-1.7-.5-4.05-.86-6.94-.69-5.92-1.62-14-2.65-22.92-.32-2.85-.62-5.61-.91-8.2v-.06l0-.08c.65-1.57,1.1-3.24,1.57-4.79l1.26-4.48c.77-2.82,1.44-5.34,2-7.45s1-3.71,1.3-4.92c.14-.54.26-1,.35-1.32a1.7,1.7,0,0,1,.16-.45,2.22,2.22,0,0,1-.07.47l-.27,1.34c-.25,1.16-.64,2.85-1.15,5s-1.15,4.64-1.91,7.49l-1.23,4.49a49.7,49.7,0,0,1-1.56,4.88l0-.14c.29,2.59.6,5.35.93,8.2,1,8.93,1.85,17,2.5,22.94.29,2.89.52,5.25.69,7,.07.78.12,1.41.17,1.9A3,3,0,0,1,622.25,289.72Z" style="fill:#263238"></path><path d="M633.3,199.87a5,5,0,0,1,.34.94c.17.62.42,1.53.66,2.69.5,2.32,1.07,5.63,1.55,9.55v0l0,.06c-.81,2.45-1.72,5.15-2.72,8-2,5.69-4,10.77-5.54,14.42-.76,1.82-1.4,3.29-1.85,4.3a11.51,11.51,0,0,1-.75,1.55,11.08,11.08,0,0,1,.57-1.63l1.69-4.36c1.44-3.68,3.39-8.77,5.39-14.45,1-2.82,1.91-5.5,2.75-7.95v.11c-.44-3.91-.94-7.23-1.35-9.56-.21-1.16-.4-2.08-.53-2.7A4.36,4.36,0,0,1,633.3,199.87Z" style="fill:#263238"></path><path d="M613.5,249.23c0-.06.51-.18,1,.4a1.26,1.26,0,0,1,.2,1.26,1.44,1.44,0,0,1-1.3.9,1.42,1.42,0,0,1-1.28-.91,1.24,1.24,0,0,1,.21-1.26c.5-.58,1-.45,1-.39s-.42.12-.71.61a.89.89,0,0,0-.07.86.92.92,0,0,0,1.7,0,.94.94,0,0,0-.06-.87C613.91,249.36,613.48,249.3,613.5,249.23Z" style="fill:#263238"></path><polygon points="595.61 176.55 595.15 183.79 598.66 184.02 596.06 187.87 621.89 221.51 613.62 208.18 599.03 187.41 602.13 183.71 596.85 182.04 595.61 176.55" style="opacity:0.30000000000000004"></polygon><path d="M623.64,181.41a6,6,0,0,1,.36,1c.23.75.52,1.73.88,2.94l0,.1-.08.06-1.4,1-.12-.31,1.57-.19H625l.06.1a60.34,60.34,0,0,1,6.72,16.55,20.64,20.64,0,0,1,.25,9.88,24.67,24.67,0,0,1-3.34,7.36,53.68,53.68,0,0,1-3.19,4.41c-.39.5-.71.89-.93,1.15a2.52,2.52,0,0,1-.35.37s.08-.16.27-.44l.85-1.2c.74-1,1.84-2.54,3-4.48a25.24,25.24,0,0,0,3.18-7.29,20.49,20.49,0,0,0-.28-9.65,64,64,0,0,0-6.54-16.47l.18.09-1.57.16-.65.06.53-.37,1.43-1,0,.15-.75-3A6.2,6.2,0,0,1,623.64,181.41Z" style="fill:#263238"></path><g style="opacity:0.30000000000000004"><path d="M627.45,235.9a26.67,26.67,0,0,0,8-22,162.14,162.14,0,0,0-8.36,22.47"></path></g><path d="M611.13,249.82a14.93,14.93,0,0,1-5.2-1.3,15.12,15.12,0,0,1-4.68-2.6c.08-.13,2.15,1.05,4.87,2.12S611.16,249.67,611.13,249.82Z" style="fill:#263238"></path><path d="M611.13,252a18.84,18.84,0,0,1-4.7,1.55,18.54,18.54,0,0,1-4.88.78,31,31,0,0,1,4.76-1.28A32.06,32.06,0,0,1,611.13,252Z" style="fill:#263238"></path><path d="M539.34,248.25s-1.76,5.87-1.1,7.64c0,0,4.32,14.71,4.55,15.35s1.38,2.09,2.35,2,1.64-1.25,1.64-1.25,1.63,2.69,3,2.56a1.5,1.5,0,0,0,1.44-1.27s1.39,1.77,3.05,1.2a4.09,4.09,0,0,0,2.25-2.44s1,1.92,2.38,1.35a6.34,6.34,0,0,0,2.44-2.27h0l-.24-3s-1.38-6.89-1.88-8.85-7.28-7-9-8.61-.61-9.51-.61-9.51Z" style="fill:#a26760"></path><path d="M533,198.25a14.09,14.09,0,0,0-7.53,14.33c.81,6.5,1.17,15.66,3.36,24.91,1,4.13,5.1,19.3,5.1,19.3l19.82-5.24-6.68-23.24.54-3.87-1.28-8.17,28.59-8.06s16.5-11.36,8.91-23S572.64,177,572.64,177l-18.35,10.49Z" style="fill:#5E7EFF"></path><path d="M535,212a20.18,20.18,0,0,1,11.48,4.58c-.09.13-2.4-1.45-5.57-2.71S534.93,212.12,535,212Z" style="fill:#263238"></path><g style="opacity:0.30000000000000004"><path d="M573.31,215.91a20.44,20.44,0,0,0,7.55-6.65,27.23,27.23,0,0,0,3.52-9.77,28.26,28.26,0,0,1-11.81,9.41Z"></path></g><path d="M582,193.8c-.08,0,0-1.21-.1-3.15a19.66,19.66,0,0,0-1.67-7.28,12.87,12.87,0,0,0-4.86-5.54,19.94,19.94,0,0,0-2.85-1.27,2.11,2.11,0,0,1,.85.11,8.25,8.25,0,0,1,2.18.84,12.46,12.46,0,0,1,5.16,5.63,18.18,18.18,0,0,1,1.56,7.5,22,22,0,0,1-.11,2.32A2.36,2.36,0,0,1,582,193.8Z" style="fill:#263238"></path><path d="M676.8,221.57c0-.06.65-.09,1.15.71a1.56,1.56,0,0,1,0,1.57,1.77,1.77,0,0,1-1.7.9,1.79,1.79,0,0,1-1.44-1.28,1.56,1.56,0,0,1,.4-1.52c.67-.66,1.33-.46,1.29-.41s-.55.07-1,.65a1.22,1.22,0,0,0-.21,1.14,1.24,1.24,0,0,0,2.27.28,1.21,1.21,0,0,0,.06-1.16C677.31,221.77,676.76,221.65,676.8,221.57Z" style="fill:#263238"></path><path d="M538.19,249.71c0-.06.66-.09,1.16.72a1.56,1.56,0,0,1,0,1.56,1.69,1.69,0,0,1-3.14-.38,1.58,1.58,0,0,1,.39-1.52c.68-.65,1.34-.46,1.3-.41s-.55.07-1,.66a1.2,1.2,0,0,0-.21,1.13,1.31,1.31,0,0,0,1,.9,1.34,1.34,0,0,0,1.23-.62,1.23,1.23,0,0,0,.06-1.16C538.71,249.91,538.16,249.79,538.19,249.71Z" style="fill:#263238"></path><path d="M562.3,286.71a15.23,15.23,0,0,1,.56,1.78,34.2,34.2,0,0,0,1.85,4.72,44.78,44.78,0,0,0,10,13.28,98.25,98.25,0,0,0,13.35,10.11l4.27,2.77,1.16.77a2,2,0,0,1,.38.29s-.16-.05-.44-.2l-1.2-.69c-1-.6-2.54-1.49-4.37-2.63a88.54,88.54,0,0,1-13.51-10,43.07,43.07,0,0,1-10-13.5,28.85,28.85,0,0,1-1.7-4.82,12.82,12.82,0,0,1-.3-1.36A2.44,2.44,0,0,1,562.3,286.71Z" style="fill:#455a64"></path><path d="M630.32,119.53c-1.13-1.89-3.45-4.38-5.7-1.49l-10.7,47.38A12.73,12.73,0,0,0,625,163.3a21.82,21.82,0,0,0,7.24-9.77,43,43,0,0,0,2.66-12.35A36.37,36.37,0,0,0,630.32,119.53Z" style="fill:#263238"></path><path d="M627.42,119.51a15.1,15.1,0,0,0-8.21-5.75,25.86,25.86,0,0,0-10.18-.69c-5.45.6-11,2.5-14.61,6.54-5.63,6.27-8,12.52-13.94,18.52-2,2-4.47,3.24-4.84,8.91-.11,1.69,1.94,4.47,1.72,6.14-.37,2.8-2.47,3.87-5.24,4.62,3.1,2.86,8.07,4.82,11.71,2.69a4.34,4.34,0,0,1-.54,3.11,12.19,12.19,0,0,0,10.21-2.08,6.45,6.45,0,0,1-2.22,4.71c5.06-1.61,10.39-2.23,15.59-3.39s10.41-2.94,14.38-6.42c6.1-5.36,8.21-13.73,10-21.58Z" style="fill:#263238"></path><path d="M630,124.24a14.3,14.3,0,0,0-6.53-8.9,18,18,0,0,0-12-1.89,38.11,38.11,0,0,0-11.62,4.32,18.71,18.71,0,0,0-5.63,4.07c-2.76,3.23-5.57,8.6-6,12.83-.33,3.42.68,12.06,2,15.22a7.64,7.64,0,0,0,3.18,3.09,29.06,29.06,0,0,0,5.92,8.44c.87-2.27,1.75-4.55,2.63-6.82Z" style="fill:#263238"></path><path d="M631.55,134.42c-.19-6.76-4.39-15.2-11.14-14.72l-15.71,3.42a11.53,11.53,0,0,0-9.06,10.31c0,.26,0-.05,0,.14l1.1,33.28,11.84,18.79,14.6,16.74-3.58-26c.13-3.28.32-8.66.32-8.64s8.68-1.14,10.84-12.34C631.79,149.87,631.77,141.94,631.55,134.42Z" style="fill:#a26760"></path><path d="M628.94,143.09a1.45,1.45,0,0,1-1.44,1.41,1.37,1.37,0,0,1-1.44-1.35,1.43,1.43,0,0,1,1.44-1.41A1.38,1.38,0,0,1,628.94,143.09Z" style="fill:#263238"></path><path d="M629.71,138.77c-.19.18-1.26-.66-2.81-.71s-2.72.69-2.88.49.11-.42.62-.76a3.91,3.91,0,0,1,2.32-.63,3.81,3.81,0,0,1,2.22.8C629.65,138.34,629.8,138.69,629.71,138.77Z" style="fill:#263238"></path><path d="M614.88,142.6a1.44,1.44,0,0,1-1.44,1.41,1.38,1.38,0,0,1-1.44-1.35,1.43,1.43,0,0,1,1.44-1.41A1.37,1.37,0,0,1,614.88,142.6Z" style="fill:#263238"></path><path d="M615,138.24c-.18.18-1.25-.66-2.8-.71s-2.72.69-2.88.49.11-.42.62-.76a4,4,0,0,1,2.31-.63,3.84,3.84,0,0,1,2.23.8C614.89,137.81,615,138.16,615,138.24Z" style="fill:#263238"></path><path d="M619.37,150.62a10.12,10.12,0,0,1,2.54-.38c.4,0,.78-.09.85-.36a2,2,0,0,0-.22-1.18c-.34-1-.7-2-1.07-3.06-1.49-4.36-2.55-7.93-2.37-8s1.52,3.42,3,7.78c.36,1.07.7,2.1,1,3.08a2.27,2.27,0,0,1,.16,1.56,1,1,0,0,1-.67.56,2.9,2.9,0,0,1-.68.07A10.85,10.85,0,0,1,619.37,150.62Z" style="fill:#263238"></path><path d="M605.09,163.23s3.38,7.86,14.68,7.19l.1-2.65A28.38,28.38,0,0,1,605.09,163.23Z" style="fill:#7b4b45"></path><path d="M614.67,132.61c-.17.42-1.71.17-3.54.32s-3.32.61-3.55.22c-.1-.18.17-.57.77-1a6.19,6.19,0,0,1,5.41-.41C614.42,132.07,614.74,132.41,614.67,132.61Z" style="fill:#263238"></path><path d="M629.37,134c-.29.35-1.34-.06-2.63-.12s-2.38.16-2.62-.22c-.11-.18.08-.53.56-.85a3.68,3.68,0,0,1,2.16-.5,3.64,3.64,0,0,1,2.08.78C629.36,133.47,629.5,133.83,629.37,134Z" style="fill:#263238"></path><path d="M628.87,124a5,5,0,0,0-4.28-3,9.65,9.65,0,0,0-5.24,1.33C612.51,126,608.72,135.27,602,139c-1.67.93-3.76,0-5.19,1.2s-2.4,3.31-1.7,5.09a16,16,0,0,1-2.16-4,5.34,5.34,0,0,1,.34-4.38c.61-1,1.65-1.7,2-2.8s-.07-2,0-3a6.66,6.66,0,0,1,1.13-2.84,29.3,29.3,0,0,1,11.17-10.93,19,19,0,0,1,10-2.2,14.54,14.54,0,0,1,9.26,4.07c1.43,1.43,2.94,2.92,2.11,4.76" style="fill:#263238"></path><path d="M596.88,141.64c-.1-.32-5.9-2.65-6.2,3.59-.29,6.05,5.87,5.08,5.89,4.91S596.88,141.64,596.88,141.64Z" style="fill:#a26760"></path><path d="M594.8,147.76s-.11.07-.29.14a1.08,1.08,0,0,1-.79,0,2.6,2.6,0,0,1-1.1-2.4A3.46,3.46,0,0,1,593,144a1.24,1.24,0,0,1,.83-.77.53.53,0,0,1,.61.32c.07.17,0,.29.06.3s.14-.09.1-.35a.68.68,0,0,0-.22-.39.84.84,0,0,0-.58-.18,1.46,1.46,0,0,0-1.14.89,3.49,3.49,0,0,0-.45,1.67,2.76,2.76,0,0,0,1.42,2.69,1.13,1.13,0,0,0,1-.12C594.78,147.9,594.82,147.77,594.8,147.76Z" style="fill:#7b4b45"></path><path d="M594.07,148.8a1.2,1.2,0,1,0,.28.1" style="fill:#fff"></path><path d="M594.35,148.9a1.66,1.66,0,0,1,.52.84,1,1,0,0,1-.27.94,1.15,1.15,0,0,1-1.14.29,1.16,1.16,0,0,1-.71-.95,1,1,0,0,1,.39-.9,1.67,1.67,0,0,1,.93-.32s-.09-.06-.28-.07a1.25,1.25,0,0,0-.77.23,1.22,1.22,0,0,0-.52,1.08,1.3,1.3,0,0,0,2.28.82,1.21,1.21,0,0,0,.28-1.17,1.26,1.26,0,0,0-.44-.67C594.46,148.91,594.36,148.89,594.35,148.9Z" style="fill:#263238"></path><path d="M596.05,140.21a9.23,9.23,0,0,0,.42,4.9c.71,1.5,2.6,2.57,4.07,1.8,1.2-.63,1.6-2.12,1.85-3.45.72-3.84,1.12-7.74,1.87-11.57Z" style="fill:#263238"></path><path d="M613,154.13a6.65,6.65,0,0,1,.54-1.67.88.88,0,0,1,.39-.51.93.93,0,0,1,.65.08c1.24.49,2.83,1.35,4.07,1.85a3.13,3.13,0,0,1-.79,2.48,3,3,0,0,1-2.2.59,2.91,2.91,0,0,1-2.32-1.15A2.32,2.32,0,0,1,613,154.13Z" style="fill:#7b4b45"></path><path d="M617.27,156.48a4.12,4.12,0,0,1-1.89.25,2.63,2.63,0,0,1-1.69-1,2.72,2.72,0,0,1-.4-2.33,2.17,2.17,0,0,1,.61-1c.27-.24.59-.15,1,0l1.94,1a8.4,8.4,0,0,0,1.85.76A8.07,8.07,0,0,0,617,153L615.05,152a2.05,2.05,0,0,0-.66-.22,1.08,1.08,0,0,0-.78.23,2.57,2.57,0,0,0-.79,1.28,3.15,3.15,0,0,0,.51,2.73,2.85,2.85,0,0,0,2,1.06,2.72,2.72,0,0,0,1.5-.25C617.15,156.65,617.28,156.5,617.27,156.48Z" style="fill:#263238"></path><path d="M624.89,121.11a8.17,8.17,0,0,0-3.32.37,13.47,13.47,0,0,0-3.56,1.77,11.64,11.64,0,0,0-1.92,1.6c-.6.66-1.22,1.39-1.89,2.14l-4.37,5a29.92,29.92,0,0,1-5.53,5.4,18.2,18.2,0,0,1-8,3.37,20.72,20.72,0,0,1-4.67.14,31.9,31.9,0,0,1-4.78-.83l-.91-.23.9-.26a29.39,29.39,0,0,0,8.52-4l.28.44A19.44,19.44,0,0,1,583,138.54l-1.3-.18L583,138c3.81-1,6.87-3.56,9.33-6.27s4.45-5.73,6.59-8.38a27.59,27.59,0,0,1,7-6.6,20.17,20.17,0,0,1,7.86-2.82,16.28,16.28,0,0,1,6.85.38,8.11,8.11,0,0,1,4.28,2.83,6.1,6.1,0,0,1,1.28,3,3.89,3.89,0,0,1,0,1.13s0-.39-.1-1.12a6.34,6.34,0,0,0-1.34-2.87,8.07,8.07,0,0,0-4.21-2.69,16.26,16.26,0,0,0-6.72-.29,20,20,0,0,0-7.69,2.82,27.66,27.66,0,0,0-6.88,6.54c-2.11,2.64-4.07,5.65-6.58,8.43s-5.61,5.4-9.57,6.43l0-.51a18.77,18.77,0,0,0,12.31-2.51l.28.44A29.58,29.58,0,0,1,587,140v-.48a31.59,31.59,0,0,0,4.7.84,20.94,20.94,0,0,0,4.56-.13,17.8,17.8,0,0,0,7.81-3.24,29.79,29.79,0,0,0,5.48-5.3l4.43-4.92c.68-.75,1.31-1.46,1.93-2.12a12.47,12.47,0,0,1,2-1.62,13.09,13.09,0,0,1,3.65-1.72A8,8,0,0,1,624,121,3.26,3.26,0,0,1,624.89,121.11Z" style="fill:#455a64"></path></g><g id="freepik--character-2--inject-572"><path d="M415.56,111.11a35.1,35.1,0,0,1-3.05-7.31,11.85,11.85,0,0,1,.41-7.78c.64-1.41,1.64-2.64,2.15-4.11.69-2,.4-4.39,1.65-6.11,1.95-2.7,6.12-2.07,9.13-3.49,2.35-1.1,4-3.47,6.46-4.26,2.16-.69,4.51,0,6.59.86s4.11,2,6.36,2.32a43.4,43.4,0,0,0,4.84,0,6.43,6.43,0,0,1,4.46,1.54c1.14,1.15,1.38,3.27.15,4.31,2.82-.48,5.48,2.34,5.44,5.21s-2.19,5.38-4.8,6.57a17,17,0,0,1-8.43,1c-8.08-.63-16.21-3.7-21.71-9.66" style="fill:#263238"></path><path d="M417.31,101l-5.51,40c-.94,6.81,7.53,19.3,14.38,19.9h0c6.38.56,8.57-4,9.44-10.39.41-3,.76-11.77.82-12.08,0,0,10.32.44,12.45-9.54,1-4.83,2.33-14.94,3.4-24.1A19,19,0,0,0,437.12,84l-1-.19C425.62,82.3,418.49,90.42,417.31,101Z" style="fill:#ffbe9d"></path><path d="M436.44,138.45A24.64,24.64,0,0,1,424.18,132s1.92,8.39,12.09,9.48Z" style="fill:#eb996e"></path><path d="M448.49,113.09a1.46,1.46,0,0,1-1.67,1.17,1.39,1.39,0,0,1-1.21-1.58,1.45,1.45,0,0,1,1.66-1.17A1.39,1.39,0,0,1,448.49,113.09Z" style="fill:#263238"></path><path d="M449.16,109.29c-.22.16-1.14-.86-2.68-1.17s-2.82.25-3,0,.19-.4.75-.66a4,4,0,0,1,2.41-.24,3.83,3.83,0,0,1,2.08,1.16C449.17,108.86,449.26,109.23,449.16,109.29Z" style="fill:#263238"></path><path d="M433.82,110.55a1.44,1.44,0,0,1-1.66,1.16,1.39,1.39,0,0,1-1.22-1.58,1.47,1.47,0,0,1,1.67-1.17A1.4,1.4,0,0,1,433.82,110.55Z" style="fill:#263238"></path><path d="M434,106.56c-.21.15-1.14-.87-2.67-1.17s-2.82.24-2.95,0,.18-.4.74-.66a4,4,0,0,1,2.41-.25,3.8,3.8,0,0,1,2.08,1.17C434,106.13,434.09,106.49,434,106.56Z" style="fill:#263238"></path><path d="M437.29,119.08a10.38,10.38,0,0,1,2.58,0c.4,0,.79,0,.91-.22a2,2,0,0,0,0-1.22c-.18-1-.36-2.09-.56-3.22-.76-4.58-1.23-8.31-1.05-8.34s.95,3.66,1.72,8.24c.18,1.13.35,2.2.51,3.23a2.3,2.3,0,0,1-.11,1.58,1,1,0,0,1-.76.45,3.5,3.5,0,0,1-.68,0A9.79,9.79,0,0,1,437.29,119.08Z" style="fill:#263238"></path><path d="M432.55,119.24c.25,0-.08,1.71,1.11,3.18s3,1.64,3,1.88-.46.24-1.21.11a4.2,4.2,0,0,1-2.5-1.47,3.68,3.68,0,0,1-.83-2.64C432.16,119.59,432.43,119.21,432.55,119.24Z" style="fill:#263238"></path><path d="M435.58,100.61c-.23.39-1.73-.12-3.58-.26s-3.4.06-3.57-.36c-.07-.21.26-.55.93-.83a6,6,0,0,1,2.78-.4,6,6,0,0,1,2.67.87C435.42,100,435.69,100.43,435.58,100.61Z" style="fill:#263238"></path><path d="M449.48,104.73c-.34.3-1.32-.28-2.6-.55s-2.4-.24-2.57-.65c-.07-.2.17-.52.7-.75a3.84,3.84,0,0,1,4.17,1C449.56,104.19,449.64,104.58,449.48,104.73Z" style="fill:#263238"></path><path d="M416.64,108.57c-.15-.11-6.47-3.41-7.62,3.48s6,6.62,6.05,6.42S416.64,108.57,416.64,108.57Z" style="fill:#ffbe9d"></path><path d="M413.4,115.51s-.13.06-.35.12a1.18,1.18,0,0,1-.9-.13,3,3,0,0,1-.93-2.89,4.13,4.13,0,0,1,.62-1.66,1.4,1.4,0,0,1,1.06-.77.61.61,0,0,1,.65.45c.06.2,0,.33,0,.35s.17-.09.16-.38a.82.82,0,0,0-.2-.48.93.93,0,0,0-.63-.29,1.74,1.74,0,0,0-1.44.86,4.24,4.24,0,0,0-.73,1.85c-.19,1.4.3,2.82,1.25,3.27a1.29,1.29,0,0,0,1.13,0C413.36,115.68,413.42,115.53,413.4,115.51Z" style="fill:#eb996e"></path><path d="M454.27,95.51C453.09,98.06,447,99,442.56,97.7c-4.11-1.24-5.59-3.85-8.21-6.12-1.65-1.44-1.65-1.44-4.35-1.72-2.18-.22-3.93,2-5.58,3.39.92,5.48-1.51,10.9-3.89,15.91a2.74,2.74,0,0,1-1.11,1.42c-.93.46-2.05-.27-2.6-1.15a8.56,8.56,0,0,1-1-4.83,28.78,28.78,0,0,1,2.28-11.08,19.64,19.64,0,0,1,7.2-8.63A18.5,18.5,0,0,1,439,82.63a22.79,22.79,0,0,1,12,7.2,13.31,13.31,0,0,1,3.23,5.68" style="fill:#263238"></path><path d="M440.26,112.16c.06,0,0-.59.32-1.6A6.67,6.67,0,0,1,443,107a6.5,6.5,0,0,1,6.1-.88,6.29,6.29,0,0,1,3,2.25,6.41,6.41,0,0,1-3,9.79,6.5,6.5,0,0,1-6.1-.88,6.61,6.61,0,0,1-2.43-3.54c-.28-1-.26-1.6-.32-1.6a1.21,1.21,0,0,0,0,.43,5,5,0,0,0,.14,1.23,6.61,6.61,0,0,0,2.41,3.8,6.86,6.86,0,0,0,9.73-1.36,6.86,6.86,0,0,0,0-8.2,6.76,6.76,0,0,0-3.23-2.4,6.84,6.84,0,0,0-6.5,1,6.59,6.59,0,0,0-2.41,3.8,4.84,4.84,0,0,0-.14,1.22C440.23,112,440.24,112.16,440.26,112.16Z" style="fill:#263238"></path><path d="M423.93,109.31c.06,0,0-.59.31-1.6a6.64,6.64,0,0,1,2.44-3.54,6.49,6.49,0,0,1,6.09-.88,6.36,6.36,0,0,1,3,2.24,6.38,6.38,0,0,1,0,7.56,6.36,6.36,0,0,1-3,2.24,6.49,6.49,0,0,1-6.09-.88,6.64,6.64,0,0,1-2.44-3.54c-.27-1-.25-1.6-.31-1.6a1.34,1.34,0,0,0,0,.43A5.36,5.36,0,0,0,424,111a6.64,6.64,0,0,0,2.41,3.8,6.88,6.88,0,0,0,11.09-5.45,7,7,0,0,0-1.35-4.1,6.86,6.86,0,0,0-9.74-1.35,6.61,6.61,0,0,0-2.41,3.8,5.36,5.36,0,0,0-.14,1.22A1.34,1.34,0,0,0,423.93,109.31Z" style="fill:#263238"></path><path d="M437.39,109.54c.06.14.94-.27,2,0s1.53,1.13,1.66,1,0-.29-.2-.64a2.41,2.41,0,0,0-1.3-.94,2.44,2.44,0,0,0-1.61.07C437.52,109.28,437.35,109.48,437.39,109.54Z" style="fill:#263238"></path><path d="M414.67,107.55a22.75,22.75,0,0,0,4.91.21,22.15,22.15,0,0,0,4.9-.35,43.1,43.1,0,0,0-9.81.14Z" style="fill:#263238"></path><path d="M393,360l-16.4,25,39,22.77c2-3.85-13.85-23.11-13.85-23.11L410.34,371Z" style="fill:#455a64"></path><path d="M390.62,375.91a1.85,1.85,0,0,0-2.16,1.17,1.78,1.78,0,0,0,1.14,2.16,2,2,0,0,0,2.29-1.26,1.83,1.83,0,0,0-1.44-2.1" style="fill:#e0e0e0"></path><path d="M376.56,385l1.89-3.31L415.08,405s1.29,1.78.37,2.88Z" style="fill:#e0e0e0"></path><path d="M402.43,384.81c-.12.19-1.12-.28-2.41-.22s-2.26.58-2.39.4.79-1.11,2.36-1.16S402.58,384.66,402.43,384.81Z" style="fill:#e0e0e0"></path><path d="M405.53,388.89c-.06.21-1.08.05-2.19.48s-1.8,1.17-2,1.05.33-1.27,1.72-1.77S405.63,388.71,405.53,388.89Z" style="fill:#e0e0e0"></path><path d="M405,395.14c-.19-.06.1-1.17,1.2-1.92s2.23-.65,2.21-.45-.88.44-1.78,1.08S405.19,395.23,405,395.14Z" style="fill:#e0e0e0"></path><path d="M404.77,380c-.18.13-.9-.65-2-1.2s-2.15-.71-2.15-.93,1.19-.43,2.5.24S405,379.92,404.77,380Z" style="fill:#e0e0e0"></path><path d="M406.55,374.85c-.05.08-.87-.24-1.95-1.15a9.7,9.7,0,0,1-1.67-1.82,10.2,10.2,0,0,1-.78-1.25,3,3,0,0,1-.32-.8,1,1,0,0,1,.51-1.06,1.17,1.17,0,0,1,1.08.05,2.77,2.77,0,0,1,.68.53,9,9,0,0,1,1,1.12,8.3,8.3,0,0,1,1.11,2.24,3.86,3.86,0,0,1,.22,2.25c-.13,0-.22-.84-.73-2.07a9.28,9.28,0,0,0-1.17-2,8.51,8.51,0,0,0-.92-1c-.35-.35-.7-.55-.91-.43s-.1.07-.09.24a2.61,2.61,0,0,0,.24.59,11.26,11.26,0,0,0,.69,1.19,12.44,12.44,0,0,0,1.46,1.83C405.91,374.27,406.61,374.75,406.55,374.85Z" style="fill:#e0e0e0"></path><path d="M406.14,375a3.56,3.56,0,0,1,.59-2.18,7.37,7.37,0,0,1,1.51-2,7.85,7.85,0,0,1,1.19-.89,1.88,1.88,0,0,1,1.82-.26,1,1,0,0,1,.5,1,3.21,3.21,0,0,1-.22.84,4.86,4.86,0,0,1-.77,1.31,5.14,5.14,0,0,1-2,1.53c-1.35.56-2.28.33-2.25.25a17.68,17.68,0,0,0,2-.74,5.16,5.16,0,0,0,1.68-1.47,4.9,4.9,0,0,0,.63-1.15c.18-.45.22-.87,0-.92a1.28,1.28,0,0,0-1.06.24,7.42,7.42,0,0,0-1.1.77,8.09,8.09,0,0,0-1.52,1.73C406.47,374.18,406.26,375,406.14,375Z" style="fill:#e0e0e0"></path><path d="M292.32,365,272,386.88l34.66,28.9c2.56-3.48-9.83-25.08-9.83-25.08l10.8-12.05Z" style="fill:#455a64"></path><path d="M287.39,380.26a1.83,1.83,0,0,0-2.32.8,1.76,1.76,0,0,0,.77,2.31,2,2,0,0,0,2.46-.86,1.86,1.86,0,0,0-1.07-2.32" style="fill:#e0e0e0"></path><path d="M272,386.88l2.4-2.95L306.71,413s1,2-.12,2.9Z" style="fill:#e0e0e0"></path><path d="M297.57,391c-.15.16-1.06-.47-2.34-.62s-2.33.2-2.43,0,1-1,2.52-.76S297.74,390.86,297.57,391Z" style="fill:#e0e0e0"></path><path d="M300,395.52c-.1.2-1.07-.12-2.24.11s-2,.86-2.13.71.53-1.19,2-1.46S300.08,395.36,300,395.52Z" style="fill:#e0e0e0"></path><path d="M298.39,401.6c-.19-.09.28-1.14,1.49-1.7s2.31-.28,2.26-.07-.95.28-1.93.76S298.57,401.72,298.39,401.6Z" style="fill:#e0e0e0"></path><path d="M300.67,386.65c-.2.09-.78-.79-1.79-1.52s-2-1.05-2-1.27,1.25-.23,2.43.65S300.86,386.59,300.67,386.65Z" style="fill:#e0e0e0"></path><path d="M303.27,381.85c0,.07-.81-.38-1.73-1.46a10.45,10.45,0,0,1-1.35-2.07,12,12,0,0,1-.55-1.36,2.74,2.74,0,0,1-.19-.85,1,1,0,0,1,.68-1,1.2,1.2,0,0,1,1.06.23,3,3,0,0,1,.58.63,9.56,9.56,0,0,1,.77,1.27,8,8,0,0,1,.72,2.39,3.8,3.8,0,0,1-.15,2.26c-.13,0-.07-.87-.38-2.16a8.93,8.93,0,0,0-.82-2.17,8.41,8.41,0,0,0-.74-1.13c-.29-.41-.6-.67-.83-.59s-.11.06-.12.23a2,2,0,0,0,.13.62,12.88,12.88,0,0,0,.48,1.29,13,13,0,0,0,1.15,2C302.74,381.17,303.35,381.76,303.27,381.85Z" style="fill:#e0e0e0"></path><path d="M302.85,381.91c-.08,0,.09-.91.94-2.06a7.37,7.37,0,0,1,1.82-1.71,7.45,7.45,0,0,1,1.32-.68,1.86,1.86,0,0,1,1.84.05,1,1,0,0,1,.32,1.08,3,3,0,0,1-.35.79,4.88,4.88,0,0,1-1,1.17,5.11,5.11,0,0,1-2.24,1.17,2.89,2.89,0,0,1-2.27-.12,16,16,0,0,0,2.12-.4,5.2,5.2,0,0,0,1.91-1.17,4.58,4.58,0,0,0,.8-1c.25-.41.36-.83.19-.9a1.26,1.26,0,0,0-1.08.06,7.51,7.51,0,0,0-1.21.58,8.26,8.26,0,0,0-1.78,1.45C303.31,381.17,303,382,302.85,381.91Z" style="fill:#e0e0e0"></path><path d="M448.48,293.68c-2.05-3-4.81-6.79-8.45-11.21-6.22-7.57-15.14-17.06-18.93-21-4.16-5.14-15.41-21.07-19.25-25.45C397,230.41,389,225.13,389,225.13l-47.7,5.28-3,2.79c.64,3.85,2.65,16,6.92,21.55,5.21,6.74,18.91,19.14,25.65,21.09a113.85,113.85,0,0,1,12.61,4.64c7.55,5.22,32.71,22.73,34.68,25.56a.77.77,0,0,1,0,1s-10,10.37-14.92,20.74C397.45,340,384,367.66,384,367.66l23.92,12.22s30.53-49.31,34.58-55.48c1.59-2.43,4.66-8.46,7.19-13.58A17.07,17.07,0,0,0,448.48,293.68Z" style="fill:#263238"></path><path d="M388.67,246.54,353.51,234.4s.84,14.73,2.95,18.45l-22.22,49s-21.86,29.71-28.11,37.82c-8.1,10.51-21.38,32.37-21.38,32.37l19.44,14.16,48.18-57.39s5.33-2.32,7.27-5.42l36.53-45.34Z" style="fill:#263238"></path><path d="M495.11,164.53l-.79-6.8,3.85-4.71s4.13-2.34,4.66-3a1.76,1.76,0,0,1,.45,1.79s1.33-1.7,2.21-1.6,1.49,1.62,1.71,2.68A6.73,6.73,0,0,1,509,154a3.6,3.6,0,0,1,1.09,1.82l-.25,1.37a1.63,1.63,0,0,1,1.65.83,4.88,4.88,0,0,1,.33,2.52s1.06-.58,1.56.27a2.28,2.28,0,0,1,.42,2.09c-.22.72-3.63,6.43-4.8,7.33s-10.9,8.51-10.9,8.51l-8.44-8.85Z" style="fill:#ffbe9d"></path><path d="M512.53,163.26a6.94,6.94,0,0,1-1.47,1.65,15,15,0,0,1-1.9,1.47,2.36,2.36,0,0,1-1.42.5,1.61,1.61,0,0,1-1.37-.92,1.68,1.68,0,0,1,.11-1.64,4.1,4.1,0,0,1,1-1,22.49,22.49,0,0,1,2-1.34,7.68,7.68,0,0,1,2-1,18.67,18.67,0,0,1-1.81,1.23c-.55.38-1.2.84-1.9,1.4a4,4,0,0,0-.93.94,1.27,1.27,0,0,0-.08,1.24,1.2,1.2,0,0,0,1,.68A2.1,2.1,0,0,0,509,166a18.07,18.07,0,0,0,1.91-1.37C511.9,163.83,512.48,163.21,512.53,163.26Z" style="fill:#eb996e"></path><path d="M507.47,153c0,.05-.67.65-1.7,1.71-.51.54-1.11,1.19-1.71,2-.31.38-.61.79-.92,1.23a2.48,2.48,0,0,1-1.41,1.08,1.28,1.28,0,0,1-1-.18,1.55,1.55,0,0,1-.57-.75,2.17,2.17,0,0,1,.12-1.65,8.69,8.69,0,0,1,.74-1.23l.68-1a13.6,13.6,0,0,1,1.45-1.94A13.57,13.57,0,0,1,502,154.3c-.36.64-.92,1.38-1.31,2.23a1.74,1.74,0,0,0-.09,1.34.91.91,0,0,0,1.05.65,2,2,0,0,0,1.15-.91c.32-.43.64-.85.95-1.23a25.16,25.16,0,0,1,1.81-1.92A8.34,8.34,0,0,1,507.47,153Z" style="fill:#eb996e"></path><path d="M509.45,156.88a16.55,16.55,0,0,1-1.26,1.3,18.08,18.08,0,0,1-3.25,3,8.75,8.75,0,0,1-1.08.71,1.13,1.13,0,0,1-.71.1,2,2,0,0,1-.57-.28,1.53,1.53,0,0,1-.45-.43,2.3,2.3,0,0,1-.23-.51,2.54,2.54,0,0,1-.11-1,2.4,2.4,0,0,1,.49-1.29c.21-.26.37-.35.38-.33a3.28,3.28,0,0,0-.56,1.63,2.35,2.35,0,0,0,.14.84,2.27,2.27,0,0,0,.21.41,1.17,1.17,0,0,0,.35.3,1.59,1.59,0,0,0,.44.21.66.66,0,0,0,.44-.08,10.27,10.27,0,0,0,1-.67A23.65,23.65,0,0,0,508,158,5.27,5.27,0,0,1,509.45,156.88Z" style="fill:#eb996e"></path><path d="M511.72,160.34a15.5,15.5,0,0,1-2,1.6l-2.29,1.63a5.77,5.77,0,0,1-1.47.87,1.67,1.67,0,0,1-1,0,1.25,1.25,0,0,1-.79-.7,2,2,0,0,1,.33-1.89,16.14,16.14,0,0,1,1.09-1.28,18.31,18.31,0,0,1,2-2,10.59,10.59,0,0,1,1.56-1.1,2,2,0,0,1,.64-.29c0,.07-.83.55-2,1.62a22.16,22.16,0,0,0-1.93,2c-.34.4-.72.82-1,1.26a1.56,1.56,0,0,0-.28,1.48,1,1,0,0,0,1.24.44,6.87,6.87,0,0,0,1.38-.8l2.33-1.56A15.3,15.3,0,0,1,511.72,160.34Z" style="fill:#eb996e"></path><path d="M503.37,151.67c.15.06-.67,1.85-2.26,3.62-.2.22-.4.43-.61.62s-.23.19-.31.27l-.11.09a.29.29,0,0,0,0,.1,7.09,7.09,0,0,1-.1,1.34,2.35,2.35,0,0,1-.44,1.19,7.23,7.23,0,0,1,.14-1.23,12,12,0,0,0,0-1.35.54.54,0,0,1,.09-.26l.17-.19c.11-.11.2-.17.3-.27s.38-.39.57-.6c.77-.87,1.41-1.71,1.86-2.33A6.38,6.38,0,0,1,503.37,151.67Z" style="fill:#eb996e"></path><path d="M502.14,162c-.06,0-.18-.28-.49-.67a19.3,19.3,0,0,0-1.39-1.44,4.42,4.42,0,0,0-1.65-1c-.47-.14-.8-.12-.81-.19s.32-.19.88-.11a3.64,3.64,0,0,1,1.87,1,8.1,8.1,0,0,1,1.35,1.59C502.18,161.58,502.2,161.94,502.14,162Z" style="fill:#eb996e"></path><path d="M312.88,185.65s.78,6.5.45,8.41-2.39,7.8-2.09,10.44a1.59,1.59,0,0,1-2.53-1.07,17.93,17.93,0,0,1-.36-7.29c.36-1.59-.86-1.71-1.75-.93s-6,7.06-6,7.06-4.7,8-5.88,8.17-1.61-1.23-1.85-1.76,3.52-7.75,3.52-7.75l2.42-3.32s-8.24,9.92-9.53,10-1.61-.8-1.63-1.56,3.66-5.09,3.66-5.09l4.55-6.19L285.66,205s-1.09.83-1.87.1-.13-2.35-.13-2.35l9.65-11.4s-10.86,2.26-11.37,1.77-1.06-1.3-.46-1.62,12-5,12-5l9.9-7.45,2.6-2,8.29,7Z" style="fill:#ffbe9d"></path><path d="M302.76,177.71l22.43-32.28A15.54,15.54,0,0,1,337,139.05l41.26-2.15s5.93-7.13,9.45-6.39,9,4.31,7.49,10.86-10.47,19.85-20.79,21.1l-34.65-.1-23.94,24.76Z" style="fill:#455a64"></path><path d="M381.59,229.61,401.85,236c2.62-2.77,9.53-18.36,9.53-18.36Z" style="fill:#e0e0e0"></path><path d="M410.85,134l-23.06-2.41-12.35,28.18-10.08,41.82s-33.63,20.28-40.19,29C321.88,235,332,246.24,332,246.24s10.47,15.19,20.5,13.32,32.83-18.71,44.16-26.88c3.34-2.41,9.25-6.76,12.9-12.12A67.45,67.45,0,0,0,417.87,202Z" style="fill:#455a64"></path><path d="M436.08,145.07l10.29,12.17c.51.87-7.88,30.77-11.83,38.21-1.54,2.9-12.53,15.4-18.32,26v33.31L401.85,236l2.2-3.21L417.87,202l18.75-21.92-.58-20Z" style="fill:#455a64"></path><path d="M473.92,177.92,448.38,162.2l-2-5L433.8,193.67s36.46,9,43.66,5.79,28.38-22.37,28.38-22.37l-13-12.19Z" style="fill:#455a64"></path><path d="M410.85,134l1.76-3.32A82.74,82.74,0,0,1,424,142a105.71,105.71,0,0,1,6.68,10.6l5.53-7.36.44,34.91L417.87,202l-6.79-65.83Z" style="fill:#e0e0e0"></path><path d="M413,198.63a4.32,4.32,0,0,1-.21-.65c-.13-.49-.31-1.11-.52-1.89-.45-1.64-1.16-4-2.07-6.91s-2.05-6.37-3.27-10.19-2.58-8.07-3.72-12.59a52.45,52.45,0,0,1-1.34-6.69,16.61,16.61,0,0,1,.59-6.34c1.16-3.93,3.09-7.05,4.38-9.8a26.29,26.29,0,0,0,2.44-6.72c.07-.41.13-.78.19-1.11s.05-.59.07-.83a5.55,5.55,0,0,1,.08-.68,2.83,2.83,0,0,1,0,.69c0,.24,0,.52,0,.83s-.1.71-.15,1.13a24.63,24.63,0,0,1-2.31,6.85c-1.25,2.78-3.14,5.93-4.25,9.77a16.32,16.32,0,0,0-.54,6.16,55.41,55.41,0,0,0,1.33,6.62c1.14,4.49,2.47,8.72,3.67,12.56s2.31,7.31,3.17,10.23,1.52,5.3,1.91,7c.21.82.34,1.47.43,1.91A3.14,3.14,0,0,1,413,198.63Z" style="fill:#263238"></path><path d="M373.78,193a4.45,4.45,0,0,1,.18-1.13c.17-.83.38-1.84.62-3,.53-2.56,1.19-6.11,1.75-10.05s.89-7.54,1.09-10.15c.09-1.21.17-2.25.23-3.09a5.57,5.57,0,0,1,.14-1.13,4.31,4.31,0,0,1,.06,1.14c0,.73,0,1.79-.06,3.1-.11,2.62-.39,6.24-1,10.2s-1.28,7.51-1.9,10.06c-.31,1.27-.58,2.3-.79,3A5.14,5.14,0,0,1,373.78,193Z" style="fill:#455a64"></path><path d="M381.72,186c-.13.08-1.35-1.89-3.08-4.15s-3.3-3.95-3.2-4.06a15.64,15.64,0,0,1,3.61,3.75A16.06,16.06,0,0,1,381.72,186Z" style="fill:#455a64"></path><path d="M385.31,177.71a11.56,11.56,0,0,1-5.08-1A11.84,11.84,0,0,1,375.8,174c.1-.13,2,1.21,4.62,2.23S385.33,177.56,385.31,177.71Z" style="fill:#455a64"></path><path d="M414.73,205.68a2.15,2.15,0,0,1-.41.27c-.28.16-.68.42-1.22.7a33,33,0,0,1-4.74,2,35.34,35.34,0,0,1-16.87,1.52,37.32,37.32,0,0,1-19.67-9.72c-.44-.41-.76-.77-1-1a2,2,0,0,1-.32-.37,14.2,14.2,0,0,1,1.44,1.22,46.6,46.6,0,0,0,4.06,3.13,38.42,38.42,0,0,0,15.55,6.23,36.52,36.52,0,0,0,16.67-1.36,40.49,40.49,0,0,0,4.77-1.88A14.81,14.81,0,0,1,414.73,205.68Z" style="fill:#455a64"></path><path d="M410.65,212.89s-.23.26-.72.66-1.21.95-2.14,1.59a38.9,38.9,0,0,1-7.82,4,37.41,37.41,0,0,1-8.54,2.11,25,25,0,0,1-2.66.2,4.18,4.18,0,0,1-1,0c0-.09,1.38-.18,3.59-.54a44.09,44.09,0,0,0,8.41-2.23,46.37,46.37,0,0,0,7.8-3.85C409.49,213.65,410.6,212.82,410.65,212.89Z" style="fill:#263238"></path><path d="M415.68,223.46c-.15,0-.16-2.26-.58-5s-1.05-4.88-.9-4.93a18.58,18.58,0,0,1,1.48,9.91Z" style="fill:#455a64"></path><path d="M382.06,160.37a47,47,0,0,0,3.64-3,22.51,22.51,0,0,0,6.42-20.79,45.72,45.72,0,0,0-1.31-4.54,4.59,4.59,0,0,1,.59,1.14,19.56,19.56,0,0,1,1.08,3.32A21.83,21.83,0,0,1,386,157.62a19.62,19.62,0,0,1-2.76,2.14A4.7,4.7,0,0,1,382.06,160.37Z" style="fill:#263238"></path><path d="M416.22,221.45a3.39,3.39,0,0,1,.33-.64c.24-.4.59-1,1.06-1.75.95-1.51,2.35-3.67,4.12-6.32,3.5-5.31,8.51-12.54,13.39-20.92.61-1,1.19-2.09,1.74-3.13s1.08-2.08,1.59-3.1.92-2.06,1.37-3.06c.24-.49.37-1,.56-1.52s.38-1,.49-1.5a25.46,25.46,0,0,0,.78-5.85,45.64,45.64,0,0,0-.11-5.18c-.23-3.16-.61-5.71-.85-7.47-.12-.84-.21-1.52-.28-2a3.82,3.82,0,0,1-.07-.72,3.29,3.29,0,0,1,.17.7c.1.51.22,1.18.38,2,.3,1.75.74,4.29,1,7.47a45.57,45.57,0,0,1,.17,5.22,25.15,25.15,0,0,1-.75,6,44.27,44.27,0,0,1-1.05,3.08c-.45,1-.84,2.07-1.37,3.09s-1,2.09-1.59,3.12-1.13,2.11-1.75,3.15c-4.89,8.41-10,15.61-13.53,20.87l-4.26,6.22-1.14,1.7A5,5,0,0,1,416.22,221.45Z" style="fill:#263238"></path><path d="M447.32,167.47a14.23,14.23,0,0,1-.93,2.74c-.65,1.67-1.61,3.95-2.74,6.43s-2.24,4.7-3.07,6.28a15.78,15.78,0,0,1-1.46,2.51,15.91,15.91,0,0,1,1.13-2.67l2.92-6.33,2.88-6.36A17.37,17.37,0,0,1,447.32,167.47Z" style="fill:#263238"></path><path d="M450.91,174.17a19.62,19.62,0,0,1-2,2c-1.27,1.21-3,2.91-4.76,4.9s-3.26,3.92-4.3,5.33a23,23,0,0,1-1.72,2.26,12.06,12.06,0,0,1,1.42-2.48,50.09,50.09,0,0,1,4.21-5.45,48.11,48.11,0,0,1,4.91-4.83A12.44,12.44,0,0,1,450.91,174.17Z" style="fill:#263238"></path><path d="M476.46,189.2a23.49,23.49,0,0,1-1.24-4.8,23,23,0,0,1-.72-4.91,23.87,23.87,0,0,1,1.23,4.81A24.15,24.15,0,0,1,476.46,189.2Z" style="fill:#263238"></path><path d="M478.7,188.15c-.15,0-.71-2.2-1.64-4.87s-1.85-4.77-1.71-4.84a16.41,16.41,0,0,1,2.21,4.67A16.79,16.79,0,0,1,478.7,188.15Z" style="fill:#263238"></path><path d="M334.32,151.05A20.78,20.78,0,0,1,338,156.3a21.42,21.42,0,0,1,2.45,5.93c-.14.06-1.2-2.6-2.9-5.68S334.2,151.14,334.32,151.05Z" style="fill:#263238"></path><path d="M337.25,147.93a39.4,39.4,0,0,1,2,6.17,40.14,40.14,0,0,1,1.47,6.3,40.7,40.7,0,0,1-2-6.17A41.55,41.55,0,0,1,337.25,147.93Z" style="fill:#263238"></path><path d="M372,215a10.25,10.25,0,0,1,1.54-.22l4.2-.48c3.54-.4,8.43-1,13.8-1.92s10.19-1.87,13.68-2.63l4.12-.9a10.1,10.1,0,0,1,1.53-.28,8.77,8.77,0,0,1-1.48.48c-1,.27-2.35.64-4.09,1.06-3.47.85-8.3,1.89-13.68,2.79s-10.29,1.46-13.84,1.77c-1.78.16-3.23.26-4.22.31A8.14,8.14,0,0,1,372,215Z" style="fill:#263238"></path><path d="M387.08,201.59a23.53,23.53,0,0,1,3,.95c1.86.62,4.43,1.44,7.31,2.21s5.52,1.34,7.44,1.73a22,22,0,0,1,3.09.68,16.2,16.2,0,0,1-3.16-.32,73.94,73.94,0,0,1-14.8-4A16.7,16.7,0,0,1,387.08,201.59Z" style="fill:#263238"></path><polyline points="370.52 229.11 361.92 233.48 345.8 217.07 354.83 214.49" style="fill:#455a64"></polyline><path d="M354.83,214.49a3,3,0,0,1-.63.25l-1.81.58-6.53,2,.1-.36,8.18,8.27,7.93,8.14-.25,0,6.28-3.1,1.77-.83a3.13,3.13,0,0,1,.65-.25,2.56,2.56,0,0,1-.59.37l-1.71.94-6.2,3.26-.15.07-.11-.11-8-8.09-8.12-8.33-.26-.26.35-.1,6.58-1.78,1.84-.47A2.71,2.71,0,0,1,354.83,214.49Z" style="fill:#263238"></path><path d="M370.52,229.11a81.27,81.27,0,0,1-6.77-6.05,80.36,80.36,0,0,1-6.41-6.43,77.09,77.09,0,0,1,6.77,6.05A78.45,78.45,0,0,1,370.52,229.11Z" style="fill:#263238"></path><path d="M415,208.61l.27,0a1.66,1.66,0,0,0-2.21,1,1.78,1.78,0,0,0,1.29,2.16,1.74,1.74,0,0,0,1.91-1.59A1.67,1.67,0,0,0,415,208.61Z" style="fill:#263238"></path><path d="M404.05,226.57c-.06-.06,1.14-1.17,2.74-3.26a68.15,68.15,0,0,0,9.66-18c.85-2.49,1.11-4.1,1.2-4.09a5.42,5.42,0,0,1-.12,1.15,23.5,23.5,0,0,1-.73,3,52.85,52.85,0,0,1-4,9.52,53.44,53.44,0,0,1-5.69,8.63,23,23,0,0,1-2.13,2.3A4.6,4.6,0,0,1,404.05,226.57Z" style="fill:#263238"></path><path d="M401.47,331.53s.07-.18.22-.53.42-.87.72-1.51c.64-1.32,1.64-3.21,3-5.57s3.14-5.14,5.35-8.21c1.12-1.52,2.33-3.12,3.67-4.75.68-.81,1.37-1.64,2.12-2.46l1.13-1.24a3.26,3.26,0,0,0,.51-.6c.11-.2.06-.31-.1-.4l-.06,0,0,0a36.71,36.71,0,0,0-4.42-3.84c-1.61-1.25-3.29-2.51-5-3.8-3.47-2.56-7.15-5.2-11-7.89-5-3.54-9.8-6.9-14.23-10l0,0c-2.68-1.1-5-2.62-7.38-3.72a39.3,39.3,0,0,0-7.12-2.31,27,27,0,0,1-11-5.75,44,44,0,0,1-5.7-5.86c-.59-.75-1-1.34-1.31-1.74l-.31-.47-.1-.17a.83.83,0,0,1,.13.15l.35.44c.3.39.76,1,1.37,1.68a47.38,47.38,0,0,0,5.76,5.73,26.64,26.64,0,0,0,4.72,3.2,29,29,0,0,0,6.21,2.38,39.37,39.37,0,0,1,7.2,2.3c2.43,1.11,4.75,2.61,7.38,3.68h.05c4.45,3.06,9.27,6.42,14.25,10,3.8,2.7,7.49,5.34,10.95,7.92q2.61,1.94,5,3.82a37.23,37.23,0,0,1,4.5,3.94l-.1-.07a.72.72,0,0,1,.41.46.75.75,0,0,1-.08.58,3.94,3.94,0,0,1-.59.7l-1.13,1.23c-.74.81-1.44,1.63-2.12,2.44-1.35,1.61-2.57,3.19-3.69,4.7-2.23,3-4,5.8-5.42,8.12s-2.43,4.2-3.11,5.5l-.78,1.47A2.92,2.92,0,0,1,401.47,331.53Z" style="fill:#455a64"></path><path d="M429.62,150.79a4,4,0,0,1-.78-.44,4.23,4.23,0,0,0-2.3-.65,3.57,3.57,0,0,0-1.58.53,8.93,8.93,0,0,0-1.54,1.29,27.3,27.3,0,0,1-3.51,3.4l-.31.22-.07-.37a37.65,37.65,0,0,0-1.47-5.1,108.44,108.44,0,0,0-5-11.22l-1.67-3.34a7.63,7.63,0,0,1-.55-1.26,7.06,7.06,0,0,1,.73,1.16c.44.77,1.07,1.88,1.81,3.27a86.72,86.72,0,0,1,5.16,11.22,33.78,33.78,0,0,1,1.46,5.17l-.38-.16a29.25,29.25,0,0,0,3.49-3.29,8.88,8.88,0,0,1,1.65-1.3,3.72,3.72,0,0,1,1.75-.53,4.19,4.19,0,0,1,2.41.82A3.74,3.74,0,0,1,429.62,150.79Z" style="fill:#263238"></path><path d="M435.92,153.34c.06,0,.09.44-.17,1.09a3.76,3.76,0,0,1-1.95,2l-.36.16v-.41c0-.3,0-.6,0-.91a14.51,14.51,0,0,0-1.23-4.41c.06,0,.43.35.85,1.11a8,8,0,0,1,.9,3.27,7.73,7.73,0,0,1,0,1l-.36-.24a3.92,3.92,0,0,0,1.85-1.66C435.77,153.73,435.85,153.33,435.92,153.34Z" style="fill:#263238"></path><path d="M429.62,154.72a1.66,1.66,0,0,1,0,.49q-.08.57-.18,1.41c-.17,1.21-.43,3-.78,5.14-.71,4.33-1.78,10.31-3.32,16.84a145.69,145.69,0,0,1-4.89,16.45c-.77,2.07-1.43,3.72-1.93,4.84-.24.51-.43.94-.59,1.29a2.22,2.22,0,0,1-.23.43,1.49,1.49,0,0,1,.14-.47c.13-.36.29-.8.49-1.33.44-1.14,1.05-2.81,1.77-4.88,1.44-4.14,3.18-9.94,4.73-16.46s2.67-12.46,3.46-16.78l1-5.11q.16-.83.27-1.38A2.44,2.44,0,0,1,429.62,154.72Z" style="fill:#263238"></path><g style="opacity:0.30000000000000004"><polygon points="348.63 219.95 344.14 221.44 358.16 236.01 369.1 229.83 362.11 232.91 348.63 219.95"></polygon></g><g style="opacity:0.30000000000000004"><path d="M407.82,212c-10.11,5.14-21.72,6.25-33,7.28,9.61,2.21,23.26.32,33-7.28"></path></g><path d="M436.62,194.34l.38,0,1.11.19,4.25.77,15.66,2.8c3.3.56,6.93,1.21,10.84,1.67a23.88,23.88,0,0,0,6,.1,16.58,16.58,0,0,0,5.78-2.63,55.45,55.45,0,0,0,5.52-3.94c1.83-1.43,3.66-2.94,5.52-4.48,3.71-3.09,7.5-6.34,11.37-9.71l2.58-2.26v.38l-13-12.2.31,0-18.91,13-.12.08-.11-.07-18.56-11.53-5.1-3.21-1.33-.85c-.3-.2-.44-.31-.44-.31s.17.08.47.25l1.36.81,5.17,3.11L474,177.74h-.23l18.87-13.06.16-.11.15.14,13,12.18.21.2-.21.19-2.59,2.26c-3.87,3.37-7.67,6.62-11.39,9.71-1.86,1.54-3.69,3.05-5.53,4.48a55.7,55.7,0,0,1-5.58,4,17,17,0,0,1-6,2.68,23.79,23.79,0,0,1-6.16-.14c-3.93-.47-7.55-1.15-10.86-1.72-6.61-1.2-11.94-2.24-15.63-3l-4.23-.87-1.1-.24A1.84,1.84,0,0,1,436.62,194.34Z" style="fill:#263238"></path></g><g id="freepik--character-1--inject-572"><path d="M194.26,48a7.41,7.41,0,0,0-3.67-3.08,10,10,0,0,0-5.29-.73,8.75,8.75,0,0,0-4.45,15.25c2.5,2.18,7.52,3,10.55,1.62l2.45-5.77C195,53,195.47,50.19,194.26,48Z" style="fill:#263238"></path><path d="M215.55,41.29c-4.9-1-9.28.8-13.51,3.46a24.73,24.73,0,0,0-9.41,11.36,24.43,24.43,0,0,0-1.34,15.45,19.52,19.52,0,0,0,9.28,12.23c6.31,3.43,14.53,2.53,20.38-1.64s9.33-11.24,9.81-18.41a23.74,23.74,0,0,0-3.36-14.22,18.1,18.1,0,0,0-11.85-8.23" style="fill:#263238"></path><path d="M201.08,57.64c.77-1.86.55-4,.89-6,.76-4.38,4.4-7.8,8.54-9.4,3.86-1.49,8.5-1,13.05.6a17.47,17.47,0,0,1,8.05,5.58,13.8,13.8,0,0,1,2.19,12.47L211.41,57a25.16,25.16,0,0,1-6.95,4.29,4.53,4.53,0,0,1-2.35.31,2.1,2.1,0,0,1-1.71-1.49A4.41,4.41,0,0,1,201.08,57.64Z" style="fill:#263238"></path><path d="M223.86,49.1l-19.75,3.61a3.66,3.66,0,0,0-3.52,3.49l-1,42.5a13.17,13.17,0,0,0,2.54,8.09l1.81,2.47a9.69,9.69,0,0,0,16.21-.75,4.42,4.42,0,0,0,.48-1.1,6.9,6.9,0,0,0,.21-1,30.5,30.5,0,0,0,.53-6.43c.29-3.78.4-5.33.4-5.29s8.06-.79,10.41-11.09c1.17-5.12,1.48-13.62,1.51-20.58C233.75,56.8,230.13,48.86,223.86,49.1Z" style="fill:#ffbe9d"></path><path d="M230.52,70.82a1.34,1.34,0,0,1-1.38,1.26,1.28,1.28,0,0,1-1.3-1.29,1.34,1.34,0,0,1,1.38-1.26A1.28,1.28,0,0,1,230.52,70.82Z" style="fill:#263238"></path><path d="M231.59,67.36c-.18.16-1.14-.65-2.57-.75s-2.54.56-2.68.37.11-.38.59-.69a3.74,3.74,0,0,1,2.16-.51,3.6,3.6,0,0,1,2,.81C231.55,67,231.68,67.29,231.59,67.36Z" style="fill:#263238"></path><path d="M217.67,70.25a1.34,1.34,0,0,1-1.37,1.26,1.28,1.28,0,0,1-1.3-1.3A1.33,1.33,0,0,1,216.38,69,1.27,1.27,0,0,1,217.67,70.25Z" style="fill:#263238"></path><path d="M218,66.62c-.18.17-1.14-.65-2.58-.74s-2.53.55-2.68.37.12-.39.6-.69a3.66,3.66,0,0,1,2.16-.51,3.47,3.47,0,0,1,2,.81C217.91,66.23,218,66.55,218,66.62Z" style="fill:#263238"></path><path d="M222,77.68a9.67,9.67,0,0,1,2.36-.27c.37,0,.73-.06.8-.3a1.84,1.84,0,0,0-.17-1.11c-.28-.91-.58-1.86-.89-2.86-1.24-4.08-2.12-7.42-2-7.47s1.3,3.22,2.54,7.29l.85,2.88a2.16,2.16,0,0,1,.1,1.45.93.93,0,0,1-.64.5,2,2,0,0,1-.63,0A9.2,9.2,0,0,1,222,77.68Z" style="fill:#263238"></path><path d="M221.81,94.74a26.58,26.58,0,0,1-13.69-4.65s3,7.44,13.5,7.16Z" style="fill:#eb996e"></path><path d="M221.12,81.1A2.63,2.63,0,0,0,218.86,80a2.39,2.39,0,0,0-1.69.77,1.5,1.5,0,0,0-.23,1.7,1.74,1.74,0,0,0,1.85.6,5.32,5.32,0,0,0,1.91-1,1.65,1.65,0,0,0,.44-.39.49.49,0,0,0,0-.54" style="fill:#eb996e"></path><path d="M217.66,78.39c.24,0,.13,1.56,1.39,2.76S222,82.28,222,82.5s-.39.28-1.09.25a3.88,3.88,0,0,1-2.45-1,3.38,3.38,0,0,1-1.07-2.31C217.36,78.75,217.56,78.37,217.66,78.39Z" style="fill:#263238"></path><path d="M218,62.35c-.17.39-1.59.1-3.29.19s-3.09.46-3.29.1c-.09-.18.17-.53.75-.87a5.54,5.54,0,0,1,2.48-.69,5.38,5.38,0,0,1,2.53.48C217.77,61.85,218.06,62.17,218,62.35Z" style="fill:#263238"></path><path d="M231.59,61.05c-.27.31-1.24-.09-2.43-.19s-2.21.07-2.42-.29c-.09-.17.09-.48.55-.76a3.55,3.55,0,0,1,3.91.38C231.6,60.55,231.72,60.9,231.59,61.05Z" style="fill:#263238"></path><path d="M197.57,54.51c2.2-5.92,11.32-13.82,17.59-13.08l9.77,6.51A9.73,9.73,0,0,1,218,55.05c-1.81.46-4,.5-5.09,2s-.63,3.81-1.71,5.37c-1.5,2.17-5.3,1.88-6.46,4.24-.51,1-.33,2.31-.86,3.33-.7,1.36-4.31,3-5.75,2.43s-1.32-3-1.73-4.34a6.9,6.9,0,0,1,0-4.64C197.17,60.51,196.52,57.33,197.57,54.51Z" style="fill:#263238"></path><path d="M202.37,73.83c0-.77-.72-2.66-1.48-2.83-2-.45-5.72-.54-6.1,4.65-.52,7.09,6.71,6.15,6.73,5.95S202.2,76.51,202.37,73.83Z" style="fill:#ffbe9d"></path><path d="M199.55,78.76s-.13.07-.34.15a1.22,1.22,0,0,1-.93,0A3.07,3.07,0,0,1,197.07,76a4.09,4.09,0,0,1,.48-1.75,1.38,1.38,0,0,1,1-.87.62.62,0,0,1,.7.39c.08.2,0,.34.06.36s.16-.11.13-.41a.76.76,0,0,0-.25-.46.93.93,0,0,0-.67-.23,1.71,1.71,0,0,0-1.37,1,4.2,4.2,0,0,0-.57,1.94c-.06,1.44.57,2.83,1.57,3.2a1.34,1.34,0,0,0,1.15-.1C199.53,78.93,199.58,78.77,199.55,78.76Z" style="fill:#eb996e"></path><path d="M190.85,63.78a6.33,6.33,0,0,1-.2-2.14,15.2,15.2,0,0,1,1-5.1A15.54,15.54,0,0,1,194.19,52a6.32,6.32,0,0,1,1.54-1.49,23.42,23.42,0,0,0-3.68,6.16A23.85,23.85,0,0,0,190.85,63.78Z" style="fill:#5E7EFF"></path><path d="M222.92,45.74c.57,2.91,4.86,6.74,6.73,9,3.56,4.4,4.24,5.85,3.94,15.45,1.83-3.27,3.25-6.48,3.22-10.23A15.51,15.51,0,0,0,233,49.71a12.08,12.08,0,0,0-10.07-4" style="fill:#263238"></path><path d="M186.6,64.43a12.15,12.15,0,0,1,1.75.41,20.2,20.2,0,0,0,4.8.77,9.67,9.67,0,0,0,3.27-.51A6.72,6.72,0,0,0,199.49,63c.85-1,1.15-2.46,1.91-3.81a5.73,5.73,0,0,1,3.8-2.75c1.65-.32,3.22.1,4.58-.29s2.18-1.66,2.84-2.83A10.67,10.67,0,0,1,215,50.2a9.39,9.39,0,0,1,3-1.7,9.18,9.18,0,0,1,4.92-.37,6.21,6.21,0,0,1,1.28.39,1.59,1.59,0,0,1,.43.21c0,.05-.62-.22-1.75-.4a9.43,9.43,0,0,0-4.76.52,9.24,9.24,0,0,0-2.84,1.68,10.38,10.38,0,0,0-2.27,3,11.42,11.42,0,0,1-1.19,1.8,4.13,4.13,0,0,1-1.92,1.28c-1.56.43-3.14,0-4.62.31a5.25,5.25,0,0,0-3.47,2.5c-.71,1.24-1,2.73-2,3.85a7.16,7.16,0,0,1-3.31,2.2,9.54,9.54,0,0,1-3.41.47A18.71,18.71,0,0,1,188.3,65c-.56-.17-1-.32-1.27-.43A1.66,1.66,0,0,1,186.6,64.43Z" style="fill:#455a64"></path><path d="M179.23,48.72s.06-.25.34-.6a4.8,4.8,0,0,1,1.45-1.2,5.82,5.82,0,0,1,2.73-.69,6.88,6.88,0,0,1,3.32.88,10.13,10.13,0,0,1,4.11,4.56,7.45,7.45,0,0,1,.85,2.39c-.08,0-.43-.87-1.17-2.22a10.69,10.69,0,0,0-4-4.27,6.7,6.7,0,0,0-3.07-.86,6,6,0,0,0-2.56.53A7.78,7.78,0,0,0,179.23,48.72Z" style="fill:#455a64"></path><path d="M182.63,60.39a3.38,3.38,0,0,1-1.11-1.78,7.4,7.4,0,0,1,.3-5.06,11.61,11.61,0,0,1,3.05-4,6.13,6.13,0,0,1,1.69-1.23,11.51,11.51,0,0,1-1.44,1.49,13.33,13.33,0,0,0-2.82,4,7.61,7.61,0,0,0-.42,4.74A16.82,16.82,0,0,0,182.63,60.39Z" style="fill:#455a64"></path><polygon points="62.23 275.44 75.53 272.79 81.87 292.25 63.82 293.83 57.53 288.84 62.23 275.44" style="fill:#ffbe9d"></polygon><path d="M66.71,295.61l-1.41.19s-6.62,24.79-11.14,25.62l-5.71-46.85,15.92-1.29C61.94,280.65,62.46,288,66.71,295.61Z" style="fill:#5E7EFF"></path><g style="opacity:0.6000000000000001"><path d="M59.88,278.64a2,2,0,0,0-2.37-1.05,1.85,1.85,0,0,0-1.09,2.32,2.06,2.06,0,0,0,2.52,1.1,1.91,1.91,0,0,0,.86-2.53" style="fill:#fff"></path></g><g style="opacity:0.6000000000000001"><path d="M48.45,274.57l3.83-.31,4.07,45s-.67,2.2-2.19,2.14Z" style="fill:#fff"></path></g><path d="M65.19,296c-.24,0-.48-1.11-1.37-2.15s-1.93-1.51-1.86-1.73,1.45-.05,2.49,1.22S65.41,296,65.19,296Z" style="fill:#263238"></path><path d="M63.72,301.14c-.22.08-.74-.86-1.81-1.52s-2.15-.75-2.16-1,1.27-.54,2.6.31S63.94,301.11,63.72,301.14Z" style="fill:#263238"></path><path d="M58.09,304.66c-.08-.2,1-.66,2.39-.23s2,1.44,1.8,1.56-1-.46-2.06-.8S58.14,304.88,58.09,304.66Z" style="fill:#263238"></path><polygon points="218.28 334.34 219.79 320.66 240.57 320.49 236.57 338.44 229.81 343 218.28 334.34" style="fill:#ffbe9d"></polygon><path d="M239.18,336.19l-.26,1.42s22,14,21.39,18.63l-47.08-8.83,3.62-15.79C223.24,336.22,230.49,338,239.18,336.19Z" style="fill:#5E7EFF"></path><g style="opacity:0.6000000000000001"><path d="M220.67,337.6a2,2,0,0,0-1.75,2,1.87,1.87,0,0,0,1.91,1.76,2.1,2.1,0,0,0,1.84-2.1,1.94,1.94,0,0,0-2.19-1.61" style="fill:#fff"></path></g><g style="opacity:0.6000000000000001"><path d="M213.23,347.41l.87-3.8,44.81,9.85s1.92,1.32,1.4,2.78Z" style="fill:#fff"></path></g><path d="M239.06,337.78c-.05.23-1.22.12-2.49.66s-2.06,1.41-2.25,1.27.4-1.41,2-2S239.15,337.57,239.06,337.78Z" style="fill:#263238"></path><path d="M243.61,340.78c0,.23-1.06.44-2,1.29s-1.39,1.84-1.62,1.79-.12-1.4,1.1-2.43S243.65,340.55,243.61,340.78Z" style="fill:#263238"></path><path d="M245.29,347.31c-.22,0-.32-1.22.51-2.39s2-1.47,2.07-1.26-.74.77-1.41,1.74S245.52,347.33,245.29,347.31Z" style="fill:#263238"></path><path d="M239.87,161.62l5.14-5.56,6,0a35.71,35.71,0,0,0,5.19,1.54,1.59,1.59,0,0,1-1.07,1.36s2.11,0,2.58.64-.29,2-1,2.77a5.77,5.77,0,0,1,.22,1.94,3.15,3.15,0,0,1-.7,1.83l-1.18.62a1.47,1.47,0,0,1,.4,1.66,4.66,4.66,0,0,1-1.7,1.7s1.09.41.77,1.26a2.14,2.14,0,0,1-1.32,1.52c-.68.26-7.11,1.18-8.51.87s-7.25-2.58-7.25-2.58Z" style="fill:#ffbe9d"></path><path d="M252.17,172.19a7.21,7.21,0,0,1-2.16-.08,15.61,15.61,0,0,1-2.29-.49,2.34,2.34,0,0,1-1.26-.71,1.4,1.4,0,0,1-.16-1.51,1.64,1.64,0,0,1,1.31-.88,4.39,4.39,0,0,1,1.43.13c.86.2,1.62.42,2.25.63a8.19,8.19,0,0,1,2,.83,17.08,17.08,0,0,1-2.06-.56c-.63-.18-1.39-.37-2.24-.54a4,4,0,0,0-1.28-.1,1.25,1.25,0,0,0-1,.66,1.06,1.06,0,0,0,.11,1.11,2,2,0,0,0,1.06.59,18,18,0,0,0,2.22.56C251.35,172.08,252.17,172.12,252.17,172.19Z" style="fill:#eb996e"></path><path d="M256.78,162.6c0,.07-.9-.09-2.34-.2-.72-.05-1.59-.09-2.54-.08-.48,0-1,0-1.5.07a2.53,2.53,0,0,1-1.7-.37,1.1,1.1,0,0,1-.46-.79,1.25,1.25,0,0,1,.21-.83,2.08,2.08,0,0,1,1.32-.89,9.4,9.4,0,0,1,1.39-.19l1.18-.1a14.44,14.44,0,0,1,2.37-.11,13.46,13.46,0,0,1-2.33.39c-.71.11-1.62.15-2.5.37a1.73,1.73,0,0,0-1.07.72.8.8,0,0,0,.16,1.12,2.14,2.14,0,0,0,1.41.29c.51,0,1-.05,1.52,0a21,21,0,0,1,2.57.16A8.86,8.86,0,0,1,256.78,162.6Z" style="fill:#eb996e"></path><path d="M255.07,166.29a15.11,15.11,0,0,1-1.77-.14,18.33,18.33,0,0,1-4.26-.57,10.26,10.26,0,0,1-1.2-.35,1.06,1.06,0,0,1-.52-.44,1.72,1.72,0,0,1-.15-.58,1.37,1.37,0,0,1,.05-.56,1.83,1.83,0,0,1,.24-.46,2.22,2.22,0,0,1,.66-.64,2.42,2.42,0,0,1,1.28-.4c.32,0,.48.06.48.08a3.33,3.33,0,0,0-1.58.55,2,2,0,0,0-.54.58,1.53,1.53,0,0,0-.18.39,1,1,0,0,0,0,.43,1.35,1.35,0,0,0,.12.43.68.68,0,0,0,.34.27,9.13,9.13,0,0,0,1.13.31,24,24,0,0,0,4.18.68A5.19,5.19,0,0,1,255.07,166.29Z" style="fill:#eb996e"></path><path d="M253.87,169.91a15.45,15.45,0,0,1-2.48-.51l-2.65-.67a5.86,5.86,0,0,1-1.57-.54,1.56,1.56,0,0,1-.64-.68,1.07,1.07,0,0,1,0-1,2,2,0,0,1,1.63-.86,14.73,14.73,0,0,1,1.64,0,18.45,18.45,0,0,1,2.75.29,12.31,12.31,0,0,1,1.8.46,1.87,1.87,0,0,1,.61.29c0,.06-.93-.27-2.46-.48-.77-.1-1.69-.17-2.71-.2-.51,0-1.07,0-1.6,0a1.52,1.52,0,0,0-1.28.66.87.87,0,0,0,.44,1.14,6.3,6.3,0,0,0,1.46.51l2.63.74A16.59,16.59,0,0,1,253.87,169.91Z" style="fill:#eb996e"></path><path d="M255.22,158.94a9.21,9.21,0,0,1-4.14.51c-.29,0-.57,0-.85-.07-.13,0-.29,0-.39-.06l-.14,0-.1,0a6.61,6.61,0,0,1-1.07.71,2.44,2.44,0,0,1-1.17.38,8.73,8.73,0,0,1,1-.62,10.8,10.8,0,0,0,1-.78.88.88,0,0,1,.26-.1l.25,0,.39.05c.25,0,.53,0,.81.06,1.13,0,2.16,0,2.9,0A8.27,8.27,0,0,1,255.22,158.94Z" style="fill:#eb996e"></path><path d="M246.7,164.06c-.06,0,.1-.29.19-.74a15.09,15.09,0,0,0,.23-1.82,3.67,3.67,0,0,0-.28-1.74c-.19-.42-.41-.64-.36-.69s.34.12.63.56a3.14,3.14,0,0,1,.43,1.89,6.74,6.74,0,0,1-.36,1.88C247,163.88,246.74,164.1,246.7,164.06Z" style="fill:#eb996e"></path><rect x="119.42" y="187.21" width="56.43" height="42.84" rx="4.96" transform="translate(173.88 -45.6) rotate(41.18)" style="fill:#263238"></rect><path d="M72.15,272.79s40-14.81,52.54-17.78c5.14-1.22,20-5.09,20-5.09l21.17-52.59,31.88,25.39s-28.3,50.86-34.31,55.74-90.34,15.76-90.34,15.76Z" style="fill:#455a64"></path><path d="M161.87,212.43a44.55,44.55,0,0,0,10.32,12.43c6.68,5.55,17.27,12.48,17.27,12.48l1.83-3.2Z" style="opacity:0.30000000000000004"></path><path d="M254.39,247.88c-3.23-6.81-13.15-20.17-21.95-30.65l-29.16-32.15-43.39-1.67s-10.35,24.7,8.63,36.44c0,0,15.95,11.62,26.59,16.75,13.36,9.05,27.21,18.55,27.21,18.55s-1.25,20.58-1.69,29.83c-.55,11.31-3.46,37.3-3.57,38.12l22.3,3.8S256.79,253,254.39,247.88Z" style="fill:#455a64"></path><path d="M217.06,323.1Z" style="fill:#455a64"></path><path d="M213.59,248.62a3.21,3.21,0,0,1-.63-.38l-1.73-1.19c-1.5-1-3.68-2.5-6.42-4.27-5.46-3.54-13.17-8.17-21.73-13.21-4.28-2.53-8.37-4.92-12-7.33a44.79,44.79,0,0,1-8.75-7.4,22.81,22.81,0,0,1-4.13-6.53,18,18,0,0,1-.66-2,3.76,3.76,0,0,1-.16-.72c.06,0,.29,1,1,2.64a24.06,24.06,0,0,0,4.21,6.36,47.31,47.31,0,0,0,8.75,7.25c3.58,2.36,7.68,4.74,12,7.27,8.57,5,16.26,9.73,21.68,13.35,2.71,1.81,4.86,3.33,6.33,4.41l1.67,1.27A5.66,5.66,0,0,1,213.59,248.62Z" style="fill:#263238"></path><path d="M141.08,189a28.39,28.39,0,0,1-2.74,3.59c-1.76,2.17-4.23,5.13-7,8.37s-5.27,6.16-7.12,8.26L122,211.66a4.6,4.6,0,0,1-.86.85,5.88,5.88,0,0,1,.71-1L124,209c1.77-2.16,4.25-5.11,7-8.36s5.27-6.16,7.1-8.26l2.19-2.48.61-.66Z" style="fill:#455a64"></path><path d="M157.07,222.23a8.36,8.36,0,0,1-1.08-.76l-2.81-2.21c-2.36-1.88-5.59-4.52-9.16-7.44a99.74,99.74,0,0,1-8.78-7.91c-1.06-1.08-1.9-2-2.46-2.6a6.11,6.11,0,0,1-.83-1,6.32,6.32,0,0,1,1,.88c.69.65,1.55,1.49,2.58,2.48,2.18,2.08,5.25,4.89,8.85,7.77s6.76,5.6,9.06,7.56l2.71,2.33A5.76,5.76,0,0,1,157.07,222.23Z" style="fill:#455a64"></path><path d="M219.23,157.11l21.35,3.74-2.92,13s-23.57-2.38-26.93-3.06-3.39-6.17-3.39-6.17Z" style="fill:#ebebeb"></path><path d="M221.56,104.32,195,96.11s-26.45,20.23-25.66,20.28c7.13.45,5.53,35,5.53,35l-12.26,20.26c-3.42,4.68-7,5.66-2.89,12.18l50.67,6.83L218,167.51s10.16-19.82,10.75-29.58S221.56,104.32,221.56,104.32Z" style="fill:#ebebeb"></path><polygon points="195.99 95.69 199.41 91.44 221.82 100.94 221.63 104.86 216.91 108.28 195.99 95.69" style="fill:#ebebeb"></polygon><path d="M226.75,146.85a1.51,1.51,0,0,1-.11.46q-.18.52-.42,1.29c-.38,1.11-.95,2.71-1.66,4.69-1.44,4-3.5,9.38-5.82,15.35l-6,15.3c-.74,1.9-1.36,3.46-1.82,4.64l-.51,1.25c-.12.28-.19.43-.21.42a1.51,1.51,0,0,1,.11-.46c.12-.35.26-.77.42-1.28.38-1.12.95-2.72,1.66-4.7,1.44-3.95,3.5-9.38,5.82-15.35l6-15.3c.74-1.9,1.36-3.46,1.82-4.63l.51-1.26A1.79,1.79,0,0,1,226.75,146.85Z" style="fill:#263238"></path><path d="M221.82,100.94a4.58,4.58,0,0,1-.59,1.15c-.43.71-1.13,1.69-2,2.87l-1.48,1.91c-.41.62-1.33,1.75-2.55,1.17-1.69-1.1-3.41-2.31-5.29-3.6-3.71-2.56-7.06-4.9-9.47-6.62l-2.84-2a5.19,5.19,0,0,1-1-.81,6.24,6.24,0,0,1,1.11.64l2.93,1.92c2.47,1.64,5.85,3.94,9.56,6.5l5.21,3.6a.79.79,0,0,0,.54.11,2.1,2.1,0,0,0,.59-.22,1.29,1.29,0,0,0,.45-.38l.41-.53,1.53-1.87c.94-1.14,1.67-2.08,2.15-2.75A9.75,9.75,0,0,1,221.82,100.94Z" style="fill:#263238"></path><g style="opacity:0.30000000000000004"><path d="M158.56,175.49l1.5,2.73c27.51-11.45,45.78-35.81,60.51-62.42A548.12,548.12,0,0,1,158.56,175.49Z"></path></g><path d="M222.15,106.18a4,4,0,0,0-1.46,1c-5.72,6.77-38.26,42.05-58.91,57.74l-25.13,17.69,5.88,6.07S184,158.05,200,141.91c13-13.17,23.65-29.67,23.9-29.95Z" style="fill:#263238"></path><path d="M167.8,163.7s1.19,5.83,2.56,7c0,0,10.43,10.62,10.92,11.06s2.14,1.16,2.93.64a2.52,2.52,0,0,0,.83-1.82s2.63,1.55,3.7.83a1.46,1.46,0,0,0,.66-1.75s2,.88,3.16-.37a3.93,3.93,0,0,0,.81-3.11s1.72,1.19,2.65.07a6.23,6.23,0,0,0,1-3.07h0l-1.57-2.43s-4.33-5.27-5.65-6.72-9.45-2.68-11.67-3.25-4.87-7.86-4.87-7.86Z" style="fill:#ffbe9d"></path><path d="M169.05,172.07l10.82-13.15-14.35-18.69c-3.47-7-2-6.44-2-6.44A64.88,64.88,0,0,1,175,128.93a94.81,94.81,0,0,0,15-6.85s11.63-5.08,13.68-8.62S206,102.29,202,99.12a15.39,15.39,0,0,0-3.9-2.7c-4.58-1.51-8.64-.74-13,1.36-6.87,3.33-18.5,9-20.17,9.73,0,0-21.54,10.54-23.72,12.35-5.31,4.42-6.41,9.28-1.22,17.81C145,145.79,169.05,172.07,169.05,172.07Z" style="fill:#ebebeb"></path><path d="M168,163.09c.06.06-.34.36-.32,1a1.29,1.29,0,0,0,.42.95,1.08,1.08,0,0,0,1.17.08,1.07,1.07,0,0,0,.65-1,1.29,1.29,0,0,0-.49-.91c-.52-.41-1-.29-1-.37s.48-.36,1.21.07a1.59,1.59,0,0,1,.76,1.18,1.52,1.52,0,0,1-.9,1.48,1.54,1.54,0,0,1-1.72-.19,1.59,1.59,0,0,1-.47-1.33C167.4,163.25,168,163,168,163.09Z" style="fill:#263238"></path><path d="M163.79,135.35a5,5,0,0,0-.45-1.83,12.53,12.53,0,0,0-6-6.61,4.69,4.69,0,0,0-1.78-.61,15.75,15.75,0,0,1,8.25,9Z" style="fill:#263238"></path><path d="M165.21,139.09s.13.11.34.36l.89,1.12,3.24,4.16,10.64,14,.13.16-.13.16L179,160.67l-9.55,11.54-.16.19-.16-.18-5.82-6.39-1.59-1.8a3.76,3.76,0,0,1-.53-.67,5.1,5.1,0,0,1,.63.58l1.68,1.72,5.94,6.26h-.32l9.48-11.59,1.3-1.58v.32L169.39,145l-3.1-4.27-.82-1.17A2.52,2.52,0,0,1,165.21,139.09Z" style="fill:#263238"></path><path d="M188.14,123.54a3.48,3.48,0,0,1-.95.49l-2.64,1.16-8.73,3.86c-3.41,1.5-6.53,2.8-8.82,3.66-1.15.43-2.08.76-2.73,1a4.62,4.62,0,0,1-1,.28,3.72,3.72,0,0,1,1-.47l2.66-1.12c2.25-.94,5.34-2.28,8.75-3.79s6.52-2.83,8.8-3.72c1.13-.45,2.06-.79,2.71-1A4.89,4.89,0,0,1,188.14,123.54Z" style="fill:#263238"></path><path d="M204.27,110.24c-.15,0,.18-1.43.18-3.71a11.26,11.26,0,0,0-.73-3.88A9.81,9.81,0,0,0,201,98.74a12.75,12.75,0,0,0-8.16-2.92,24,24,0,0,0-3.67.41,3.08,3.08,0,0,1,.94-.36,10.87,10.87,0,0,1,2.73-.42,13.24,13.24,0,0,1,4.07.52,11.59,11.59,0,0,1,4.43,2.38,10,10,0,0,1,2.86,4.13,11,11,0,0,1,.65,4,15.24,15.24,0,0,1-.32,2.73A6.63,6.63,0,0,1,204.27,110.24Z" style="fill:#263238"></path><g style="opacity:0.30000000000000004"><path d="M222.83,157.29c-1.7,4.45-4.32,9.9-5.55,14.5A18.34,18.34,0,0,0,222.83,157.29Z"></path></g><g style="opacity:0.30000000000000004"><path d="M217.64,106.51c-.25.27-.61,1.06-1,1.17a4.85,4.85,0,0,1-3-.89,54.55,54.55,0,0,0-12.26-7.88l1.67,1.26a78.4,78.4,0,0,0,11.35,9.7,5.68,5.68,0,0,0,1.39.6c.51,0,1.76,0,2.1-.72a55.91,55.91,0,0,0,2.79-7.4A48.61,48.61,0,0,1,217.64,106.51Z"></path></g><path d="M154.43,179.82a11.64,11.64,0,0,1-1.32,1.14c-.87.71-2.13,1.73-3.72,3s-3.47,2.69-5.66,4.2a31.49,31.49,0,0,1-3.58,2.18,5.44,5.44,0,0,1-2.21.62,3.22,3.22,0,0,1-2.25-.86,4.46,4.46,0,0,1-1.2-4.36,6.36,6.36,0,0,1,2.67-3.3c2.22-1.46,4.09-2.91,5.72-4.1s2.93-2.14,3.85-2.78a8.39,8.39,0,0,1,1.47-.94,15.8,15.8,0,0,1-1.35,1.1l-3.75,2.92c-1.59,1.21-3.47,2.71-5.66,4.19a6,6,0,0,0-2.46,3,4,4,0,0,0,1.07,3.85,2.66,2.66,0,0,0,1.88.72,4.88,4.88,0,0,0,2-.56,32.8,32.8,0,0,0,3.54-2.12c2.19-1.47,4.1-2.9,5.71-4.09L153,180.8A10.35,10.35,0,0,1,154.43,179.82Z" style="fill:#455a64"></path><path d="M258.17,248.33c0,.16-3.31.65-7.17,2.14s-6.68,3.33-6.76,3.2a7.35,7.35,0,0,1,1.78-1.32,29.35,29.35,0,0,1,9.95-3.81A8,8,0,0,1,258.17,248.33Z" style="fill:#263238"></path><path d="M165.59,259.8c-.15.05-1.08-2.28-2.47-5s-2.68-4.92-2.55-5a27.8,27.8,0,0,1,5,10Z" style="fill:#263238"></path></g></svg>