<svg xmlns="http://www.w3.org/2000/svg" viewBox="0 0 500 500"><g id="freepik--grey-charts--inject-631"><polygon points="146.12 186.71 165.94 175.27 146.12 163.83 126.12 175.27 146.12 186.71" style="fill:none;stroke:#ebebeb;stroke-linecap:round;stroke-linejoin:round;stroke-width:1.08419px"></polygon><polygon points="130.73 175.28 146.13 130.77 146.13 184.17 130.73 175.28" style="fill:#e0e0e0"></polygon><polygon points="146.13 184.17 161.52 175.28 146.13 130.77 146.13 184.17" style="fill:#e6e6e6"></polygon><polygon points="121.9 200.67 141.72 189.23 121.9 177.79 101.9 189.23 121.9 200.67" style="fill:none;stroke:#ebebeb;stroke-linecap:round;stroke-linejoin:round;stroke-width:1.08419px"></polygon><polygon points="106.51 189.24 121.9 123.14 121.9 198.13 106.51 189.24" style="fill:#e0e0e0"></polygon><polygon points="121.9 198.13 137.29 189.24 121.9 123.14 121.9 198.13" style="fill:#e6e6e6"></polygon><polygon points="97.68 214.63 117.5 203.19 97.68 191.75 77.67 203.19 97.68 214.63" style="fill:none;stroke:#ebebeb;stroke-linecap:round;stroke-linejoin:round;stroke-width:1.08419px"></polygon><polygon points="82.29 203.2 97.68 163.83 97.68 212.09 82.29 203.2" style="fill:#e0e0e0"></polygon><polygon points="97.68 212.09 113.07 203.2 97.68 163.83 97.68 212.09" style="fill:#e6e6e6"></polygon><polygon points="73.46 228.59 93.28 217.15 73.46 205.71 53.45 217.15 73.46 228.59" style="fill:none;stroke:#ebebeb;stroke-linecap:round;stroke-linejoin:round;stroke-width:1.08419px"></polygon><polygon points="58.06 217.16 73.46 150.32 73.46 226.05 58.06 217.16" style="fill:#e0e0e0"></polygon><polygon points="73.46 226.05 88.85 217.16 73.46 150.32 73.46 226.05" style="fill:#e6e6e6"></polygon><line x1="337.61" y1="171.5" x2="443.31" y2="232.52" style="fill:none;stroke:#ebebeb;stroke-linecap:round;stroke-miterlimit:10;stroke-width:1.08419px"></line><path d="M443.31,226.05a214.9,214.9,0,0,0-1.61-22.91c-1-8.26-3-22.2-10.95-26.8s-10.95,3.72-12.1,7.81c-1.5,5.31-9.29,1.95-10.37-6.8s-1.79-36.63-11.13-42-12.35,7.58-13.41,11.2c-2.09,7.11-8.22,5.15-10.22.44s-7.46-5.86-9.52.77-3.33,14.24-10,10.33c-5.86-3.43-3.17-9.68-8.88-12.65-4.52-2.34-6.62,8.82-6.62,20.11Z" style="fill:#e0e0e0"></path><path d="M435.63,167.86c0,1.22-1.1,1.57-2.44.8l-8-4.64a4.9,4.9,0,0,1-2.44-3.61c0-1.21,1.1-1.57,2.44-.79l8,4.64A4.88,4.88,0,0,1,435.63,167.86Z" style="fill:#e6e6e6"></path><path d="M402.79,128.63c0,1.22-1.09,1.57-2.44.8l-8-4.64a4.87,4.87,0,0,1-2.44-3.61c0-1.21,1.09-1.57,2.44-.79l8,4.64A4.86,4.86,0,0,1,402.79,128.63Z" style="fill:#e6e6e6"></path><path d="M376.78,135.85c0,1.22-1.09,1.57-2.43.8l-8-4.64a4.87,4.87,0,0,1-2.44-3.61c0-1.21,1.09-1.57,2.44-.79l8,4.64A4.87,4.87,0,0,1,376.78,135.85Z" style="fill:#e6e6e6"></path><path d="M352.12,138.24c0,1.22-1.09,1.57-2.44.79l-8-4.63a4.89,4.89,0,0,1-2.43-3.61c0-1.21,1.09-1.57,2.43-.79l8,4.63A4.89,4.89,0,0,1,352.12,138.24Z" style="fill:#e6e6e6"></path><line x1="333.21" y1="162.49" x2="333.21" y2="96.38" style="fill:none;stroke:#ebebeb;stroke-linecap:round;stroke-miterlimit:10;stroke-width:1.08419px"></line></g><g id="freepik--Plants--inject-631"><path d="M77,308.72s1.64-14.68-2.91-28.66C69.81,266.84,61.21,259.83,56,257.73c-9.85-3.93-10.73,6.92-3.35,14.43,5.41,5.52,18.43,16.9,20.67,36.2Z" style="fill:#5E7EFF"></path><path d="M77,308.72s1.64-14.68-2.91-28.66C69.81,266.84,61.21,259.83,56,257.73c-9.85-3.93-10.73,6.92-3.35,14.43,5.41,5.52,18.43,16.9,20.67,36.2Z" style="fill:#fff;opacity:0.7000000000000001"></path><path d="M53.34,260.76c5.95,4,21.94,15.55,22.52,47.85" style="fill:none;stroke:#fafafa;stroke-linecap:round;stroke-miterlimit:10;stroke-width:1.08419px"></path><path d="M72.81,318.75c-3.06-14.8-9.31-20.17-20.48-25.89-4.78-2.44-10.38-5.16-12.4-8.27s-1-7.29,5.88-7.2c12.57.17,26.89,15.32,28.8,31.92Z" style="fill:#5E7EFF"></path><path d="M72.81,318.75c-3.06-14.8-9.31-20.17-20.48-25.89-4.78-2.44-10.38-5.16-12.4-8.27s-1-7.29,5.88-7.2c12.57.17,26.89,15.32,28.8,31.92Z" style="fill:#fff;opacity:0.8"></path><path d="M44.75,280.61c9.49,1.29,24.48,12.35,29.24,32" style="fill:none;stroke:#fafafa;stroke-linecap:round;stroke-miterlimit:10;stroke-width:1.08419px"></path><path d="M423.4,301.79c3.85-7.4,6.84-28.16,1.89-37.76s-12.31-8.83-13.45-5.72c-1,2.87,1.47,8,4.67,14.11s5.9,19.2,2.87,25.3Z" style="fill:#5E7EFF"></path><path d="M423.4,301.79c3.85-7.4,6.84-28.16,1.89-37.76s-12.31-8.83-13.45-5.72c-1,2.87,1.47,8,4.67,14.11s5.9,19.2,2.87,25.3Z" style="fill:#fff;opacity:0.7000000000000001"></path><path d="M416.7,258.81c3.15,2.53,12.17,18,5.86,39.23" style="fill:none;stroke:#fafafa;stroke-linecap:round;stroke-miterlimit:10;stroke-width:1.08419px"></path><path d="M422.18,309.63c-2.32-4.64-7.4-12.32-3.94-17.59s7.08-.61,9.86-4.05-.4-9,2-12c4.64-5.9,8,.95,11.64.05,2.63-.65,5.56-6.48,13.13-5.77s7.19,6.71,3.82,9.53-7.37,5.63-4.77,9.86c2.3,3.75,3.49,10.68-4.38,13.37-7.52,2.57-3.8,5.83-5,9.51s-8.3,7.17-15.85,4.33Z" style="fill:#5E7EFF"></path><path d="M422.18,309.63c-2.32-4.64-7.4-12.32-3.94-17.59s7.08-.61,9.86-4.05-.4-9,2-12c4.64-5.9,8,.95,11.64.05,2.63-.65,5.56-6.48,13.13-5.77s7.19,6.71,3.82,9.53-7.37,5.63-4.77,9.86c2.3,3.75,3.49,10.68-4.38,13.37-7.52,2.57-3.8,5.83-5,9.51s-8.3,7.17-15.85,4.33Z" style="fill:#fff;opacity:0.8"></path><path d="M455.91,273.67c-8.2,2.2-27.84,18.16-29.5,38.19" style="fill:none;stroke:#fafafa;stroke-linecap:round;stroke-miterlimit:10;stroke-width:1.08419px"></path><path d="M450,294.7c-4.05-.92-14.34-1.05-18.19.82" style="fill:none;stroke:#fafafa;stroke-linecap:round;stroke-miterlimit:10;stroke-width:1.08419px"></path><path d="M434.1,277.75s3,5.81,2.57,10.7" style="fill:none;stroke:#fafafa;stroke-linecap:round;stroke-miterlimit:10;stroke-width:1.08419px"></path></g><g id="freepik--Charts--inject-631"><path d="M322.24,221a31.32,31.32,0,0,0-7-12.47A53,53,0,0,0,301.88,198a84.7,84.7,0,0,0-18.36-7.71,112.39,112.39,0,0,0-21.6-4,124.83,124.83,0,0,0-22.71,0,112.28,112.28,0,0,0-21.59,4A84.58,84.58,0,0,0,199.25,198a53.14,53.14,0,0,0-13.35,10.6,31.42,31.42,0,0,0-7,12.47,24.46,24.46,0,0,0,0,13.12,31.06,31.06,0,0,0,7,12.46,53.18,53.18,0,0,0,13.36,10.61,84.31,84.31,0,0,0,18.35,7.7A113.12,113.12,0,0,0,239.21,269a126.66,126.66,0,0,0,22.71,0,113.12,113.12,0,0,0,21.61-4.05,84.31,84.31,0,0,0,18.35-7.7h0a53,53,0,0,0,13.36-10.61,31.21,31.21,0,0,0,7-12.46A24.65,24.65,0,0,0,322.24,221Z" style="fill:#37474f"></path><polygon points="178 221.02 323.13 221.02 323.13 228.42 178 228.01 178 221.02" style="fill:#37474f"></polygon><path d="M239.21,179.66,250.55,221,217.62,183.7A112.28,112.28,0,0,1,239.21,179.66Z" style="fill:#455a64"></path><path d="M261.92,179.66,250.58,221h0l-11.34-41.36A124.83,124.83,0,0,1,261.92,179.66Z" style="fill:#455a64"></path><path d="M283.52,183.7,250.58,221l11.34-41.36A112.39,112.39,0,0,1,283.52,183.7Z" style="fill:#455a64"></path><path d="M315.23,202a31.43,31.43,0,0,1,7,12.48L250.59,221h0Z" style="fill:#455a64"></path><path d="M322.24,214.49a24.62,24.62,0,0,1,0,13.11L250.59,221Z" style="fill:#455a64"></path><path d="M322.24,227.6a31.31,31.31,0,0,1-7,12.47l-64.65-19Z" style="fill:#455a64"></path><path d="M315.24,240.07a53,53,0,0,1-13.36,10.6L250.57,221h0Z" style="fill:#455a64"></path><path d="M250.58,221.05l32.95,37.33a112.35,112.35,0,0,1-21.61,4l-11.35-41.36Z" style="fill:#455a64"></path><path d="M250.57,221.06l11.35,41.36a124.83,124.83,0,0,1-22.71,0Z" style="fill:#455a64"></path><path d="M250.55,221.05h0l-11.36,41.36a112.35,112.35,0,0,1-21.61-4Z" style="fill:#455a64"></path><path d="M250.55,221.05l-33,37.33a84.83,84.83,0,0,1-18.35-7.71Z" style="fill:#455a64"></path><path d="M250.54,221l-64.65,19a31.16,31.16,0,0,1-7-12.47Z" style="fill:#455a64"></path><path d="M250.54,221,178.9,227.6a24.42,24.42,0,0,1,0-13.11Z" style="fill:#455a64"></path><path d="M250.54,221h0l-71.64-6.55a31.52,31.52,0,0,1,7-12.48Z" style="fill:#455a64"></path><path d="M199.25,191.42,250.54,221,185.9,202A53.12,53.12,0,0,1,199.25,191.42Z" style="fill:#455a64"></path><path d="M301.88,191.42,250.58,221h0l32.94-37.32A84.23,84.23,0,0,1,301.88,191.42Z" style="fill:#455a64"></path><path d="M301.88,191.42A52.94,52.94,0,0,1,315.23,202l-64.64,19Z" style="fill:#455a64"></path><path d="M250.55,221h0l-51.32,29.63a53.16,53.16,0,0,1-13.36-10.6l64.65-19Z" style="fill:#455a64"></path><path d="M217.62,183.7,250.55,221h0l-51.3-29.62A84.11,84.11,0,0,1,217.62,183.7Z" style="fill:#455a64"></path><path d="M250.58,221.05l51.3,29.62a84.83,84.83,0,0,1-18.35,7.71Z" style="fill:#455a64"></path><path d="M206.68,179.28l40.75,23.52-2-33.25C230.44,170.19,217.71,173.39,206.68,179.28Z" style="fill:#5E7EFF"></path><path d="M206.68,179.28l40.75,23.52-2-33.25C230.44,170.19,217.71,173.39,206.68,179.28Z" style="fill:#fff;opacity:0.2"></path><polygon points="247.43 202.8 247.43 215.64 206.68 192.11 206.68 179.28 247.43 202.8" style="fill:#5E7EFF"></polygon><polygon points="247.43 202.8 247.43 215.64 206.68 192.11 206.68 179.28 247.43 202.8" style="opacity:0.1"></polygon><polygon points="300.26 182.58 253.49 203.68 253.49 216.51 300.26 195.41 300.26 182.58" style="fill:#5E7EFF"></polygon><polygon points="300.26 182.58 253.49 203.68 253.49 216.51 300.26 195.41 300.26 182.58" style="opacity:0.30000000000000004"></polygon><path d="M300.26,182.58c-12.59-8.57-29.38-13.09-48.84-13.15l1.25,20.79.82,13.46Z" style="fill:#5E7EFF"></path><path d="M300.26,182.58c-12.59-8.57-29.38-13.09-48.84-13.15l1.25,20.79.82,13.46Z" style="opacity:0.1"></path><polygon points="251.41 169.43 251.41 182.26 253.49 216.51 253.49 203.68 251.41 169.43" style="fill:#263238"></polygon><path d="M263,228.39l23.91,23c1.34-.51,2.58-1,4-1.68,16.47-7.42,25.08-18.54,25.07-29.76v-12.7c-1.81-4.83-6.79-4.82-12-9.07l-48.83,22-.49.22Z" style="fill:#5E7EFF"></path><path d="M263,228.39l23.91,23c1.34-.51,2.58-1,4-1.68,16.47-7.42,25.08-18.54,25.07-29.76v-12.7c-1.81-4.83-6.79-4.82-12-9.07l-48.83,22-.49.22Z" style="fill:#fff;opacity:0.6000000000000001"></path><path d="M263,215.56l23.91,23c1.34-.51,2.58-1,4-1.69C318.48,224.42,324,201.62,304,185.31l-48.83,22-.49.22Z" style="fill:#5E7EFF"></path><path d="M263,215.56l23.91,23c1.34-.51,2.58-1,4-1.69C318.48,224.42,324,201.62,304,185.31l-48.83,22-.49.22Z" style="fill:#fff;opacity:0.8"></path><polygon points="286.87 251.37 286.87 238.53 254.63 207.56 254.63 220.39 286.87 251.37" style="fill:#5E7EFF"></polygon><polygon points="286.87 251.37 286.87 238.53 254.63 207.56 254.63 220.39 286.87 251.37" style="fill:#fff;opacity:0.6000000000000001"></polygon><path d="M202.44,194.56c-6.87,4.33-14.5,7.06-17.28,12.32v12.84c0,6.69,3.11,13.47,9.56,19.67,9,8.63,23.25,14.73,40.18,17.16a107.91,107.91,0,0,0,46.82-3.41V240.31l-21.05-7.4L248.31,221Z" style="fill:#5E7EFF"></path><path d="M202.44,194.56c-6.87,4.33-14.5,7.06-17.28,12.32v12.84c0,6.69,3.11,13.47,9.56,19.67,9,8.63,23.25,14.73,40.18,17.16a107.91,107.91,0,0,0,46.82-3.41V240.31l-21.05-7.4L248.31,221Z" style="opacity:0.6000000000000001"></path><path d="M202.44,181.73c-19.74,12.42-22.92,30.22-7.72,44.82,9,8.64,23.25,14.73,40.18,17.17a108.07,108.07,0,0,0,46.82-3.41l-21.05-20.23-12.36-11.87Z" style="fill:#5E7EFF"></path><path d="M202.44,181.73c-19.74,12.42-22.92,30.22-7.72,44.82,9,8.64,23.25,14.73,40.18,17.17a108.07,108.07,0,0,0,46.82-3.41l-21.05-20.23-12.36-11.87Z" style="opacity:0.30000000000000004"></path><path d="M431.49,321.65a31.32,31.32,0,0,0-7-12.47,53,53,0,0,0-13.35-10.6,84.7,84.7,0,0,0-18.36-7.71,112.39,112.39,0,0,0-21.6-4,124.83,124.83,0,0,0-22.71,0,112.43,112.43,0,0,0-21.59,4,84.7,84.7,0,0,0-18.36,7.71,53,53,0,0,0-13.36,10.6,31.42,31.42,0,0,0-7,12.47,24.46,24.46,0,0,0,0,13.12,31.06,31.06,0,0,0,7,12.46,53.18,53.18,0,0,0,13.36,10.61,84.73,84.73,0,0,0,18.35,7.7,113.27,113.27,0,0,0,21.61,4,126.66,126.66,0,0,0,22.71,0,113.12,113.12,0,0,0,21.61-4,83.85,83.85,0,0,0,18.35-7.71h0a53,53,0,0,0,13.37-10.6,31.3,31.3,0,0,0,7-12.46A24.55,24.55,0,0,0,431.49,321.65Z" style="fill:#37474f"></path><polygon points="287.25 321.64 432.38 321.64 432.38 329.04 287.25 328.63 287.25 321.64" style="fill:#37474f"></polygon><path d="M348.46,280.28l11.35,41.36-32.94-37.32A112.43,112.43,0,0,1,348.46,280.28Z" style="fill:#455a64"></path><path d="M371.17,280.28l-11.34,41.36h0l-11.35-41.36A124.83,124.83,0,0,1,371.17,280.28Z" style="fill:#455a64"></path><path d="M392.77,284.32l-32.94,37.32,11.34-41.36A112.39,112.39,0,0,1,392.77,284.32Z" style="fill:#455a64"></path><path d="M424.48,302.63a31.36,31.36,0,0,1,7,12.48l-71.64,6.55h0Z" style="fill:#455a64"></path><path d="M431.49,315.11a24.52,24.52,0,0,1,0,13.11l-71.64-6.56Z" style="fill:#455a64"></path><path d="M431.49,328.22a31.4,31.4,0,0,1-7,12.47l-64.65-19Z" style="fill:#455a64"></path><path d="M424.5,340.69a53.44,53.44,0,0,1-13.37,10.6l-51.31-29.63h0Z" style="fill:#455a64"></path><path d="M359.83,321.67,392.78,359a113.11,113.11,0,0,1-21.61,4l-11.35-41.36Z" style="fill:#455a64"></path><path d="M359.82,321.68,371.17,363a125.74,125.74,0,0,1-22.71,0Z" style="fill:#455a64"></path><path d="M359.81,321.67h0L348.46,363a113.26,113.26,0,0,1-21.61-4Z" style="fill:#455a64"></path><path d="M359.81,321.67l-33,37.33a85.25,85.25,0,0,1-18.35-7.71Z" style="fill:#455a64"></path><path d="M359.79,321.66l-64.65,19a31.16,31.16,0,0,1-7-12.47Z" style="fill:#455a64"></path><path d="M359.79,321.66l-71.64,6.56a24.42,24.42,0,0,1,0-13.11Z" style="fill:#455a64"></path><path d="M359.79,321.65h0l-71.64-6.55a31.45,31.45,0,0,1,7-12.48Z" style="fill:#455a64"></path><path d="M308.51,292l51.28,29.61-64.64-19A53,53,0,0,1,308.51,292Z" style="fill:#455a64"></path><path d="M411.13,292l-51.3,29.61h0l32.94-37.32A84.23,84.23,0,0,1,411.13,292Z" style="fill:#455a64"></path><path d="M411.13,292a52.94,52.94,0,0,1,13.35,10.59l-64.63,19Z" style="fill:#455a64"></path><path d="M359.81,321.65h0L308.5,351.29a53.38,53.38,0,0,1-13.36-10.6l64.65-19Z" style="fill:#455a64"></path><path d="M326.87,284.32l32.94,37.32h0L308.51,292A84.23,84.23,0,0,1,326.87,284.32Z" style="fill:#455a64"></path><path d="M359.83,321.67l51.3,29.62A84.83,84.83,0,0,1,392.78,359Z" style="fill:#455a64"></path><path d="M295.89,305.41v20.78a22,22,0,0,1-.8-5.83V305.41Z" style="fill:#5E7EFF"></path><path d="M295.89,305.41v20.78a22,22,0,0,1-.8-5.83V305.41Z" style="opacity:0.30000000000000004"></path><path d="M359.79,305.43l-63.9,5.84a21.88,21.88,0,0,1,0-11.69Z" style="fill:#5E7EFF"></path><path d="M359.79,305.41h0l-63.9-5.85a28.07,28.07,0,0,1,6.25-11.13Z" style="fill:#5E7EFF"></path><path d="M314.05,279l45.74,26.41-57.65-17A47.41,47.41,0,0,1,314.05,279Z" style="fill:#5E7EFF"></path><path d="M330.43,272.12l29.38,33.28h0L314.05,279A75.23,75.23,0,0,1,330.43,272.12Z" style="fill:#5E7EFF"></path><path d="M349.69,268.52l10.12,36.88-29.38-33.28A99.82,99.82,0,0,1,349.69,268.52Z" style="fill:#5E7EFF"></path><path d="M370,268.52,359.83,305.4h0l-10.12-36.88A110.57,110.57,0,0,1,370,268.52Z" style="fill:#5E7EFF"></path><path d="M389.21,272.12,359.83,305.4,370,268.52A99.82,99.82,0,0,1,389.21,272.12Z" style="fill:#5E7EFF"></path><g style="opacity:0.2"><path d="M359.79,305.43l-63.9,5.84a21.88,21.88,0,0,1,0-11.69Z" style="fill:#fff"></path><path d="M359.79,305.41h0l-63.9-5.85a28.07,28.07,0,0,1,6.25-11.13Z" style="fill:#fff"></path><path d="M314.05,279l45.74,26.41-57.65-17A47.41,47.41,0,0,1,314.05,279Z" style="fill:#fff"></path><path d="M330.43,272.12l29.38,33.28h0L314.05,279A75.23,75.23,0,0,1,330.43,272.12Z" style="fill:#fff"></path><path d="M349.69,268.52l10.12,36.88-29.38-33.28A99.82,99.82,0,0,1,349.69,268.52Z" style="fill:#fff"></path><path d="M370,268.52,359.83,305.4h0l-10.12-36.88A110.57,110.57,0,0,1,370,268.52Z" style="fill:#fff"></path><path d="M389.21,272.12,359.83,305.4,370,268.52A99.82,99.82,0,0,1,389.21,272.12Z" style="fill:#fff"></path></g><path d="M414,315.39l-9.59,9-7.29,6.89-6.95,6.54-.93.87v14.93a75.42,75.42,0,0,0,16.38-6.87,47.69,47.69,0,0,0,11.92-9.47,27.77,27.77,0,0,0,6.23-11.11,22,22,0,0,0,.81-5.83V305.42Z" style="fill:#5E7EFF"></path><path d="M414,315.39l-9.59,9-7.29,6.89-6.95,6.54-.93.87v14.93a75.42,75.42,0,0,0,16.38-6.87,47.69,47.69,0,0,0,11.92-9.47,27.77,27.77,0,0,0,6.23-11.11,22,22,0,0,0,.81-5.83V305.42Z" style="opacity:0.30000000000000004"></path><path d="M417.5,288.45a28.2,28.2,0,0,1,6.25,11.13l-63.91,5.85h0Z" style="fill:#5E7EFF"></path><path d="M424.55,305.44a22.11,22.11,0,0,1-.81,5.84l-19.36-1.78-44.54-4.08,54.13-5,9.77-.89A22.16,22.16,0,0,1,424.55,305.44Z" style="fill:#5E7EFF"></path><path d="M423.74,311.28a27.84,27.84,0,0,1-6.23,11.11l-20.42-6-37.25-11,44.54,4.08Z" style="fill:#5E7EFF"></path><path d="M417.51,322.39a47.69,47.69,0,0,1-11.92,9.47l-15.45-8.94-30.29-17.48v0l37.25,11Z" style="fill:#5E7EFF"></path><path d="M405.59,279l-45.76,26.42h0l29.38-33.28A75.65,75.65,0,0,1,405.59,279Z" style="fill:#5E7EFF"></path><path d="M405.59,279a47.59,47.59,0,0,1,11.91,9.45l-57.66,17Z" style="fill:#5E7EFF"></path><path d="M405.59,331.86a75.4,75.4,0,0,1-16.38,6.86l-29.36-33.28,30.29,17.48Z" style="fill:#5E7EFF"></path><g style="opacity:0.2"><path d="M417.5,288.45a28.2,28.2,0,0,1,6.25,11.13l-63.91,5.85h0Z" style="fill:#fff"></path><path d="M424.55,305.44a22.11,22.11,0,0,1-.81,5.84l-19.36-1.78-44.54-4.08,54.13-5,9.77-.89A22.16,22.16,0,0,1,424.55,305.44Z" style="fill:#fff"></path><path d="M423.74,311.28a27.84,27.84,0,0,1-6.23,11.11l-20.42-6-37.25-11,44.54,4.08Z" style="fill:#fff"></path><path d="M417.51,322.39a47.69,47.69,0,0,1-11.92,9.47l-15.45-8.94-30.29-17.48v0l37.25,11Z" style="fill:#fff"></path><path d="M405.59,279l-45.76,26.42h0l29.38-33.28A75.65,75.65,0,0,1,405.59,279Z" style="fill:#fff"></path><path d="M405.59,279a47.59,47.59,0,0,1,11.91,9.45l-57.66,17Z" style="fill:#fff"></path><path d="M405.59,331.86a75.4,75.4,0,0,1-16.38,6.86l-29.36-33.28,30.29,17.48Z" style="fill:#fff"></path></g><polygon points="389.22 338.73 389.22 353.66 359.81 320.34 359.81 305.4 389.22 338.73" style="fill:#263238"></polygon><polygon points="359.81 320.34 295.89 326.21 295.89 311.27 359.81 305.4 359.81 320.34" style="fill:#5E7EFF"></polygon><polygon points="359.81 320.34 295.89 326.21 295.89 311.27 359.81 305.4 359.81 320.34" style="opacity:0.1"></polygon><path d="M213,321.65a31.32,31.32,0,0,0-7-12.47,53.14,53.14,0,0,0-13.35-10.6,84.58,84.58,0,0,0-18.37-7.71,112.28,112.28,0,0,0-21.59-4,124.83,124.83,0,0,0-22.71,0,112.53,112.53,0,0,0-21.6,4A84.7,84.7,0,0,0,90,298.58a53,53,0,0,0-13.35,10.6,31.32,31.32,0,0,0-7,12.47,24.65,24.65,0,0,0,0,13.12,31.21,31.21,0,0,0,7,12.46A53,53,0,0,0,90,357.84a84.31,84.31,0,0,0,18.35,7.7,113.12,113.12,0,0,0,21.61,4,126.66,126.66,0,0,0,22.71,0,113.12,113.12,0,0,0,21.61-4,83.85,83.85,0,0,0,18.35-7.71h0A52.93,52.93,0,0,0,206,347.23a31.21,31.21,0,0,0,7-12.46A24.65,24.65,0,0,0,213,321.65Z" style="fill:#37474f"></path><polygon points="68.75 321.64 213.88 321.64 213.88 329.04 68.75 328.63 68.75 321.64" style="fill:#37474f"></polygon><path d="M130,280.28l11.34,41.36-32.94-37.32A112.53,112.53,0,0,1,130,280.28Z" style="fill:#455a64"></path><path d="M152.67,280.28l-11.34,41.36h0L130,280.28A124.83,124.83,0,0,1,152.67,280.28Z" style="fill:#455a64"></path><path d="M174.26,284.32l-32.93,37.32,11.34-41.36A112.28,112.28,0,0,1,174.26,284.32Z" style="fill:#455a64"></path><path d="M206,302.63a31.36,31.36,0,0,1,7,12.48l-71.65,6.55h0Z" style="fill:#455a64"></path><path d="M213,315.11a24.62,24.62,0,0,1,0,13.11l-71.65-6.56Z" style="fill:#455a64"></path><path d="M213,328.22a31.31,31.31,0,0,1-7,12.47l-64.65-19Z" style="fill:#455a64"></path><path d="M206,340.69a53.38,53.38,0,0,1-13.36,10.6l-51.32-29.63h0Z" style="fill:#455a64"></path><path d="M141.33,321.67,174.28,359a113.11,113.11,0,0,1-21.61,4l-11.36-41.36Z" style="fill:#455a64"></path><path d="M141.31,321.68,152.67,363A125.74,125.74,0,0,1,130,363Z" style="fill:#455a64"></path><path d="M141.3,321.67h0L130,363a113.11,113.11,0,0,1-21.61-4Z" style="fill:#455a64"></path><path d="M141.3,321.67l-33,37.33A84.83,84.83,0,0,1,90,351.29Z" style="fill:#455a64"></path><path d="M141.29,321.66l-64.65,19a31.31,31.31,0,0,1-7-12.47Z" style="fill:#455a64"></path><path d="M141.29,321.66l-71.65,6.56a24.62,24.62,0,0,1,0-13.11Z" style="fill:#455a64"></path><path d="M141.29,321.65h0l-71.65-6.55a31.36,31.36,0,0,1,7-12.48Z" style="fill:#455a64"></path><path d="M90,292l51.29,29.61-64.64-19A52.94,52.94,0,0,1,90,292Z" style="fill:#455a64"></path><path d="M192.63,292l-51.3,29.61h0l32.93-37.32A84.11,84.11,0,0,1,192.63,292Z" style="fill:#455a64"></path><path d="M192.63,292A53.12,53.12,0,0,1,206,302.63l-64.64,19Z" style="fill:#455a64"></path><path d="M141.3,321.65h0L90,351.29a53.2,53.2,0,0,1-13.36-10.6l64.65-19Z" style="fill:#455a64"></path><path d="M108.36,284.32l32.94,37.32h0L90,292A84.23,84.23,0,0,1,108.36,284.32Z" style="fill:#455a64"></path><path d="M141.33,321.67l51.3,29.62A84.83,84.83,0,0,1,174.28,359Z" style="fill:#455a64"></path><path d="M160.61,296l8.27-9.38c0-11-13.44-11.27-19.38-11.8s-16.13-3.94-16.13,8.58l2.84,10.36A79,79,0,0,1,160.61,296Z" style="fill:#5E7EFF"></path><path d="M160.61,296l8.27-9.38c0-11-13.44-11.27-19.38-11.8s-16.13-3.94-16.13,8.58l2.84,10.36A79,79,0,0,1,160.61,296Z" style="fill:#fff;opacity:0.6000000000000001"></path><path d="M160.61,281.27l8.27-9.37a109.08,109.08,0,0,0-35.51-3.22L136.21,279A79,79,0,0,1,160.61,281.27Z" style="fill:#5E7EFF"></path><path d="M160.61,281.27l8.27-9.37a109.08,109.08,0,0,0-35.51-3.22L136.21,279A79,79,0,0,1,160.61,281.27Z" style="fill:#fff;opacity:0.8"></path><polygon points="136.21 279.04 136.21 293.78 133.37 283.42 133.37 268.68 136.21 279.04" style="fill:#5E7EFF"></polygon><polygon points="168.88 271.9 160.61 281.27 160.61 296.02 168.88 286.64 168.88 271.9" style="fill:#5E7EFF"></polygon><g style="opacity:0.6000000000000001"><polygon points="136.21 279.04 136.21 293.78 133.37 283.42 133.37 268.68 136.21 279.04" style="fill:#fff"></polygon><polygon points="168.88 271.9 160.61 281.27 160.61 296.02 168.88 286.64 168.88 271.9" style="fill:#fff"></polygon></g><path d="M164.65,282.46V297.2a54.21,54.21,0,0,1,9.94,4.35,35.2,35.2,0,0,1,7.53,5.74l16.22-4.77a49.06,49.06,0,0,0-10.91-8.38C183,291.6,178.26,281.3,164.65,282.46Z" style="fill:#5E7EFF"></path><path d="M164.65,282.46V297.2a54.21,54.21,0,0,1,9.94,4.35,35.2,35.2,0,0,1,7.53,5.74l16.22-4.77a49.06,49.06,0,0,0-10.91-8.38C183,291.6,178.26,281.3,164.65,282.46Z" style="opacity:0.6000000000000001"></path><path d="M172.92,273.1l-8.27,9.36a52.88,52.88,0,0,1,9.94,4.35,35.2,35.2,0,0,1,7.53,5.74l16.22-4.77a48.47,48.47,0,0,0-10.91-8.38A73.94,73.94,0,0,0,172.92,273.1Z" style="fill:#5E7EFF"></path><path d="M172.92,273.1l-8.27,9.36a52.88,52.88,0,0,1,9.94,4.35,35.2,35.2,0,0,1,7.53,5.74l16.22-4.77a48.47,48.47,0,0,0-10.91-8.38A73.94,73.94,0,0,0,172.92,273.1Z" style="opacity:0.30000000000000004"></path><polygon points="182.12 292.55 198.34 287.77 198.34 302.52 182.12 307.29 182.12 292.55" style="fill:#5E7EFF"></polygon><polygon points="182.12 292.55 198.34 287.77 198.34 302.52 182.12 307.29 182.12 292.55" style="opacity:0.6000000000000001"></polygon><path d="M206.48,305.63H201c-.2-.26-.37-.52-.57-.78l-16.24-10v14.75c3.46,4.45,4.77,9.31,3.87,14.08L206,325.35a22.28,22.28,0,0,0,.45-4.52h0Z" style="fill:#5E7EFF"></path><path d="M206.48,305.63H201c-.2-.26-.37-.52-.57-.78l-16.24-10v14.75c3.46,4.45,4.77,9.31,3.87,14.08L206,325.35a22.28,22.28,0,0,0,.45-4.52h0Z" style="opacity:0.6000000000000001"></path><path d="M188.05,309,206,310.61c1.46-6.93-.39-14.06-5.58-20.5l-16.24,4.77C187.64,299.33,189,304.2,188.05,309Z" style="fill:#5E7EFF"></path><path d="M188.05,309,206,310.61c1.46-6.93-.39-14.06-5.58-20.5l-16.24,4.77C187.64,299.33,189,304.2,188.05,309Z" style="opacity:0.30000000000000004"></path><polygon points="206 310.61 206 325.36 188.05 323.71 188.05 308.97 206 310.61" style="fill:#5E7EFF"></polygon><polygon points="206 310.61 206 325.36 188.05 323.71 188.05 308.97 206 310.61" style="opacity:0.6000000000000001"></polygon><path d="M131.73,294.2V279.45c-10-4.61-28.62.07-34.86,13.8l12.84,7.42A64.82,64.82,0,0,1,131.73,294.2Z" style="fill:#5E7EFF"></path><path d="M131.73,294.2V279.45c-10-4.61-28.62.07-34.86,13.8l12.84,7.42A64.82,64.82,0,0,1,131.73,294.2Z" style="opacity:0.30000000000000004"></path><path d="M131.73,279.45l-2.85-10.39c-12.09,1.36-23.16,4.69-32,9.45l12.84,7.41A64.82,64.82,0,0,1,131.73,279.45Z" style="fill:#5E7EFF"></path><path d="M131.73,279.45l-2.85-10.39c-12.09,1.36-23.16,4.69-32,9.45l12.84,7.41A64.82,64.82,0,0,1,131.73,279.45Z" style="opacity:0.1"></path><polygon points="109.71 285.92 109.71 300.67 96.87 293.25 96.87 278.51 109.71 285.92" style="fill:#263238"></polygon><path d="M96.28,287.78l-2.64,7.31c-8.63,5.34-14.08,11.77-16.32,18.5l18,1.64c1.65-4.61,5.41-9,11.23-12.7V287.78Z" style="fill:#5E7EFF"></path><path d="M96.28,287.78l-2.64,7.31c-8.63,5.34-14.08,11.77-16.32,18.5l18,1.64c1.65-4.61,5.41-9,11.23-12.7V287.78Z" style="opacity:0.30000000000000004"></path><path d="M106.51,287.78l-12.87-7.43c-8.63,5.33-14.08,11.77-16.32,18.49l18,1.65C96.93,295.88,100.69,291.48,106.51,287.78Z" style="fill:#5E7EFF"></path><path d="M106.51,287.78l-12.87-7.43c-8.63,5.33-14.08,11.77-16.32,18.49l18,1.65C96.93,295.88,100.69,291.48,106.51,287.78Z" style="opacity:0.1"></path><polygon points="77.32 298.84 77.32 313.59 95.28 315.23 95.28 300.49 77.32 298.84" style="fill:#263238"></polygon><path d="M94.57,317.82V303.07l-5.34-.48L76.15,306v14.73h0a25.16,25.16,0,0,0,6,15.95l16.24-4.77C95,327.46,93.68,322.59,94.57,317.82Z" style="fill:#5E7EFF"></path><path d="M94.57,317.82V303.07l-5.34-.48L76.15,306v14.73h0a25.16,25.16,0,0,0,6,15.95l16.24-4.77C95,327.46,93.68,322.59,94.57,317.82Z" style="opacity:0.30000000000000004"></path><polygon points="82.21 321.94 98.45 317.16 98.45 331.91 82.21 336.68 82.21 321.94" style="fill:#263238"></polygon><path d="M94.58,303.07l-18-1.64c-1.46,6.94.39,14.06,5.58,20.51l16.24-4.78C95,312.71,93.68,307.84,94.58,303.07Z" style="fill:#5E7EFF"></path><path d="M94.58,303.07l-18-1.64c-1.46,6.94.39,14.06,5.58,20.51l16.24-4.78C95,312.71,93.68,307.84,94.58,303.07Z" style="opacity:0.1"></path><path d="M113.79,336.66c-7.61-4.39-11.41-10.14-11.41-15.89V306h77.87v14.74c0,5.76-3.8,11.51-11.41,15.9C153.64,345.44,129,345.44,113.79,336.66Z" style="fill:#37474f"></path><ellipse cx="141.32" cy="306.02" rx="38.93" ry="22.48" style="fill:#455a64"></ellipse><path d="M109.71,340.88V339L84.28,324.27V339a48.84,48.84,0,0,0,10.92,8.38,73.94,73.94,0,0,0,14.51,6.3l8.26-9.36A56,56,0,0,1,109.71,340.88Z" style="fill:#5E7EFF"></path><path d="M109.71,340.88V339L84.28,324.27V339a48.84,48.84,0,0,0,10.92,8.38,73.94,73.94,0,0,0,14.51,6.3l8.26-9.36A56,56,0,0,1,109.71,340.88Z" style="opacity:0.30000000000000004"></path><path d="M108,325.23a35.17,35.17,0,0,1-7.54-5.73l-16.22,4.77a49.13,49.13,0,0,0,10.92,8.38,74.54,74.54,0,0,0,14.51,6.3l8.26-9.37A52.78,52.78,0,0,1,108,325.23Z" style="fill:#5E7EFF"></path><path d="M108,325.23a35.17,35.17,0,0,1-7.54-5.73l-16.22,4.77a49.13,49.13,0,0,0,10.92,8.38,74.54,74.54,0,0,0,14.51,6.3l8.26-9.37A52.78,52.78,0,0,1,108,325.23Z" style="opacity:0.1"></path><polygon points="109.71 353.69 109.71 338.95 117.97 329.58 117.97 344.33 109.71 353.69" style="fill:#263238"></polygon><path d="M113.75,340.14v14.75a109.08,109.08,0,0,0,35.51,3.22V343.37Z" style="fill:#5E7EFF"></path><path d="M113.75,340.14v14.75a109.08,109.08,0,0,0,35.51,3.22V343.37Z" style="opacity:0.1"></path><path d="M122,330.77l-8.27,9.37a109.35,109.35,0,0,0,35.51,3.23L146.42,333A79,79,0,0,1,122,330.77Z" style="fill:#5E7EFF"></path><path d="M122,330.77l-8.27,9.37a109.35,109.35,0,0,0,35.51,3.23L146.42,333A79,79,0,0,1,122,330.77Z" style="fill:#fff;opacity:0.2"></path><path d="M176.12,339,189,346.44c8.63-5.33,14.08-11.77,16.32-18.5V313.2l-18,13.1C185.7,330.91,181.94,335.31,176.12,339Z" style="fill:#5E7EFF"></path><path d="M176.12,339,189,346.44c8.63-5.33,14.08-11.77,16.32-18.5V313.2l-18,13.1C185.7,330.91,181.94,335.31,176.12,339Z" style="opacity:0.1"></path><path d="M176.12,324.26,189,331.7c8.63-5.34,14.08-11.77,16.32-18.5l-18-1.64C185.7,316.17,181.94,320.56,176.12,324.26Z" style="fill:#5E7EFF"></path><path d="M176.12,324.26,189,331.7c8.63-5.34,14.08-11.77,16.32-18.5l-18-1.64C185.7,316.17,181.94,320.56,176.12,324.26Z" style="fill:#fff;opacity:0.2"></path><polygon points="188.99 331.7 188.99 346.44 176.12 339.01 176.12 324.26 188.99 331.7" style="fill:#5E7EFF"></polygon><polygon points="188.99 331.7 188.99 346.44 176.12 339.01 176.12 324.26 188.99 331.7" style="opacity:0.30000000000000004"></polygon><path d="M153.75,343v4c-.95.15-1.89.28-2.85.39l2.85,10.38c11.65-1.3,22.79-4.45,32-9.43V333.55Z" style="fill:#5E7EFF"></path><path d="M153.75,343v4c-.95.15-1.89.28-2.85.39l2.85,10.38c11.65-1.3,22.79-4.45,32-9.43V333.55Z" style="opacity:0.1"></path><path d="M150.9,332.6,153.75,343c11.65-1.3,22.79-4.44,32-9.42l-12.87-7.44A64.1,64.1,0,0,1,150.9,332.6Z" style="fill:#5E7EFF"></path><path d="M150.9,332.6,153.75,343c11.65-1.3,22.79-4.44,32-9.42l-12.87-7.44A64.1,64.1,0,0,1,150.9,332.6Z" style="fill:#fff;opacity:0.2"></path><polygon points="153.75 342.97 153.75 357.71 150.9 347.35 150.9 332.6 153.75 342.97" style="fill:#5E7EFF"></polygon><polygon points="153.75 342.97 153.75 357.71 150.9 347.35 150.9 332.6 153.75 342.97" style="opacity:0.30000000000000004"></polygon></g><g id="freepik--speech-bubbles--inject-631"><path d="M403.31,244.34a4.16,4.16,0,0,0-1.87-3.25l-27.08-15.63c-1-.6-1.87-.11-1.87,1.09v26.17a4.14,4.14,0,0,0,1.87,3.25l11.34,6.54L389.28,277a1,1,0,0,0,2,.09l3.28-9.47,6.93,4c1,.6,1.87.11,1.87-1.08Z" style="fill:#5E7EFF"></path><path d="M403.31,244.34a4.16,4.16,0,0,0-1.87-3.25l-27.08-15.63c-1-.6-1.87-.11-1.87,1.09v26.17a4.14,4.14,0,0,0,1.87,3.25l11.34,6.54L389.28,277a1,1,0,0,0,2,.09l3.28-9.47,6.93,4c1,.6,1.87.11,1.87-1.08Z" style="fill:#fff;opacity:0.5"></path><path d="M382.75,237.38a7.54,7.54,0,0,1,1.52,1.14,8.14,8.14,0,0,1,1.09,1.31,6.45,6.45,0,0,1,.67,1.34,5.14,5.14,0,0,1,.27,1.24c0,.43.05.88.05,1.35s0,.9-.05,1.3a2.3,2.3,0,0,1-.27.92,1.29,1.29,0,0,1-.67.57,2.06,2.06,0,0,1-1.09,0,5,5,0,0,1-1.52-.63,7.59,7.59,0,0,1-1.53-1.13,7.11,7.11,0,0,1-1.08-1.29,5.73,5.73,0,0,1-.95-2.59c0-.43,0-.88,0-1.35s0-.9,0-1.29a2.47,2.47,0,0,1,.28-.93,1.22,1.22,0,0,1,.67-.57,2.11,2.11,0,0,1,1.08-.05A4.75,4.75,0,0,1,382.75,237.38Zm9.56,6.09a.68.68,0,0,1,.35-.13,1.06,1.06,0,0,1,.51.17l1.43.83a1.37,1.37,0,0,1,.42.37.78.78,0,0,1,.15.44.44.44,0,0,1,0,.1.36.36,0,0,1-.07.1l-11.78,8.7a.74.74,0,0,1-.35.14,1,1,0,0,1-.51-.18l-1.43-.82a1.3,1.3,0,0,1-.42-.38.76.76,0,0,1-.16-.43.26.26,0,0,1,0-.11.23.23,0,0,1,.07-.1Zm-8.3,0a2.29,2.29,0,0,0,0-.44v-1.29a2.74,2.74,0,0,0,0-.47,2.53,2.53,0,0,0-.31-1,2.41,2.41,0,0,0-.95-.88c-.46-.27-.78-.34-1-.22a.83.83,0,0,0-.31.63c0,.09,0,.23,0,.44s0,.41,0,.63,0,.44,0,.65,0,.37,0,.48a2.71,2.71,0,0,0,.31,1,2.44,2.44,0,0,0,1,.88c.46.27.78.34.95.22A.8.8,0,0,0,384,243.5Zm9.06,8.21a7.62,7.62,0,0,1,1.53,1.14,8,8,0,0,1,1.08,1.31,5.6,5.6,0,0,1,.67,1.34,5.73,5.73,0,0,1,.28,1.24c0,.43,0,.88,0,1.35s0,.9,0,1.3a2.42,2.42,0,0,1-.28.92,1.14,1.14,0,0,1-.67.57,1.92,1.92,0,0,1-1.08,0,5.06,5.06,0,0,1-1.53-.63,7.51,7.51,0,0,1-1.52-1.13,7.62,7.62,0,0,1-1.09-1.29,6.21,6.21,0,0,1-.67-1.34,5.25,5.25,0,0,1-.27-1.24c0-.44,0-.89,0-1.36s0-.9,0-1.29a2.3,2.3,0,0,1,.27-.93,1.25,1.25,0,0,1,.67-.57,2.28,2.28,0,0,1,1.09,0A4.71,4.71,0,0,1,393.07,251.71Zm1.27,6.12a4,4,0,0,0,0-.44V256.1c0-.2,0-.36,0-.46a2.9,2.9,0,0,0-.31-1,2.52,2.52,0,0,0-1-.88c-.46-.27-.78-.34-.95-.22a.83.83,0,0,0-.31.63,3.16,3.16,0,0,0,0,.44c0,.2,0,.41,0,.63s0,.44,0,.66a3.93,3.93,0,0,0,0,.47,2.48,2.48,0,0,0,.31,1,2.34,2.34,0,0,0,.95.88c.46.27.78.34,1,.22A.87.87,0,0,0,394.34,257.83Z" style="fill:#fafafa"></path><path d="M286.16,144a4.17,4.17,0,0,0-1.87-3.25l-27.08-15.62c-1-.6-1.87-.12-1.87,1.08v26.17a4.17,4.17,0,0,0,1.87,3.26l11.34,6.54,3.58,14.46a1,1,0,0,0,1.95.09l3.28-9.47,6.93,4c1,.6,1.87.12,1.87-1.08Z" style="fill:#5E7EFF"></path><path d="M286.16,144a4.17,4.17,0,0,0-1.87-3.25l-27.08-15.62c-1-.6-1.87-.12-1.87,1.08v26.17a4.17,4.17,0,0,0,1.87,3.26l11.34,6.54,3.58,14.46a1,1,0,0,0,1.95.09l3.28-9.47,6.93,4c1,.6,1.87.12,1.87-1.08Z" style="fill:#fff;opacity:0.5"></path><path d="M265.6,137.08a7.54,7.54,0,0,1,1.52,1.14,8.6,8.6,0,0,1,1.09,1.31,6,6,0,0,1,.67,1.34,5.14,5.14,0,0,1,.27,1.24c0,.43.05.88.05,1.35s0,.9-.05,1.3a2.3,2.3,0,0,1-.27.93,1.2,1.2,0,0,1-.67.56,2.05,2.05,0,0,1-1.09.05,4.83,4.83,0,0,1-1.52-.64,7.23,7.23,0,0,1-1.53-1.13,7.11,7.11,0,0,1-1.08-1.29,5.6,5.6,0,0,1-.67-1.34,5.73,5.73,0,0,1-.28-1.24c0-.44,0-.89,0-1.35s0-.91,0-1.3a2.47,2.47,0,0,1,.28-.93,1.22,1.22,0,0,1,.67-.57,2.23,2.23,0,0,1,1.08,0A4.75,4.75,0,0,1,265.6,137.08Zm9.56,6.09a.79.79,0,0,1,.35-.13,1,1,0,0,1,.51.18l1.43.82a1.51,1.51,0,0,1,.42.37.8.8,0,0,1,.15.44.52.52,0,0,1,0,.11.61.61,0,0,1-.07.1l-11.78,8.7a.79.79,0,0,1-.35.13,1,1,0,0,1-.51-.18l-1.43-.82a1.27,1.27,0,0,1-.42-.37.8.8,0,0,1-.15-.44.18.18,0,0,1,0-.1.26.26,0,0,1,.07-.11Zm-8.3,0a2.22,2.22,0,0,0,0-.44v-1.29a2.61,2.61,0,0,0,0-.46,2.43,2.43,0,0,0-.31-1,2.36,2.36,0,0,0-.95-.89c-.46-.26-.78-.34-1-.21a.87.87,0,0,0-.31.63c0,.08,0,.23,0,.43s0,.41,0,.64,0,.44,0,.65,0,.37,0,.47a2.78,2.78,0,0,0,.31,1,2.44,2.44,0,0,0,1,.88c.46.27.78.34.95.22A.8.8,0,0,0,266.86,143.2Zm9.06,8.21a7.29,7.29,0,0,1,1.53,1.15,7.52,7.52,0,0,1,1.08,1.3,5.78,5.78,0,0,1,.67,1.34,5.86,5.86,0,0,1,.28,1.24c0,.44,0,.89,0,1.36s0,.9,0,1.29a2.47,2.47,0,0,1-.28.93,1.22,1.22,0,0,1-.67.57,2,2,0,0,1-1.08,0,5.06,5.06,0,0,1-1.53-.63,8.23,8.23,0,0,1-1.52-1.13,8.09,8.09,0,0,1-1.09-1.3,6.45,6.45,0,0,1-.67-1.34,5.14,5.14,0,0,1-.27-1.24c0-.43-.05-.88-.05-1.35s0-.9.05-1.3a2.34,2.34,0,0,1,.27-.93,1.27,1.27,0,0,1,.67-.56,2.15,2.15,0,0,1,1.09-.06A4.86,4.86,0,0,1,275.92,151.41Zm1.27,6.12a4,4,0,0,0,0-.44V155.8c0-.2,0-.36,0-.46a2.6,2.6,0,0,0-.31-1,2.46,2.46,0,0,0-1-.89c-.46-.26-.78-.34-.95-.21a.8.8,0,0,0-.31.63,2.83,2.83,0,0,0,0,.43c0,.2,0,.41,0,.64s0,.44,0,.65a3.73,3.73,0,0,0,0,.47,2.43,2.43,0,0,0,.31,1,2.36,2.36,0,0,0,.95.89q.69.39,1,.21A.83.83,0,0,0,277.19,157.53Z" style="fill:#fafafa"></path><path d="M100.24,243.53a4.16,4.16,0,0,1,1.87-3.25l27.08-15.63c1-.6,1.87-.11,1.87,1.09v26.17a4.14,4.14,0,0,1-1.87,3.25l-11.34,6.54-3.58,14.47a1,1,0,0,1-2,.09L109,266.79l-6.93,4c-1,.6-1.87.11-1.87-1.08Z" style="fill:#5E7EFF"></path><g style="opacity:0.5"><path d="M100.24,243.53a4.16,4.16,0,0,1,1.87-3.25l27.08-15.63c1-.6,1.87-.11,1.87,1.09v26.17a4.14,4.14,0,0,1-1.87,3.25l-11.34,6.54-3.58,14.47a1,1,0,0,1-2,.09L109,266.79l-6.93,4c-1,.6-1.87.11-1.87-1.08Z" style="fill:#fff"></path></g><path d="M109.7,241.58a5.52,5.52,0,0,1,1.76-.71,2.58,2.58,0,0,1,1.26.06,1.43,1.43,0,0,1,.77.66,2.62,2.62,0,0,1,.31,1.07q.06.69.06,1.5t-.06,1.56a6,6,0,0,1-.31,1.44,6.93,6.93,0,0,1-.77,1.54,8.65,8.65,0,0,1-1.26,1.5,9.06,9.06,0,0,1-1.76,1.31,6.09,6.09,0,0,1-1.77.73,2.44,2.44,0,0,1-1.25-.05,1.43,1.43,0,0,1-.77-.66,2.63,2.63,0,0,1-.32-1.07c0-.46,0-1,0-1.5s0-1.06,0-1.56a6.08,6.08,0,0,1,.32-1.44,6.52,6.52,0,0,1,.77-1.54,9.53,9.53,0,0,1,1.25-1.51A9.1,9.1,0,0,1,109.7,241.58Zm11-5.71a3.91,3.91,0,0,1,.4-.62,2.27,2.27,0,0,1,.59-.48l1.66-1a.65.65,0,0,1,.48-.12c.12,0,.18.13.18.29a.61.61,0,0,1,0,.16l-.08.21-13.62,25.78a3.79,3.79,0,0,1-.4.61,2.12,2.12,0,0,1-.59.48l-1.65,1a.68.68,0,0,1-.49.12c-.12,0-.18-.13-.18-.29a.61.61,0,0,1,0-.16l.08-.21ZM111.16,247a3.57,3.57,0,0,0,0-.54v-1.49a3,3,0,0,0,0-.51,1,1,0,0,0-.36-.73c-.2-.14-.57,0-1.1.25a2.67,2.67,0,0,0-1.46,2.17,3.45,3.45,0,0,0,0,.55c0,.24,0,.49,0,.75s0,.5,0,.74a2.67,2.67,0,0,0,0,.5.92.92,0,0,0,.36.73c.2.14.56.05,1.1-.25a2.76,2.76,0,0,0,1.1-1A3,3,0,0,0,111.16,247Zm10.47-2.6a5.76,5.76,0,0,1,1.77-.72,2.54,2.54,0,0,1,1.25.06,1.43,1.43,0,0,1,.77.66,2.63,2.63,0,0,1,.32,1.07c0,.46.05,1,.05,1.5s0,1.06-.05,1.56a6,6,0,0,1-.32,1.44,6.77,6.77,0,0,1-.77,1.55,8.82,8.82,0,0,1-3,2.8,5.88,5.88,0,0,1-1.76.73,2.37,2.37,0,0,1-1.26-.05,1.39,1.39,0,0,1-.77-.66,2.58,2.58,0,0,1-.31-1.07c0-.45-.06-1-.06-1.49s0-1.07.06-1.57a5.86,5.86,0,0,1,.31-1.43,7,7,0,0,1,.77-1.55,9.09,9.09,0,0,1,1.26-1.51A8.34,8.34,0,0,1,121.63,244.37Zm1.46,5.38a3.57,3.57,0,0,0,0-.54v-1.48a3,3,0,0,0,0-.51.91.91,0,0,0-.36-.73c-.2-.14-.56-.06-1.1.25a2.82,2.82,0,0,0-1.1,1,3.14,3.14,0,0,0-.36,1.15,5.05,5.05,0,0,0,0,.54c0,.25,0,.5,0,.75s0,.51,0,.74a4,4,0,0,0,0,.5,1,1,0,0,0,.36.73c.2.14.57.06,1.1-.25a2.75,2.75,0,0,0,1.1-1A2.8,2.8,0,0,0,123.09,249.75Z" style="fill:#fafafa"></path></g></svg>