<svg width="940" height="457" viewBox="0 0 940 457" fill="none" xmlns="http://www.w3.org/2000/svg">
<g clip-path="url(#clip0_71_86)">
<path d="M564.249 311.601C638.808 311.601 699.249 308.467 699.249 304.601C699.249 300.735 638.808 297.601 564.249 297.601C489.691 297.601 429.249 300.735 429.249 304.601C429.249 308.467 489.691 311.601 564.249 311.601Z" fill="#D1D4F3"/>
<path d="M147.249 456.601C172.102 456.601 192.249 453.467 192.249 449.601C192.249 445.735 172.102 442.601 147.249 442.601C122.396 442.601 102.249 445.735 102.249 449.601C102.249 453.467 122.396 456.601 147.249 456.601Z" fill="#D1D4F3"/>
<path d="M584.664 10.0943L584.144 15.2012L682.633 25.2317L683.153 20.1249L584.664 10.0943Z" fill="#E6E6E6"/>
<path d="M557.448 19.067C562.713 19.067 566.982 14.7988 566.982 9.53384C566.982 4.26885 562.713 0.000732422 557.448 0.000732422C552.183 0.000732422 547.915 4.26885 547.915 9.53384C547.915 14.7988 552.183 19.067 557.448 19.067Z" fill="#E6E6E6"/>
<path d="M584.664 38.0943L584.144 43.2012L682.633 53.2317L683.153 48.1249L584.664 38.0943Z" fill="#E4E6FC"/>
<path d="M557.448 47.067C562.713 47.067 566.982 42.7988 566.982 37.5338C566.982 32.2689 562.713 28.0007 557.448 28.0007C552.183 28.0007 547.915 32.2689 547.915 37.5338C547.915 42.7988 552.183 47.067 557.448 47.067Z" fill="#E4E6FC"/>
<path d="M584.664 66.0943L584.144 71.2012L682.633 81.2317L683.153 76.1249L584.664 66.0943Z" fill="#5865F5"/>
<path d="M557.448 75.067C562.713 75.067 566.982 70.7988 566.982 65.5338C566.982 60.2688 562.713 56.0007 557.448 56.0007C552.183 56.0007 547.915 60.2688 547.915 65.5338C547.915 70.7988 552.183 75.067 557.448 75.067Z" fill="#5865F5"/>
<path d="M19.924 166.829L74.249 125.601L73.806 205.874L22.589 248.125L19.924 166.829Z" fill="#E4E6FC"/>
<path d="M256.922 16.7451L362.661 1.81006L364.249 93.9051L257.852 111.524L256.922 16.7451Z" fill="#5865F5"/>
<path d="M870.249 173.491V254.894L922.822 305.421L925.276 222.902L870.249 173.491Z" fill="#5865F5"/>
<path d="M870.561 100.377V112.387L907.191 142.147L908.911 131.847L870.561 100.377Z" fill="#5865F5"/>
<path d="M871.141 120.977L870.561 132.997L939.811 198.227L938.671 184.497L871.141 120.977Z" fill="#E6E6E6"/>
<path d="M870.561 143.297V154.737L939.811 221.127V206.247L870.561 143.297Z" fill="#E6E6E6"/>
<path d="M149.849 441.23H144.362L141.751 420.063H149.85L149.849 441.23Z" fill="#9E616A"/>
<path d="M151.249 446.549L133.554 446.548V446.325C133.554 444.498 134.28 442.746 135.572 441.455C136.863 440.163 138.615 439.438 140.441 439.438H140.442L151.249 439.438L151.249 446.549Z" fill="#2F2E41"/>
<path d="M169.309 435.789L164.236 437.882L153.748 419.313L161.234 416.223L169.309 435.789Z" fill="#9E616A"/>
<path d="M172.632 440.172L156.276 446.922L156.191 446.715C155.494 445.027 155.496 443.131 156.197 441.444C156.898 439.758 158.241 438.419 159.929 437.722L159.93 437.721L169.919 433.599L172.632 440.172Z" fill="#2F2E41"/>
<path d="M153.464 282.047C153.464 282.047 173.826 291.697 160.297 335.899L159.268 370.868L152.519 435.156L141.539 434.457L136.683 372.569L120.497 321.453L123.709 296.763L153.464 282.047Z" fill="#2F2E41"/>
<path d="M122.388 303.287L124.044 271.193C112.784 252.283 124.325 241.481 125.263 240.652L135.58 225.585L144.608 223.107C146.381 222.62 148.242 222.551 150.046 222.905C151.85 223.259 153.548 224.026 155.005 225.146C156.463 226.267 157.641 227.71 158.447 229.362C159.253 231.014 159.666 232.831 159.651 234.669L159.247 287.256L122.388 303.287Z" fill="#5865F5"/>
<path d="M142.984 381.916L154.331 428.978L167.334 423.693L149.713 381.096L142.984 381.916Z" fill="#2F2E41"/>
<path d="M125.683 319.934C126.452 319.608 127.139 319.118 127.698 318.498C128.257 317.877 128.673 317.142 128.917 316.344C129.16 315.545 129.226 314.703 129.109 313.877C128.992 313.05 128.696 312.259 128.24 311.56L139.745 295.267L130.16 294.718L119.965 310.069C118.841 310.912 118.065 312.139 117.784 313.516C117.503 314.893 117.738 316.325 118.443 317.541C119.147 318.757 120.274 319.672 121.608 320.113C122.943 320.554 124.392 320.49 125.683 319.934V319.934Z" fill="#9E616A"/>
<path d="M129.675 241.325L134.705 276.81L120.497 303.566L132.386 311.008L152.869 280.727L144.292 237.823L129.675 241.325Z" fill="#5865F5"/>
<path d="M140.107 217.214C148.491 217.214 155.287 210.417 155.287 202.034C155.287 193.65 148.491 186.854 140.107 186.854C131.724 186.854 124.927 193.65 124.927 202.034C124.927 210.417 131.724 217.214 140.107 217.214Z" fill="#9E616A"/>
<path d="M162.996 258.639C163.563 250.146 167.119 242.192 169.985 234.178C172.851 226.164 175.076 217.441 172.909 209.21C171.642 204.968 169.651 200.977 167.023 197.413C162.281 190.536 156.236 184.142 148.402 181.244C140.568 178.346 130.695 179.79 125.542 186.364C123.651 188.677 122.633 191.581 122.666 194.568C122.701 196.052 123.098 197.504 123.82 198.801C124.542 200.097 125.569 201.198 126.812 202.009C128.243 202.876 129.945 203.282 131.248 204.332C132.55 205.381 133.263 207.515 132.078 208.695L132.551 208.928C136.797 209.843 139.166 214.655 139.129 218.998C139.093 223.341 137.327 227.453 136.234 231.656C135.141 235.859 134.821 240.68 137.345 244.214C139.855 247.727 144.705 249.273 146.537 253.183C149.036 258.519 144.506 264.628 145.05 270.495C145.572 276.127 150.851 280.381 156.376 281.595C161.901 282.809 167.639 281.66 173.178 280.512C165.641 276.558 162.429 267.131 162.996 258.639Z" fill="#2F2E41"/>
<path d="M514.593 180.733L515.334 156.069L512.042 133.133L507.115 133.467L502.97 157.601L507.602 183.477C506.709 184.7 506.238 186.18 506.259 187.694C506.28 189.208 506.791 190.675 507.716 191.873C508.641 193.072 509.93 193.938 511.39 194.341C512.849 194.745 514.4 194.664 515.81 194.111C517.219 193.558 518.411 192.562 519.206 191.273C520.002 189.985 520.358 188.473 520.22 186.965C520.083 185.457 519.461 184.035 518.446 182.911C517.431 181.787 516.079 181.023 514.593 180.733H514.593Z" fill="#9E616A"/>
<path d="M513.97 238.601L500.162 297.058L510.566 297.797L530.506 241.219L513.97 238.601Z" fill="#9E616A"/>
<path d="M538.584 234.759L557.64 291.722L566.872 286.869L552.249 229.601L538.584 234.759Z" fill="#9E616A"/>
<path d="M513.252 185.697C513.252 185.697 506.636 193.013 518.053 207.057L503.249 284.601L514.249 288.601L534.249 236.601L552.249 281.601L566.249 275.601L547.125 207.057L549.249 189.601L543.962 184.715L513.252 185.697Z" fill="#E4E6FC"/>
<path d="M526.992 106.757C526.992 106.757 506.97 114.601 508.97 126.601L513.895 174.037L508.83 190.487C508.83 190.487 542.614 195.913 548.792 189.757L549.97 137.601L552.183 116.986L541.482 112.657L538.812 108.697L526.992 106.757Z" fill="#3F3D56"/>
<path d="M512.042 120.652L504.74 137.093L515.596 141.297L512.042 120.652Z" fill="#3F3D56"/>
<path d="M566.776 187.561L557.97 140.557L543.962 139.387L547.91 162.983L557.449 189.681C556.661 190.845 556.241 192.218 556.243 193.623C556.246 195.028 556.671 196.4 557.464 197.56C558.257 198.72 559.38 199.615 560.688 200.129C561.996 200.642 563.429 200.75 564.799 200.438C566.169 200.127 567.414 199.41 568.371 198.382C569.329 197.354 569.955 196.061 570.168 194.672C570.381 193.283 570.172 191.862 569.567 190.594C568.962 189.326 567.989 188.269 566.776 187.561V187.561Z" fill="#9E616A"/>
<path d="M536.253 122.731L544.332 145.667L559.97 143.601C559.97 143.601 563.396 122.371 552.183 116.986L536.253 122.731Z" fill="#3F3D56"/>
<path d="M547.224 89.2602C546.816 108.895 516.572 105.542 520.58 86.2517C523.665 70.9006 547.636 73.6291 547.224 89.2602Z" fill="#9E616A"/>
<path d="M539.854 71.2002C530.372 72.8166 515.687 69.0148 515.975 83.8605C515.002 85.3144 513.933 86.9071 514.624 88.7303C517.969 92.8092 519.717 99.1261 524.083 101.991C527.974 101.962 533.054 102.506 535.664 99.1105C536.773 96.3266 534.811 92.9327 536.484 90.3201C538.677 89.6204 540.817 92.4274 541.674 88.4297C541.554 87.4592 541.698 86.4744 542.09 85.5787C542.482 84.6831 543.109 83.9098 543.904 83.3402C547.338 79.4082 544.998 72.1627 539.854 71.2002Z" fill="#3F3D56"/>
<path d="M497.468 295.602L513.819 295.601H513.819C516.583 295.601 519.233 296.699 521.187 298.653C523.141 300.607 524.239 303.257 524.239 306.021V306.359L497.468 306.36L497.468 295.602Z" fill="#2F2E41"/>
<path d="M553.635 288.543L569.618 285.097L569.619 285.097C572.32 284.514 575.142 285.029 577.464 286.527C579.786 288.026 581.418 290.385 582.001 293.086L582.072 293.417L555.903 299.06L553.635 288.543Z" fill="#2F2E41"/>
<path d="M621.563 299.657H626.846L629.359 279.281H621.562L621.563 299.657Z" fill="#FFB6B6"/>
<path d="M620.216 297.932L630.619 297.932H630.619C632.378 297.932 634.064 298.63 635.307 299.874C636.55 301.117 637.249 302.803 637.249 304.562V304.777L620.216 304.778L620.216 297.932Z" fill="#2F2E41"/>
<path d="M594.563 299.657H599.846L602.359 279.281H594.562L594.563 299.657Z" fill="#FFB6B6"/>
<path d="M593.216 297.932L603.619 297.932H603.619C605.378 297.932 607.064 298.63 608.307 299.874C609.55 301.117 610.249 302.803 610.249 304.562V304.777L593.216 304.778L593.216 297.932Z" fill="#2F2E41"/>
<path d="M656.249 72.6008C656.25 71.7142 656.053 70.8385 655.675 70.0368C655.296 69.235 654.745 68.5271 654.06 67.964C653.375 67.4009 652.574 66.9965 651.714 66.78C650.854 66.5635 649.957 66.5403 649.088 66.7119C648.218 66.8835 647.397 67.2458 646.684 67.7727C645.971 68.2996 645.383 68.978 644.964 69.759C644.544 70.5401 644.303 71.4044 644.257 72.2898C644.211 73.1753 644.363 74.0598 644.7 74.8798L632.56 94.0865L625.003 109.317L631.239 114.852L636.039 109.8L651.735 78.4078C653.025 78.0785 654.17 77.3291 654.987 76.2776C655.804 75.2262 656.248 73.9326 656.249 72.6008V72.6008Z" fill="#FFB6B6"/>
<path d="M593.249 135.601L581.35 133.757L578.515 155.284L563.071 188.518C562.064 189.146 561.265 190.059 560.776 191.14C560.287 192.222 560.13 193.424 560.324 194.595C560.518 195.766 561.055 196.853 561.867 197.719C562.679 198.585 563.73 199.191 564.886 199.46C566.042 199.729 567.252 199.649 568.363 199.23C569.473 198.812 570.435 198.073 571.126 197.108C571.818 196.143 572.207 194.995 572.246 193.809C572.285 192.622 571.971 191.451 571.344 190.443L587.492 161.285L593.249 135.601Z" fill="#FFB6B6"/>
<path d="M599.843 171.463C599.843 171.463 589.379 181.14 590.709 205.47L593.64 243.057L592.901 295.451L603.649 294.607L613.039 206.8L622.039 242.8L618.808 290.756L629.161 290.997L640.039 236.8L637.46 196.627L633.129 171.463H599.843Z" fill="#2F2E41"/>
<path d="M611.039 114.801L586.039 121.801L598.75 159.887L596.85 174.457L635.397 174.706L626.47 146.545C626.47 146.545 631.48 136.243 625.759 129.022L611.039 114.801Z" fill="#E4E6FC"/>
<path d="M608.039 120.8L611.039 114.8C611.039 114.8 610.942 113.293 617.99 112.547L626.26 104.327L633.83 111.871L621.039 130.8L608.039 120.8Z" fill="#E4E6FC"/>
<path d="M596.039 126.8C596.039 126.8 587.039 116.8 582.039 121.8C577.039 126.8 579.602 142.699 579.602 142.699L595.175 145.116L596.039 126.8Z" fill="#E4E6FC"/>
<path d="M600.604 88.3611C615.931 88.4299 615.929 111.734 600.603 111.801C585.276 111.732 585.278 88.4278 600.604 88.3611Z" fill="#FFB6B6"/>
<path d="M602.31 99.3064C604.382 100.527 606.534 101.774 608.924 102.036C611.315 102.298 614.02 101.292 614.979 99.0869C615.279 98.3229 615.438 97.511 615.449 96.6904C615.659 92.5029 614.211 88.4013 611.417 85.2751C610.014 83.7428 608.298 82.5309 606.385 81.722C604.472 80.9131 602.407 80.5263 600.331 80.5879C596.37 80.7601 592.71 82.6347 589.196 84.4688C585.964 86.1554 582.552 88.0138 580.796 91.2084C578.194 95.9421 580.091 101.738 580.596 107.116C580.951 111.126 580.494 115.167 579.253 118.996C578.011 122.826 576.011 126.366 573.371 129.406L595.179 131.472C597.821 131.862 600.507 131.835 603.141 131.391C605.385 130.89 607.452 129.79 609.121 128.208C610.79 126.626 612 124.621 612.62 122.407C613.241 120.192 613.25 117.851 612.647 115.632C612.043 113.412 610.85 111.398 609.193 109.803C606.098 106.823 601.12 104.713 600.997 100.418" fill="#2F2E41"/>
<path d="M0 152.075L79.881 93.5979L79.249 98.6009L0.249 157.601L0 152.075Z" fill="#5865F5"/>
<path d="M416.95 423.058C438.976 422.967 438.976 427.829 416.949 427.738C394.924 427.829 394.924 422.967 416.95 423.058Z" fill="#D1D4F3"/>
<path d="M95.95 421.058C117.976 420.967 117.976 425.829 95.9494 425.738C73.9237 425.829 73.9235 420.967 95.95 421.058Z" fill="#D1D4F3"/>
<path d="M711.95 336.058C733.976 335.967 733.976 340.829 711.949 340.738C689.924 340.829 689.924 335.967 711.95 336.058Z" fill="#D1D4F3"/>
<path d="M710.191 332.505C710.236 330.371 708.704 328.052 706.569 328.038C705.719 328.096 704.912 328.441 704.282 329.016C703.652 329.591 703.236 330.362 703.101 331.204C702.993 332.05 703.061 332.909 703.301 333.727C703.541 334.545 703.948 335.304 704.496 335.957C705.6 337.255 706.879 338.392 708.297 339.336L708.673 337.962C708.41 338.128 708.13 338.265 707.838 338.372C708.987 336.572 710.146 334.64 710.191 332.505Z" fill="#D1D4F3"/>
<path d="M708.673 337.962C709.001 337.751 709.302 337.502 709.57 337.219C709.324 337.269 709.08 337.334 708.833 337.38L708.673 337.962Z" fill="#D1D4F3"/>
<path d="M724.702 321.253C723.715 320.479 722.546 319.971 721.307 319.779C720.068 319.586 718.8 319.715 717.625 320.153C716.459 320.613 715.409 321.323 714.548 322.234C713.687 323.145 713.038 324.234 712.645 325.425C711.873 327.72 712.032 330.213 711.657 332.605C711.442 334.318 710.715 335.926 709.57 337.219C713.401 336.454 717.125 335.226 720.66 333.563C723.215 332.355 725.86 330.691 726.747 328.007C727.104 326.804 727.1 325.524 726.737 324.323C726.373 323.123 725.666 322.056 724.702 321.253V321.253Z" fill="#D1D4F3"/>
<path d="M417.191 419.505C417.236 417.371 415.704 415.052 413.569 415.038C412.719 415.096 411.912 415.441 411.282 416.016C410.652 416.591 410.236 417.362 410.101 418.204C409.993 419.05 410.061 419.909 410.301 420.727C410.541 421.545 410.948 422.304 411.496 422.957C412.6 424.255 413.879 425.392 415.297 426.336L415.673 424.962C415.41 425.128 415.13 425.265 414.838 425.372C415.987 423.572 417.146 421.64 417.191 419.505Z" fill="#D1D4F3"/>
<path d="M415.673 424.962C416.001 424.751 416.302 424.502 416.57 424.219C416.324 424.269 416.08 424.334 415.833 424.38L415.673 424.962Z" fill="#D1D4F3"/>
<path d="M431.702 408.253C430.715 407.479 429.546 406.971 428.307 406.779C427.068 406.586 425.8 406.715 424.625 407.153C423.459 407.613 422.409 408.323 421.548 409.234C420.687 410.145 420.038 411.234 419.645 412.425C418.873 414.72 419.032 417.213 418.657 419.605C418.442 421.318 417.715 422.926 416.57 424.219C420.401 423.454 424.125 422.226 427.66 420.563C430.215 419.355 432.86 417.691 433.747 415.007C434.104 413.804 434.1 412.524 433.737 411.323C433.373 410.123 432.666 409.056 431.702 408.253V408.253Z" fill="#D1D4F3"/>
<path d="M96.1909 417.505C96.2357 415.371 94.7043 413.052 92.5695 413.038C91.7185 413.096 90.9124 413.441 90.2824 414.016C89.6525 414.591 89.2359 415.362 89.1006 416.204C88.9925 417.05 89.0607 417.909 89.301 418.727C89.5412 419.545 89.9483 420.304 90.4965 420.957C91.5998 422.255 92.8788 423.392 94.2965 424.336L94.6733 422.962C94.4102 423.128 94.1302 423.265 93.8381 423.372C94.9866 421.572 96.1461 419.64 96.1909 417.505Z" fill="#D1D4F3"/>
<path d="M94.6733 422.962C95.001 422.751 95.3022 422.502 95.5705 422.219C95.3237 422.269 95.0803 422.334 94.8328 422.38L94.6733 422.962Z" fill="#D1D4F3"/>
<path d="M110.702 406.253C109.715 405.479 108.546 404.971 107.307 404.779C106.068 404.586 104.8 404.715 103.625 405.153C102.459 405.613 101.409 406.323 100.548 407.234C99.6874 408.145 99.0376 409.234 98.6449 410.425C97.8726 412.72 98.0317 415.213 97.6568 417.605C97.4419 419.318 96.7147 420.926 95.5706 422.219C99.4014 421.454 103.125 420.226 106.66 418.563C109.215 417.355 111.86 415.691 112.747 413.007C113.104 411.804 113.101 410.524 112.737 409.323C112.373 408.123 111.666 407.056 110.702 406.253V406.253Z" fill="#D1D4F3"/>
</g>
<defs>
<clipPath id="clip0_71_86">
<rect width="939.811" height="456.601" fill="white"/>
</clipPath>
</defs>
</svg>
